STARTCHAR char256
ENCODING 256
SWIDTH 551 0
DWIDTH 16 0
BBX 13 22 1 0
BITMAP
1FC0
1FC0
0000
0000
0700
0700
0D80
0D80
0D80
1CC0
18C0
18C0
38E0
3060
3060
7FF0
7FF0
6030
6038
E038
C018
C018
ENDCHAR
STARTCHAR char257
ENCODING 257
SWIDTH 551 0
DWIDTH 16 0
BBX 11 19 2 0
BITMAP
3F80
3F80
0000
0000
0000
3F00
7FC0
40C0
00E0
0060
3FE0
7FE0
E060
C060
C0E0
C0E0
E1E0
7F60
3E60
ENDCHAR
STARTCHAR char258
ENCODING 258
SWIDTH 551 0
DWIDTH 16 0
BBX 13 23 1 0
BITMAP
18C0
1FC0
0F80
0000
0000
0700
0700
0D80
0D80
0D80
1CC0
18C0
18C0
38E0
3060
3060
7FF0
7FF0
6030
6038
E038
C018
C018
ENDCHAR
STARTCHAR char259
ENCODING 259
SWIDTH 551 0
DWIDTH 16 0
BBX 11 20 2 0
BITMAP
2080
3180
3F80
1F00
0000
0000
3F00
7FC0
40C0
00E0
0060
3FE0
7FE0
E060
C060
C0E0
C0E0
E1E0
7F60
3E60
ENDCHAR
STARTCHAR char260
ENCODING 260
SWIDTH 551 0
DWIDTH 16 0
BBX 15 23 1 -5
BITMAP
0700
0700
0D80
0D80
0D80
1CC0
18C0
18C0
38E0
3060
3060
7FF0
7FF0
6030
6038
E038
C018
C018
0018
0030
0030
003E
001E
ENDCHAR
STARTCHAR char261
ENCODING 261
SWIDTH 551 0
DWIDTH 16 0
BBX 12 19 2 -5
BITMAP
3F00
7FC0
40C0
00E0
0060
3FE0
7FE0
E060
C060
C0E0
C0E0
E1E0
7F60
3E60
00C0
0180
0180
01F0
00F0
ENDCHAR
STARTCHAR char262
ENCODING 262
SWIDTH 551 0
DWIDTH 16 0
BBX 11 23 2 0
BITMAP
0180
0300
0600
0000
0000
0FC0
1FE0
3860
7020
E000
E000
C000
C000
C000
C000
C000
C000
E000
E000
7020
7860
3FE0
0FC0
ENDCHAR
STARTCHAR char263
ENCODING 263
SWIDTH 551 0
DWIDTH 16 0
BBX 11 20 2 0
BITMAP
00C0
0180
0380
0300
0600
0000
0F80
1FC0
3860
7020
6000
E000
E000
E000
E000
6000
7000
3820
1FE0
0FC0
ENDCHAR
STARTCHAR char264
ENCODING 264
SWIDTH 551 0
DWIDTH 16 0
BBX 11 23 2 0
BITMAP
0380
06C0
0C60
0000
0000
0FC0
1FE0
3860
7020
E000
E000
C000
C000
C000
C000
C000
C000
E000
E000
7020
7860
3FE0
0FC0
ENDCHAR
STARTCHAR char265
ENCODING 265
SWIDTH 551 0
DWIDTH 16 0
BBX 11 20 2 0
BITMAP
0700
0700
0D80
08C0
18C0
0000
0F80
1FC0
3860
7020
6000
E000
E000
E000
E000
6000
7000
3820
1FE0
0FC0
ENDCHAR
STARTCHAR char266
ENCODING 266
SWIDTH 551 0
DWIDTH 16 0
BBX 11 23 2 0
BITMAP
0700
0700
0700
0000
0000
0FC0
1FE0
3860
7020
E000
E000
C000
C000
C000
C000
C000
C000
E000
E000
7020
7860
3FE0
0FC0
ENDCHAR
STARTCHAR char267
ENCODING 267
SWIDTH 551 0
DWIDTH 16 0
BBX 11 19 2 0
BITMAP
0700
0700
0700
0000
0000
0F80
1FC0
3860
7020
6000
E000
E000
E000
E000
6000
7000
3820
1FE0
0FC0
ENDCHAR
STARTCHAR char268
ENCODING 268
SWIDTH 551 0
DWIDTH 16 0
BBX 11 23 2 0
BITMAP
18C0
0D80
0700
0000
0000
0FC0
1FE0
3860
7020
E000
E000
C000
C000
C000
C000
C000
C000
E000
E000
7020
7860
3FE0
0FC0
ENDCHAR
STARTCHAR char269
ENCODING 269
SWIDTH 551 0
DWIDTH 16 0
BBX 11 20 2 0
BITMAP
18C0
08C0
0D80
0700
0700
0000
0F80
1FC0
3860
7020
6000
E000
E000
E000
E000
6000
7000
3820
1FE0
0FC0
ENDCHAR
STARTCHAR char270
ENCODING 270
SWIDTH 551 0
DWIDTH 16 0
BBX 11 22 2 0
BITMAP
6300
3600
1C00
0000
FE00
FF80
C3C0
C0C0
C0E0
C060
C060
C060
C060
C060
C060
C060
C060
C0E0
C0C0
C3C0
FF80
FE00
ENDCHAR
STARTCHAR char271
ENCODING 271
SWIDTH 551 0
DWIDTH 16 0
BBX 14 19 2 0
BITMAP
00EC
00FC
00F8
00F8
00F8
1EE0
7FE0
E1E0
E0E0
C0E0
C0E0
C0E0
C0E0
C0E0
C0E0
E0E0
E1E0
7FE0
1EE0
ENDCHAR
STARTCHAR char272
ENCODING 272
SWIDTH 551 0
DWIDTH 16 0
BBX 13 18 0 0
BITMAP
3F80
3FE0
30F0
3030
3038
3018
3018
3018
FE18
FE18
3018
3018
3018
3038
3030
30F0
3FE0
3F80
ENDCHAR
STARTCHAR char273
ENCODING 273
SWIDTH 551 0
DWIDTH 16 0
BBX 13 19 2 0
BITMAP
00E0
00E0
07F8
07F8
00E0
1EE0
7FE0
E1E0
E0E0
C0E0
C0E0
C0E0
C0E0
C0E0
C0E0
E0E0
E1E0
7FE0
1EE0
ENDCHAR
STARTCHAR char274
ENCODING 274
SWIDTH 551 0
DWIDTH 16 0
BBX 11 22 2 0
BITMAP
3F80
3F80
0000
0000
FFE0
FFE0
E000
E000
E000
E000
E000
FFE0
FFE0
E000
E000
E000
E000
E000
E000
E000
FFE0
FFE0
ENDCHAR
STARTCHAR char275
ENCODING 275
SWIDTH 551 0
DWIDTH 16 0
BBX 12 19 2 0
BITMAP
3F80
3F80
0000
0000
0000
1F00
3FC0
70E0
E060
C060
C060
FFF0
FFF0
C000
C000
E000
7060
3FE0
1FC0
ENDCHAR
STARTCHAR char276
ENCODING 276
SWIDTH 551 0
DWIDTH 16 0
BBX 11 23 2 0
BITMAP
3180
3F80
1F00
0000
0000
FFE0
FFE0
E000
E000
E000
E000
E000
FFE0
FFE0
E000
E000
E000
E000
E000
E000
E000
FFE0
FFE0
ENDCHAR
STARTCHAR char277
ENCODING 277
SWIDTH 551 0
DWIDTH 16 0
BBX 12 20 2 0
BITMAP
2080
3180
3F80
1F00
0000
0000
1F00
3FC0
70E0
E060
C060
C060
FFF0
FFF0
C000
C000
E000
7060
3FE0
1FC0
ENDCHAR
STARTCHAR char278
ENCODING 278
SWIDTH 551 0
DWIDTH 16 0
BBX 11 23 2 0
BITMAP
0E00
0E00
0E00
0000
0000
FFE0
FFE0
E000
E000
E000
E000
E000
FFE0
FFE0
E000
E000
E000
E000
E000
E000
E000
FFE0
FFE0
ENDCHAR
STARTCHAR char279
ENCODING 279
SWIDTH 551 0
DWIDTH 16 0
BBX 12 19 2 0
BITMAP
0E00
0E00
0E00
0000
0000
1F00
3FC0
70E0
E060
C060
C060
FFF0
FFF0
C000
C000
E000
7060
3FE0
1FC0
ENDCHAR
STARTCHAR char280
ENCODING 280
SWIDTH 551 0
DWIDTH 16 0
BBX 12 23 2 -5
BITMAP
FFE0
FFE0
E000
E000
E000
E000
E000
FFE0
FFE0
E000
E000
E000
E000
E000
E000
E000
FFE0
FFE0
00C0
0180
0180
01F0
00F0
ENDCHAR
STARTCHAR char281
ENCODING 281
SWIDTH 551 0
DWIDTH 16 0
BBX 12 19 2 -5
BITMAP
1F00
3FC0
70E0
E060
C060
C060
FFF0
FFF0
C000
C000
E000
7060
3FE0
1FC0
0180
0300
0300
03E0
01E0
ENDCHAR
STARTCHAR char282
ENCODING 282
SWIDTH 551 0
DWIDTH 16 0
BBX 11 22 2 0
BITMAP
3180
1B00
0E00
0000
FFE0
FFE0
E000
E000
E000
E000
E000
FFE0
FFE0
E000
E000
E000
E000
E000
E000
E000
FFE0
FFE0
ENDCHAR
STARTCHAR char283
ENCODING 283
SWIDTH 551 0
DWIDTH 16 0
BBX 12 20 2 0
BITMAP
3180
1180
1B00
0E00
0E00
0000
1F00
3FC0
70E0
E060
C060
C060
FFF0
FFF0
C000
C000
E000
7060
3FE0
1FC0
ENDCHAR
STARTCHAR char284
ENCODING 284
SWIDTH 551 0
DWIDTH 16 0
BBX 12 23 1 0
BITMAP
0700
0D80
18C0
0000
0000
07E0
1FF0
3830
7010
7000
6000
E000
E000
E1F0
E1F0
E030
E030
6030
7030
7030
3830
1FF0
07C0
ENDCHAR
STARTCHAR char285
ENCODING 285
SWIDTH 551 0
DWIDTH 16 0
BBX 11 25 2 -5
BITMAP
0E00
0E00
1B00
1180
3180
0000
1EE0
7FE0
71E0
E0E0
C0E0
C0E0
C0E0
C0E0
C0E0
C0E0
E0E0
71E0
7FE0
1EE0
00E0
00C0
41C0
7F80
3F00
ENDCHAR
STARTCHAR char286
ENCODING 286
SWIDTH 551 0
DWIDTH 16 0
BBX 12 23 1 0
BITMAP
0C60
0FE0
07C0
0000
0000
07E0
1FF0
3830
7010
7000
6000
E000
E000
E1F0
E1F0
E030
E030
6030
7030
7030
3830
1FF0
07C0
ENDCHAR
STARTCHAR char287
ENCODING 287
SWIDTH 551 0
DWIDTH 16 0
BBX 11 25 2 -5
BITMAP
2080
3180
3F80
1F00
0000
0000
1EE0
7FE0
71E0
E0E0
C0E0
C0E0
C0E0
C0E0
C0E0
C0E0
E0E0
71E0
7FE0
1EE0
00E0
00C0
41C0
7F80
3F00
ENDCHAR
STARTCHAR char288
ENCODING 288
SWIDTH 551 0
DWIDTH 16 0
BBX 12 23 1 0
BITMAP
0380
0380
0380
0000
0000
07E0
1FF0
3830
7010
7000
6000
E000
E000
E1F0
E1F0
E030
E030
6030
7030
7030
3830
1FF0
07C0
ENDCHAR
STARTCHAR char289
ENCODING 289
SWIDTH 551 0
DWIDTH 16 0
BBX 11 24 2 -5
BITMAP
0E00
0E00
0E00
0000
0000
1EE0
7FE0
71E0
E0E0
C0E0
C0E0
C0E0
C0E0
C0E0
C0E0
E0E0
71E0
7FE0
1EE0
00E0
00C0
41C0
7F80
3F00
ENDCHAR
STARTCHAR char290
ENCODING 290
SWIDTH 551 0
DWIDTH 16 0
BBX 12 25 1 -7
BITMAP
07E0
1FF0
3830
7010
7000
6000
E000
E000
E1F0
E1F0
E030
E030
6030
7030
7030
3830
1FF0
07C0
0000
0000
0000
01C0
0180
0380
0300
ENDCHAR
STARTCHAR char291
ENCODING 291
SWIDTH 551 0
DWIDTH 16 0
BBX 11 25 2 -5
BITMAP
0300
0600
0600
0E00
0000
0000
1EE0
7FE0
71E0
E0E0
C0E0
C0E0
C0E0
C0E0
C0E0
C0E0
E0E0
71E0
7FE0
1EE0
00E0
00C0
41C0
7F80
3F00
ENDCHAR
STARTCHAR char292
ENCODING 292
SWIDTH 551 0
DWIDTH 16 0
BBX 11 23 2 0
BITMAP
0E00
1B00
3180
0000
0000
C060
C060
C060
C060
C060
C060
C060
FFE0
FFE0
C060
C060
C060
C060
C060
C060
C060
C060
C060
ENDCHAR
STARTCHAR char293
ENCODING 293
SWIDTH 551 0
DWIDTH 16 0
BBX 11 23 2 0
BITMAP
0E00
1B00
3180
0000
E000
E000
E000
E000
E000
E780
FFC0
F0C0
E0E0
E0E0
E060
E060
E060
E060
E060
E060
E060
E060
E060
ENDCHAR
STARTCHAR char294
ENCODING 294
SWIDTH 551 0
DWIDTH 16 0
BBX 15 18 0 0
BITMAP
3018
3018
FFFE
FFFE
3018
3018
3018
3FF8
3FF8
3018
3018
3018
3018
3018
3018
3018
3018
3018
ENDCHAR
STARTCHAR char295
ENCODING 295
SWIDTH 551 0
DWIDTH 16 0
BBX 12 19 1 0
BITMAP
7000
FF00
FF00
7000
7000
77C0
7FE0
7860
7070
7030
7030
7030
7030
7030
7030
7030
7030
7030
7030
ENDCHAR
STARTCHAR char296
ENCODING 296
SWIDTH 551 0
DWIDTH 16 0
BBX 11 24 2 0
BITMAP
3CC0
3F80
2780
0000
0000
0000
FFE0
FFE0
0E00
0E00
0E00
0E00
0E00
0E00
0E00
0E00
0E00
0E00
0E00
0E00
0E00
0E00
FFE0
FFE0
ENDCHAR
STARTCHAR char297
ENCODING 297
SWIDTH 551 0
DWIDTH 16 0
BBX 11 19 2 0
BITMAP
18C0
3C80
2780
6300
0000
7E00
7E00
0600
0600
0600
0600
0600
0600
0600
0600
0600
0600
FFE0
FFE0
ENDCHAR
STARTCHAR char298
ENCODING 298
SWIDTH 551 0
DWIDTH 16 0
BBX 11 22 2 0
BITMAP
3F80
3F80
0000
0000
FFE0
FFE0
0E00
0E00
0E00
0E00
0E00
0E00
0E00
0E00
0E00
0E00
0E00
0E00
0E00
0E00
FFE0
FFE0
ENDCHAR
STARTCHAR char299
ENCODING 299
SWIDTH 551 0
DWIDTH 16 0
BBX 11 19 2 0
BITMAP
3F80
3F80
0000
0000
0000
7E00
7E00
0600
0600
0600
0600
0600
0600
0600
0600
0600
0600
FFE0
FFE0
ENDCHAR
STARTCHAR char300
ENCODING 300
SWIDTH 551 0
DWIDTH 16 0
BBX 11 23 2 0
BITMAP
3180
3F80
1F00
0000
0000
FFE0
FFE0
0E00
0E00
0E00
0E00
0E00
0E00
0E00
0E00
0E00
0E00
0E00
0E00
0E00
0E00
FFE0
FFE0
ENDCHAR
STARTCHAR char301
ENCODING 301
SWIDTH 551 0
DWIDTH 16 0
BBX 11 20 2 0
BITMAP
2080
3180
3F80
1F00
0000
0000
7E00
7E00
0600
0600
0600
0600
0600
0600
0600
0600
0600
0600
FFE0
FFE0
ENDCHAR
STARTCHAR char302
ENCODING 302
SWIDTH 551 0
DWIDTH 16 0
BBX 11 23 2 -5
BITMAP
FFE0
FFE0
0E00
0E00
0E00
0E00
0E00
0E00
0E00
0E00
0E00
0E00
0E00
0E00
0E00
0E00
FFE0
FFE0
0600
0C00
0C00
0F80
0780
ENDCHAR
STARTCHAR char303
ENCODING 303
SWIDTH 551 0
DWIDTH 16 0
BBX 11 24 2 -5
BITMAP
0600
0600
0600
0000
0000
7E00
7E00
0600
0600
0600
0600
0600
0600
0600
0600
0600
0600
FFE0
FFE0
0600
0C00
0C00
0F80
0780
ENDCHAR
STARTCHAR char304
ENCODING 304
SWIDTH 551 0
DWIDTH 16 0
BBX 11 23 2 0
BITMAP
0E00
0E00
0E00
0000
0000
FFE0
FFE0
0E00
0E00
0E00
0E00
0E00
0E00
0E00
0E00
0E00
0E00
0E00
0E00
0E00
0E00
FFE0
FFE0
ENDCHAR
STARTCHAR char305
ENCODING 305
SWIDTH 551 0
DWIDTH 16 0
BBX 11 14 2 0
BITMAP
7E00
7E00
0600
0600
0600
0600
0600
0600
0600
0600
0600
0600
FFE0
FFE0
ENDCHAR
STARTCHAR char306
ENCODING 306
SWIDTH 551 0
DWIDTH 16 0
BBX 15 18 0 0
BITMAP
FE3E
FE3E
1806
1806
1806
1806
1806
1806
1806
1806
1806
1806
1806
1806
1806
18C6
FEFC
FE78
ENDCHAR
STARTCHAR char307
ENCODING 307
SWIDTH 551 0
DWIDTH 16 0
BBX 14 24 0 -5
BITMAP
080C
080C
080C
0000
0000
78FC
78FC
080C
080C
080C
080C
080C
080C
080C
080C
080C
080C
FF8C
FF8C
000C
000C
001C
01F8
01F0
ENDCHAR
STARTCHAR char308
ENCODING 308
SWIDTH 551 0
DWIDTH 16 0
BBX 11 23 1 0
BITMAP
0380
06C0
0C60
0000
0000
0FE0
0FE0
00E0
00E0
00E0
00E0
00E0
00E0
00E0
00E0
00E0
00E0
00E0
00E0
80C0
E1C0
FF80
3F00
ENDCHAR
STARTCHAR char309
ENCODING 309
SWIDTH 551 0
DWIDTH 16 0
BBX 9 25 2 -5
BITMAP
0E00
0E00
1B00
1180
3180
0000
7F00
7F00
0700
0700
0700
0700
0700
0700
0700
0700
0700
0700
0700
0700
0700
0600
0600
FE00
F800
ENDCHAR
STARTCHAR char310
ENCODING 310
SWIDTH 551 0
DWIDTH 16 0
BBX 13 25 2 -7
BITMAP
C070
C0E0
C1C0
C380
C300
C600
CC00
DC00
FC00
FE00
E700
C300
C380
C1C0
C0E0
C0E0
C070
C038
0000
0000
0000
0700
0600
0E00
0C00
ENDCHAR
STARTCHAR char311
ENCODING 311
SWIDTH 551 0
DWIDTH 16 0
BBX 11 26 3 -7
BITMAP
C000
C000
C000
C000
C000
C0C0
C180
C300
C600
CC00
DC00
FC00
EE00
C700
C300
C380
C1C0
C0E0
C060
0000
0000
0000
0700
0600
0E00
0C00
ENDCHAR
STARTCHAR char312
ENCODING 312
SWIDTH 551 0
DWIDTH 16 0
BBX 11 14 3 0
BITMAP
C0C0
C180
C300
C600
CC00
DC00
FC00
EE00
C700
C300
C380
C1C0
C0E0
C060
ENDCHAR
STARTCHAR char313
ENCODING 313
SWIDTH 551 0
DWIDTH 16 0
BBX 11 23 3 0
BITMAP
3000
6000
C000
0000
0000
C000
C000
C000
C000
C000
C000
C000
C000
C000
C000
C000
C000
C000
C000
C000
C000
FFE0
FFE0
ENDCHAR
STARTCHAR char314
ENCODING 314
SWIDTH 551 0
DWIDTH 16 0
BBX 11 23 2 0
BITMAP
0600
0C00
1800
0000
FC00
FC00
0C00
0C00
0C00
0C00
0C00
0C00
0C00
0C00
0C00
0C00
0C00
0C00
0C00
0C00
0E00
0FE0
03E0
ENDCHAR
STARTCHAR char315
ENCODING 315
SWIDTH 551 0
DWIDTH 16 0
BBX 11 25 3 -7
BITMAP
C000
C000
C000
C000
C000
C000
C000
C000
C000
C000
C000
C000
C000
C000
C000
C000
FFE0
FFE0
0000
0000
0000
0E00
0C00
1C00
1800
ENDCHAR
STARTCHAR char316
ENCODING 316
SWIDTH 551 0
DWIDTH 16 0
BBX 11 26 2 -7
BITMAP
FC00
FC00
0C00
0C00
0C00
0C00
0C00
0C00
0C00
0C00
0C00
0C00
0C00
0C00
0C00
0C00
0E00
0FE0
03E0
0000
0000
0000
0E00
0C00
1C00
1800
ENDCHAR
STARTCHAR char317
ENCODING 317
SWIDTH 551 0
DWIDTH 16 0
BBX 11 18 3 0
BITMAP
C300
C700
C600
C600
C600
C000
C000
C000
C000
C000
C000
C000
C000
C000
C000
C000
FFE0
FFE0
ENDCHAR
STARTCHAR char318
ENCODING 318
SWIDTH 551 0
DWIDTH 16 0
BBX 12 19 2 0
BITMAP
FC30
FC70
0C60
0C60
0C60
0C00
0C00
0C00
0C00
0C00
0C00
0C00
0C00
0C00
0C00
0C00
0E00
0FE0
03E0
ENDCHAR
STARTCHAR char319
ENCODING 319
SWIDTH 551 0
DWIDTH 16 0
BBX 11 18 3 0
BITMAP
C000
C000
C000
C000
C000
C1C0
C1C0
C1C0
C1C0
C000
C000
C000
C000
C000
C000
C000
FFE0
FFE0
ENDCHAR
STARTCHAR char320
ENCODING 320
SWIDTH 551 0
DWIDTH 16 0
BBX 13 19 2 0
BITMAP
FC00
FC00
0C00
0C00
0C00
0C00
0C38
0C38
0C38
0C38
0C00
0C00
0C00
0C00
0C00
0C00
0E00
0FE0
03E0
ENDCHAR
STARTCHAR char321
ENCODING 321
SWIDTH 551 0
DWIDTH 16 0
BBX 14 18 0 0
BITMAP
1800
1800
1800
1800
1800
1880
1B80
1F00
1E00
3800
7800
D800
1800
1800
1800
1800
1FFC
1FFC
ENDCHAR
STARTCHAR char322
ENCODING 322
SWIDTH 551 0
DWIDTH 16 0
BBX 12 19 1 0
BITMAP
7E00
7E00
0600
0600
0600
0660
06E0
0780
0700
1E00
3E00
E600
C600
0600
0600
0600
0700
07F0
01F0
ENDCHAR
STARTCHAR char323
ENCODING 323
SWIDTH 551 0
DWIDTH 16 0
BBX 11 23 2 0
BITMAP
0300
0600
0C00
0000
0000
E060
E060
F060
F060
D860
D860
DC60
CC60
CC60
C660
C660
C360
C360
C360
C1E0
C1E0
C0E0
C0E0
ENDCHAR
STARTCHAR char324
ENCODING 324
SWIDTH 551 0
DWIDTH 16 0
BBX 11 20 2 0
BITMAP
0180
0300
0700
0600
0C00
0000
E780
FFC0
F0C0
E0E0
E0E0
E060
E060
E060
E060
E060
E060
E060
E060
E060
ENDCHAR
STARTCHAR char325
ENCODING 325
SWIDTH 551 0
DWIDTH 16 0
BBX 11 25 2 -7
BITMAP
E060
E060
F060
F060
D860
D860
DC60
CC60
CC60
C660
C660
C360
C360
C360
C1E0
C1E0
C0E0
C0E0
0000
0000
0000
0700
0600
0E00
0C00
ENDCHAR
STARTCHAR char326
ENCODING 326
SWIDTH 551 0
DWIDTH 16 0
BBX 11 21 2 -7
BITMAP
E780
FFC0
F0C0
E0E0
E0E0
E060
E060
E060
E060
E060
E060
E060
E060
E060
0000
0000
0000
0700
0600
0E00
0C00
ENDCHAR
STARTCHAR char327
ENCODING 327
SWIDTH 551 0
DWIDTH 16 0
BBX 11 23 2 0
BITMAP
18C0
0D80
0700
0000
0000
E060
E060
F060
F060
D860
D860
DC60
CC60
CC60
C660
C660
C360
C360
C360
C1E0
C1E0
C0E0
C0E0
ENDCHAR
STARTCHAR char328
ENCODING 328
SWIDTH 551 0
DWIDTH 16 0
BBX 11 20 2 0
BITMAP
3180
1180
1B00
0E00
0E00
0000
E780
FFC0
F0C0
E0E0
E0E0
E060
E060
E060
E060
E060
E060
E060
E060
E060
ENDCHAR
STARTCHAR char329
ENCODING 329
SWIDTH 551 0
DWIDTH 16 0
BBX 14 19 1 0
BITMAP
7000
7000
7000
6000
E000
DCF0
DFF8
1E18
1C1C
1C1C
1C0C
1C0C
1C0C
1C0C
1C0C
1C0C
1C0C
1C0C
1C0C
ENDCHAR
STARTCHAR char330
ENCODING 330
SWIDTH 551 0
DWIDTH 16 0
BBX 11 23 2 -5
BITMAP
CF80
DFC0
F0E0
E0E0
E060
C060
C060
C060
C060
C060
C060
C060
C060
C060
C060
C060
C060
C060
0060
0060
00E0
07C0
0780
ENDCHAR
STARTCHAR char331
ENCODING 331
SWIDTH 551 0
DWIDTH 16 0
BBX 11 19 2 -5
BITMAP
E780
FFC0
F0C0
E0E0
E0E0
E060
E060
E060
E060
E060
E060
E060
E060
E060
0060
00E0
00C0
0FC0
0F80
ENDCHAR
STARTCHAR char332
ENCODING 332
SWIDTH 551 0
DWIDTH 16 0
BBX 13 22 1 0
BITMAP
1FC0
1FC0
0000
0000
0F80
1FC0
38E0
7070
6030
6030
6030
E038
E038
E038
E038
6030
6030
6030
7070
38E0
3FE0
0F80
ENDCHAR
STARTCHAR char333
ENCODING 333
SWIDTH 551 0
DWIDTH 16 0
BBX 11 19 2 0
BITMAP
3F80
3F80
0000
0000
0000
1F00
7FC0
71C0
E0E0
C060
C060
C060
C060
C060
C060
E0E0
71C0
7FC0
1F00
ENDCHAR
STARTCHAR char334
ENCODING 334
SWIDTH 551 0
DWIDTH 16 0
BBX 13 23 1 0
BITMAP
18C0
1FC0
0F80
0000
0000
0F80
1FC0
38E0
7070
6030
6030
6030
E038
E038
E038
E038
6030
6030
6030
7070
38E0
3FE0
0F80
ENDCHAR
STARTCHAR char335
ENCODING 335
SWIDTH 551 0
DWIDTH 16 0
BBX 11 20 2 0
BITMAP
2080
3180
3F80
1F00
0000
0000
1F00
7FC0
71C0
E0E0
C060
C060
C060
C060
C060
C060
E0E0
71C0
7FC0
1F00
ENDCHAR
STARTCHAR char336
ENCODING 336
SWIDTH 551 0
DWIDTH 16 0
BBX 13 23 1 0
BITMAP
0660
0CC0
0D80
0000
0000
0F80
1FC0
38E0
7070
6030
6030
6030
E038
E038
E038
E038
6030
6030
6030
7070
38E0
3FE0
0F80
ENDCHAR
STARTCHAR char337
ENCODING 337
SWIDTH 551 0
DWIDTH 16 0
BBX 11 20 2 0
BITMAP
0CC0
0CC0
1980
1980
3300
0000
1F00
7FC0
71C0
E0E0
C060
C060
C060
C060
C060
C060
E0E0
71C0
7FC0
1F00
ENDCHAR
STARTCHAR char338
ENCODING 338
SWIDTH 551 0
DWIDTH 16 0
BBX 14 18 1 0
BITMAP
1FFC
3FFC
7180
6180
E180
E180
C180
C1F8
C1F8
C180
C180
C180
E180
E180
6180
7180
3FFC
1FFC
ENDCHAR
STARTCHAR char339
ENCODING 339
SWIDTH 551 0
DWIDTH 16 0
BBX 15 14 0 0
BITMAP
3E78
7FFC
63CC
E386
C186
C186
C1FE
C1FE
C180
C180
E380
63C2
7FFE
3E7C
ENDCHAR
STARTCHAR char340
ENCODING 340
SWIDTH 551 0
DWIDTH 16 0
BBX 13 23 2 0
BITMAP
0600
0C00
1800
0000
0000
FF00
FF80
C1C0
C0E0
C0E0
C0E0
C0E0
C0E0
C1C0
FF80
FF00
C380
C1C0
C0E0
C060
C070
C030
C038
ENDCHAR
STARTCHAR char341
ENCODING 341
SWIDTH 551 0
DWIDTH 16 0
BBX 10 20 4 0
BITMAP
00C0
0180
0380
0300
0600
0000
E780
FFC0
F840
F000
E000
E000
E000
E000
E000
E000
E000
E000
E000
E000
ENDCHAR
STARTCHAR char342
ENCODING 342
SWIDTH 551 0
DWIDTH 16 0
BBX 13 25 2 -7
BITMAP
FF00
FF80
C1C0
C0E0
C0E0
C0E0
C0E0
C0E0
C1C0
FF80
FF00
C380
C1C0
C0E0
C060
C070
C030
C038
0000
0000
0000
0700
0600
0E00
0C00
ENDCHAR
STARTCHAR char343
ENCODING 343
SWIDTH 551 0
DWIDTH 16 0
BBX 10 21 4 -7
BITMAP
E780
FFC0
F840
F000
E000
E000
E000
E000
E000
E000
E000
E000
E000
E000
0000
0000
0000
7000
6000
E000
C000
ENDCHAR
STARTCHAR char344
ENCODING 344
SWIDTH 551 0
DWIDTH 16 0
BBX 13 22 2 0
BITMAP
6300
3600
1C00
0000
FF00
FF80
C1C0
C0E0
C0E0
C0E0
C0E0
C0E0
C1C0
FF80
FF00
C380
C1C0
C0E0
C060
C070
C030
C038
ENDCHAR
STARTCHAR char345
ENCODING 345
SWIDTH 551 0
DWIDTH 16 0
BBX 10 20 4 0
BITMAP
6300
2300
3600
1C00
1C00
0000
E780
FFC0
F840
F000
E000
E000
E000
E000
E000
E000
E000
E000
E000
E000
ENDCHAR
STARTCHAR char346
ENCODING 346
SWIDTH 551 0
DWIDTH 16 0
BBX 11 23 2 0
BITMAP
0300
0600
0C00
0000
0000
1F80
7FC0
F0C0
C040
C000
C000
C000
F000
7F00
1FC0
01E0
0060
0060
0060
8060
E0E0
FFC0
7F00
ENDCHAR
STARTCHAR char347
ENCODING 347
SWIDTH 551 0
DWIDTH 16 0
BBX 10 20 3 0
BITMAP
0300
0600
0E00
0C00
1800
0000
3F00
7F80
E080
C000
C000
E000
7E00
3F80
0380
01C0
01C0
8380
FF80
7E00
ENDCHAR
STARTCHAR char348
ENCODING 348
SWIDTH 551 0
DWIDTH 16 0
BBX 11 23 2 0
BITMAP
0E00
1B00
3180
0000
0000
1F80
7FC0
F0C0
C040
C000
C000
C000
F000
7F00
1FC0
01E0
0060
0060
0060
8060
E0E0
FFC0
7F00
ENDCHAR
STARTCHAR char349
ENCODING 349
SWIDTH 551 0
DWIDTH 16 0
BBX 10 20 3 0
BITMAP
1C00
1C00
3600
2300
6300
0000
3F00
7F80
E080
C000
C000
E000
7E00
3F80
0380
01C0
01C0
8380
FF80
7E00
ENDCHAR
STARTCHAR char350
ENCODING 350
SWIDTH 551 0
DWIDTH 16 0
BBX 11 23 2 -5
BITMAP
1F80
7FC0
F0C0
C040
C000
C000
C000
F000
7F00
1FC0
01E0
0060
0060
0060
8060
E0E0
FFC0
7F00
0600
0300
0300
1F00
1E00
ENDCHAR
STARTCHAR char351
ENCODING 351
SWIDTH 551 0
DWIDTH 16 0
BBX 10 19 3 -5
BITMAP
3F00
7F80
E080
C000
C000
E000
7E00
3F80
0380
01C0
01C0
8380
FF80
7E00
0C00
0600
0600
3E00
3C00
ENDCHAR
STARTCHAR char352
ENCODING 352
SWIDTH 551 0
DWIDTH 16 0
BBX 11 23 2 0
BITMAP
3180
1B00
0E00
0000
0000
1F80
7FC0
F0C0
C040
C000
C000
C000
F000
7F00
1FC0
01E0
0060
0060
0060
8060
E0E0
FFC0
7F00
ENDCHAR
STARTCHAR char353
ENCODING 353
SWIDTH 551 0
DWIDTH 16 0
BBX 10 20 3 0
BITMAP
6300
2300
3600
1C00
1C00
0000
3F00
7F80
E080
C000
C000
E000
7E00
3F80
0380
01C0
01C0
8380
FF80
7E00
ENDCHAR
STARTCHAR char354
ENCODING 354
SWIDTH 551 0
DWIDTH 16 0
BBX 13 23 1 -5
BITMAP
FFF8
FFF8
0700
0700
0700
0700
0700
0700
0700
0700
0700
0700
0700
0700
0700
0700
0700
0700
0300
0180
0180
0F80
0F00
ENDCHAR
STARTCHAR char355
ENCODING 355
SWIDTH 551 0
DWIDTH 16 0
BBX 11 23 2 -5
BITMAP
1C00
1C00
1C00
1C00
FFE0
FFE0
1C00
1C00
1C00
1C00
1C00
1C00
1C00
1C00
1C00
1C00
0FE0
07E0
0300
0180
0180
0F80
0F00
ENDCHAR
STARTCHAR char356
ENCODING 356
SWIDTH 551 0
DWIDTH 16 0
BBX 13 23 1 0
BITMAP
18C0
0D80
0700
0000
0000
FFF8
FFF8
0700
0700
0700
0700
0700
0700
0700
0700
0700
0700
0700
0700
0700
0700
0700
0700
ENDCHAR
STARTCHAR char357
ENCODING 357
SWIDTH 551 0
DWIDTH 16 0
BBX 11 20 2 0
BITMAP
00C0
01C0
1D80
1D80
1D80
1C00
FFE0
FFE0
1C00
1C00
1C00
1C00
1C00
1C00
1C00
1C00
1C00
1C00
0FE0
07E0
ENDCHAR
STARTCHAR char358
ENCODING 358
SWIDTH 551 0
DWIDTH 16 0
BBX 13 18 1 0
BITMAP
FFF8
FFF8
0700
0700
0700
0700
0700
0700
0700
3FE0
3FE0
0700
0700
0700
0700
0700
0700
0700
ENDCHAR
STARTCHAR char359
ENCODING 359
SWIDTH 551 0
DWIDTH 16 0
BBX 11 18 2 0
BITMAP
1C00
1C00
1C00
1C00
FFE0
FFE0
1C00
1C00
FF00
FF00
1C00
1C00
1C00
1C00
1C00
0C00
0FE0
07E0
ENDCHAR
STARTCHAR char360
ENCODING 360
SWIDTH 551 0
DWIDTH 16 0
BBX 11 24 2 0
BITMAP
3CC0
3F80
2780
0000
0000
0000
C060
C060
C060
C060
C060
C060
C060
C060
C060
C060
C060
C060
C060
C060
E0E0
E0E0
7FC0
1F00
ENDCHAR
STARTCHAR char361
ENCODING 361
SWIDTH 551 0
DWIDTH 16 0
BBX 11 19 2 0
BITMAP
18C0
3C80
2780
6300
0000
E060
E060
E060
E060
E060
E060
E060
E060
E060
E0E0
60E0
71E0
7F60
3E60
ENDCHAR
STARTCHAR char362
ENCODING 362
SWIDTH 551 0
DWIDTH 16 0
BBX 11 22 2 0
BITMAP
3F80
3F80
0000
0000
C060
C060
C060
C060
C060
C060
C060
C060
C060
C060
C060
C060
C060
C060
E0E0
E0E0
7FC0
1F00
ENDCHAR
STARTCHAR char363
ENCODING 363
SWIDTH 551 0
DWIDTH 16 0
BBX 11 19 2 0
BITMAP
3F80
3F80
0000
0000
0000
E060
E060
E060
E060
E060
E060
E060
E060
E060
E0E0
60E0
71E0
7F60
3E60
ENDCHAR
STARTCHAR char364
ENCODING 364
SWIDTH 551 0
DWIDTH 16 0
BBX 11 23 2 0
BITMAP
3180
3F80
1F00
0000
0000
C060
C060
C060
C060
C060
C060
C060
C060
C060
C060
C060
C060
C060
C060
E0E0
E0E0
7FC0
1F00
ENDCHAR
STARTCHAR char365
ENCODING 365
SWIDTH 551 0
DWIDTH 16 0
BBX 11 20 2 0
BITMAP
2080
3180
3F80
1F00
0000
0000
E060
E060
E060
E060
E060
E060
E060
E060
E060
E0E0
60E0
71E0
7F60
3E60
ENDCHAR
STARTCHAR char366
ENCODING 366
SWIDTH 551 0
DWIDTH 16 0
BBX 11 23 2 0
BITMAP
0E00
1F00
3180
3180
3180
DF60
CE60
C060
C060
C060
C060
C060
C060
C060
C060
C060
C060
C060
C060
E0E0
E0E0
7FC0
1F00
ENDCHAR
STARTCHAR char367
ENCODING 367
SWIDTH 551 0
DWIDTH 16 0
BBX 11 21 2 0
BITMAP
0E00
1F00
3180
3180
3180
1F00
0E00
E060
E060
E060
E060
E060
E060
E060
E060
E060
E0E0
60E0
71E0
7F60
3E60
ENDCHAR
STARTCHAR char368
ENCODING 368
SWIDTH 551 0
DWIDTH 16 0
BBX 11 23 2 0
BITMAP
0CC0
1980
1B00
0000
0000
C060
C060
C060
C060
C060
C060
C060
C060
C060
C060
C060
C060
C060
C060
E0E0
E0E0
7FC0
1F00
ENDCHAR
STARTCHAR char369
ENCODING 369
SWIDTH 551 0
DWIDTH 16 0
BBX 11 20 2 0
BITMAP
0CC0
0CC0
1980
1980
3300
0000
E060
E060
E060
E060
E060
E060
E060
E060
E060
E0E0
60E0
71E0
7F60
3E60
ENDCHAR
STARTCHAR char370
ENCODING 370
SWIDTH 551 0
DWIDTH 16 0
BBX 11 23 2 -5
BITMAP
C060
C060
C060
C060
C060
C060
C060
C060
C060
C060
C060
C060
C060
C060
E0E0
E0E0
7FC0
1F00
0C00
1800
1800
1F00
0F00
ENDCHAR
STARTCHAR char371
ENCODING 371
SWIDTH 551 0
DWIDTH 16 0
BBX 13 19 2 -5
BITMAP
E060
E060
E060
E060
E060
E060
E060
E060
E060
E0E0
60E0
71E0
7F60
3E60
0060
00C0
00C0
00F8
0078
ENDCHAR
STARTCHAR char372
ENCODING 372
SWIDTH 551 0
DWIDTH 16 0
BBX 15 23 0 0
BITMAP
0380
06C0
0C60
0000
0000
C006
E00E
E00E
600E
600C
638C
638C
628C
66CC
76DC
36D8
36D8
3458
3C78
3C78
3C78
3838
1830
ENDCHAR
STARTCHAR char373
ENCODING 373
SWIDTH 551 0
DWIDTH 16 0
BBX 15 20 0 0
BITMAP
0380
0380
06C0
0460
0C60
0000
C006
E006
600C
600C
638C
638C
729C
3298
36D8
36D8
3458
1C70
1C70
1C30
ENDCHAR
STARTCHAR char374
ENCODING 374
SWIDTH 551 0
DWIDTH 16 0
BBX 13 23 1 0
BITMAP
0700
0D80
18C0
0000
0000
C018
E038
6030
3070
38E0
18C0
1DC0
0D80
0F80
0700
0700
0700
0700
0700
0700
0700
0700
0700
ENDCHAR
STARTCHAR char375
ENCODING 375
SWIDTH 551 0
DWIDTH 16 0
BBX 13 25 1 -5
BITMAP
0700
0700
0D80
08C0
18C0
0000
E038
6038
7030
3070
3060
3860
18E0
18C0
0CC0
0D80
0F80
0780
0700
0300
0700
0600
0E00
7C00
7800
ENDCHAR
STARTCHAR char376
ENCODING 376
SWIDTH 551 0
DWIDTH 16 0
BBX 13 24 1 0
BITMAP
18C0
18C0
18C0
0000
0000
0000
C018
E038
6030
3070
38E0
18C0
1DC0
0D80
0F80
0700
0700
0700
0700
0700
0700
0700
0700
0700
ENDCHAR
STARTCHAR char377
ENCODING 377
SWIDTH 551 0
DWIDTH 16 0
BBX 12 23 2 0
BITMAP
0300
0600
0C00
0000
0000
FFF0
FFF0
0070
00E0
00C0
01C0
0380
0300
0700
0E00
0C00
1C00
3800
3000
7000
E000
FFF0
FFF0
ENDCHAR
STARTCHAR char378
ENCODING 378
SWIDTH 551 0
DWIDTH 16 0
BBX 11 20 2 0
BITMAP
00C0
0180
0380
0300
0600
0000
7FE0
7FE0
00C0
01C0
0380
0300
0600
0C00
1C00
3800
3000
6000
FFE0
FFE0
ENDCHAR
STARTCHAR char379
ENCODING 379
SWIDTH 551 0
DWIDTH 16 0
BBX 12 23 2 0
BITMAP
0700
0700
0700
0000
0000
FFF0
FFF0
0070
00E0
00C0
01C0
0380
0300
0700
0E00
0C00
1C00
3800
3000
7000
E000
FFF0
FFF0
ENDCHAR
STARTCHAR char380
ENCODING 380
SWIDTH 551 0
DWIDTH 16 0
BBX 11 19 2 0
BITMAP
0E00
0E00
0E00
0000
0000
7FE0
7FE0
00C0
01C0
0380
0300
0600
0C00
1C00
3800
3000
6000
FFE0
FFE0
ENDCHAR
STARTCHAR char381
ENCODING 381
SWIDTH 551 0
DWIDTH 16 0
BBX 12 23 2 0
BITMAP
3180
1B00
0E00
0000
0000
FFF0
FFF0
0070
00E0
00C0
01C0
0380
0300
0700
0E00
0C00
1C00
3800
3000
7000
E000
FFF0
FFF0
ENDCHAR
STARTCHAR char382
ENCODING 382
SWIDTH 551 0
DWIDTH 16 0
BBX 11 20 2 0
BITMAP
3180
1180
1B00
0E00
0E00
0000
7FE0
7FE0
00C0
01C0
0380
0300
0600
0C00
1C00
3800
3000
6000
FFE0
FFE0
ENDCHAR
STARTCHAR char383
ENCODING 383
SWIDTH 551 0
DWIDTH 16 0
BBX 11 19 2 0
BITMAP
03E0
07E0
0E00
0C00
0C00
FC00
FC00
0C00
0C00
0C00
0C00
0C00
0C00
0C00
0C00
0C00
0C00
0C00
0C00
ENDCHAR
STARTCHAR char384
ENCODING 384
SWIDTH 551 0
DWIDTH 16 0
BBX 13 19 1 0
BITMAP
7000
7F00
FF00
F000
7000
77C0
7FE0
7870
7070
7030
7030
7038
7038
7038
7030
7030
7870
7FE0
77C0
ENDCHAR
STARTCHAR char385
ENCODING 385
SWIDTH 551 0
DWIDTH 16 0
BBX 14 18 0 0
BITMAP
3FE0
7FF8
EE38
CE1C
CE1C
0E1C
0E38
0FF0
0FF0
0E38
0E0C
0E0C
0E0C
0E0C
0E0C
0E1C
0FF8
0FE0
ENDCHAR
STARTCHAR char386
ENCODING 386
SWIDTH 551 0
DWIDTH 16 0
BBX 12 18 2 0
BITMAP
FFE0
FFE0
E000
E000
E000
E000
E000
FF00
FFC0
E0E0
E070
E070
E070
E070
E070
E0E0
FFC0
FF80
ENDCHAR
STARTCHAR char387
ENCODING 387
SWIDTH 551 0
DWIDTH 16 0
BBX 12 19 2 0
BITMAP
FFC0
FFC0
E000
E000
E000
EF80
FFC0
F0E0
E0E0
E060
E060
E070
E070
E070
E060
E060
F0E0
FFC0
EF80
ENDCHAR
STARTCHAR char388
ENCODING 388
SWIDTH 551 0
DWIDTH 16 0
BBX 13 18 1 0
BITMAP
1000
3000
7000
F000
F000
7000
3000
3F80
3FF0
3078
3038
3018
3018
3018
3018
3038
3FF0
3FC0
ENDCHAR
STARTCHAR char389
ENCODING 389
SWIDTH 551 0
DWIDTH 16 0
BBX 13 19 1 0
BITMAP
1000
1000
3000
7000
F000
F3C0
77F0
3C70
3838
3818
3018
3018
3018
3018
3818
3838
3830
3FF0
37E0
ENDCHAR
STARTCHAR char390
ENCODING 390
SWIDTH 551 0
DWIDTH 16 0
BBX 11 18 2 0
BITMAP
7E00
FF00
C380
81C0
00C0
00E0
00E0
00E0
00E0
00E0
00E0
00E0
00E0
00C0
81C0
C380
FF00
7E00
ENDCHAR
STARTCHAR char391
ENCODING 391
SWIDTH 551 0
DWIDTH 16 0
BBX 13 20 1 0
BITMAP
0018
0038
07F0
1FE0
3CE0
7000
6000
E000
E000
C000
C000
C000
C000
C000
E000
E000
7000
7020
3FE0
0FE0
ENDCHAR
STARTCHAR char392
ENCODING 392
SWIDTH 551 0
DWIDTH 16 0
BBX 13 17 1 0
BITMAP
0038
0078
0060
0FE0
3FE0
7860
7000
E000
E000
E000
E000
E000
E000
6000
7020
3FE0
1FC0
ENDCHAR
STARTCHAR char393
ENCODING 393
SWIDTH 551 0
DWIDTH 16 0
BBX 13 18 0 0
BITMAP
3F80
3FE0
30F0
3030
3038
3018
3018
3018
FE18
FE18
3018
3018
3018
3038
3030
30F0
3FE0
3F80
ENDCHAR
STARTCHAR char394
ENCODING 394
SWIDTH 551 0
DWIDTH 16 0
BBX 15 18 0 0
BITMAP
3FE0
7FF0
CC38
CC1C
CC0C
0C0E
0C0E
0C0E
0C0E
0C0E
0C0E
0C0E
0C0E
0C0C
0C1C
0C38
0FF0
0FC0
ENDCHAR
STARTCHAR char395
ENCODING 395
SWIDTH 551 0
DWIDTH 16 0
BBX 11 18 2 0
BITMAP
FFE0
FFE0
0060
0060
0060
0060
0060
0FE0
7FE0
F060
E060
C060
C060
C060
C060
E060
7FE0
1FE0
ENDCHAR
STARTCHAR char396
ENCODING 396
SWIDTH 551 0
DWIDTH 16 0
BBX 11 19 2 0
BITMAP
3FE0
3FE0
0060
0060
0060
1E60
3FE0
71E0
E0E0
E060
C060
C060
C060
C060
C060
E0E0
60E0
7FE0
3F60
ENDCHAR
STARTCHAR char397
ENCODING 397
SWIDTH 551 0
DWIDTH 16 0
BBX 11 19 2 -5
BITMAP
1F00
7FC0
71C0
E0E0
C060
C060
C060
C060
C060
C060
E0E0
60E0
7FC0
3F80
01C0
00C0
00C0
7FC0
7F80
ENDCHAR
STARTCHAR char398
ENCODING 398
SWIDTH 551 0
DWIDTH 16 0
BBX 11 18 2 0
BITMAP
7FE0
7FE0
0060
0060
0060
0060
0060
7FE0
7FE0
0060
0060
0060
0060
0060
0060
0060
FFE0
FFE0
ENDCHAR
STARTCHAR char399
ENCODING 399
SWIDTH 551 0
DWIDTH 16 0
BBX 13 18 1 0
BITMAP
0F80
3FC0
30E0
2070
0030
0030
0030
0038
FFF8
FFF8
E038
6030
6030
6070
7070
38E0
1FE0
0F80
ENDCHAR
STARTCHAR char400
ENCODING 400
SWIDTH 551 0
DWIDTH 16 0
BBX 11 18 2 0
BITMAP
1F80
7FE0
70E0
E020
E000
E000
7000
3F00
3F00
7000
E000
C000
C000
C000
E020
F060
7FE0
1FC0
ENDCHAR
STARTCHAR char401
ENCODING 401
SWIDTH 551 0
DWIDTH 16 0
BBX 13 23 1 -5
BITMAP
0FF8
0FF8
0C00
0C00
0C00
0C00
0C00
0FF8
0FF8
0C00
0C00
0C00
0C00
0C00
0C00
0C00
0C00
0C00
0C00
0C00
1C00
F800
F000
ENDCHAR
STARTCHAR char402
ENCODING 402
SWIDTH 551 0
DWIDTH 16 0
BBX 11 24 2 -5
BITMAP
03E0
07E0
0E00
0C00
0C00
FFE0
FFE0
0C00
0C00
0C00
0C00
0C00
0C00
0C00
0C00
0C00
0C00
0C00
0C00
0C00
0C00
0C00
7C00
7800
ENDCHAR
STARTCHAR char403
ENCODING 403
SWIDTH 551 0
DWIDTH 16 0
BBX 13 20 1 0
BITMAP
0018
0238
1FF0
3FE0
7020
6000
E000
E000
C000
C000
C000
C1F0
C1F0
C070
E070
E070
6070
7070
3FF0
1FC0
ENDCHAR
STARTCHAR char404
ENCODING 404
SWIDTH 551 0
DWIDTH 16 0
BBX 15 22 0 -5
BITMAP
E00E
701C
3018
3838
1C70
0C60
0EE0
07C0
0380
0380
07C0
06C0
0CE0
0C60
1C70
1830
1838
1838
3838
3838
1FF8
0FF0
ENDCHAR
STARTCHAR char405
ENCODING 405
SWIDTH 551 0
DWIDTH 16 0
BBX 13 19 1 0
BITMAP
C000
C000
C000
C000
C000
DC00
FE00
E700
C318
C318
C318
C318
C318
C318
C318
C318
C3B8
C1F0
C0E0
ENDCHAR
STARTCHAR char406
ENCODING 406
SWIDTH 551 0
DWIDTH 16 0
BBX 11 18 2 0
BITMAP
FFE0
FFE0
0E00
0E00
0E00
0E00
0E00
0E00
0E00
0E00
0E00
0E00
0E00
0E00
0E00
0700
07E0
03E0
ENDCHAR
STARTCHAR char407
ENCODING 407
SWIDTH 551 0
DWIDTH 16 0
BBX 11 18 2 0
BITMAP
FFE0
FFE0
0E00
0E00
0E00
0E00
0E00
0E00
0E00
7FC0
7FC0
0E00
0E00
0E00
0E00
0E00
FFE0
FFE0
ENDCHAR
STARTCHAR char408
ENCODING 408
SWIDTH 551 0
DWIDTH 16 0
BBX 14 18 1 0
BITMAP
E000
E020
E0F8
E1FC
E380
E700
EE00
FE00
FE00
F700
E380
E380
E1C0
E0E0
E0E0
E070
E038
E038
ENDCHAR
STARTCHAR char409
ENCODING 409
SWIDTH 551 0
DWIDTH 16 0
BBX 11 19 3 0
BITMAP
3E00
7E00
E000
C000
C000
C0E0
C1C0
C380
C700
CE00
D800
FC00
EE00
C700
C300
C380
C1C0
C0E0
C060
ENDCHAR
STARTCHAR char410
ENCODING 410
SWIDTH 551 0
DWIDTH 16 0
BBX 11 19 2 0
BITMAP
FC00
FC00
0C00
0C00
0C00
0C00
0C00
0C00
0C00
0C00
7F80
7F80
0C00
0C00
0C00
0C00
0E00
0FE0
03E0
ENDCHAR
STARTCHAR char411
ENCODING 411
SWIDTH 551 0
DWIDTH 16 0
BBX 13 18 1 0
BITMAP
3820
18E0
1DC0
0F80
0E00
1E00
7700
E700
8700
0F80
0D80
1CC0
18C0
38E0
3060
7070
6030
E038
ENDCHAR
STARTCHAR char412
ENCODING 412
SWIDTH 551 0
DWIDTH 16 0
BBX 13 18 1 0
BITMAP
C318
C318
C318
C318
C318
C318
C318
C318
C318
C318
C318
C318
C318
C318
C718
6718
7FF8
7BD8
ENDCHAR
STARTCHAR char413
ENCODING 413
SWIDTH 551 0
DWIDTH 16 0
BBX 13 23 0 -5
BITMAP
3818
3C18
3C18
3618
3618
3618
3318
3318
3318
3198
3198
3098
30D8
30D8
3078
3078
3078
3038
3000
3000
3000
F000
E000
ENDCHAR
STARTCHAR char414
ENCODING 414
SWIDTH 551 0
DWIDTH 16 0
BBX 11 19 2 -5
BITMAP
E780
FFC0
F0C0
E0E0
E060
E060
E060
E060
E060
E060
E060
E060
E060
E060
0060
0060
0060
0060
0060
ENDCHAR
STARTCHAR char415
ENCODING 415
SWIDTH 551 0
DWIDTH 16 0
BBX 13 19 1 0
BITMAP
0200
1FC0
3DE0
3060
7070
6030
6030
6030
E038
FFF8
FFF8
E038
6030
6030
6030
7070
3060
3FE0
1FC0
ENDCHAR
STARTCHAR char416
ENCODING 416
SWIDTH 551 0
DWIDTH 16 0
BBX 15 19 0 0
BITMAP
0006
0F86
1FE6
38FE
707C
6030
6030
6030
E038
E038
E038
E038
6030
6030
6030
7070
38E0
3FE0
0F80
ENDCHAR
STARTCHAR char417
ENCODING 417
SWIDTH 551 0
DWIDTH 16 0
BBX 14 14 1 0
BITMAP
1F0C
7FCC
71CC
E0FC
C078
C060
C060
C060
C060
C060
E0E0
71C0
7FC0
1F00
ENDCHAR
STARTCHAR char418
ENCODING 418
SWIDTH 551 0
DWIDTH 16 0
BBX 14 18 1 1
BITMAP
3F3C
7FFC
61FC
C1FC
C1DC
C19C
C19C
C19C
C19C
C19C
C19C
C19C
C19C
C19C
E19C
619C
7F9C
3F1C
ENDCHAR
STARTCHAR char419
ENCODING 419
SWIDTH 551 0
DWIDTH 16 0
BBX 14 19 1 -5
BITMAP
1F00
3FBC
71FC
60FC
C0FC
C0DC
C09C
C09C
C09C
C09C
E09C
619C
7F9C
3F1C
001C
001C
001C
001C
001C
ENDCHAR
STARTCHAR char420
ENCODING 420
SWIDTH 551 0
DWIDTH 16 0
BBX 13 18 1 0
BITMAP
7FE0
FFF0
CC38
CC38
CC18
0C18
0C18
0C38
0CF8
0FF0
0F80
0C00
0C00
0C00
0C00
0C00
0C00
0C00
ENDCHAR
STARTCHAR char421
ENCODING 421
SWIDTH 551 0
DWIDTH 16 0
BBX 12 22 2 -5
BITMAP
3E00
7000
6000
EF00
FFC0
F0C0
E0E0
E060
E060
E070
E070
E060
E060
E060
F0E0
FFC0
EF80
E000
E000
E000
E000
E000
ENDCHAR
STARTCHAR char422
ENCODING 422
SWIDTH 551 0
DWIDTH 16 0
BBX 13 21 2 -3
BITMAP
C000
C000
C000
FF00
FFC0
C1C0
C0E0
C0E0
C0E0
C0E0
C0E0
C7C0
FF00
FF80
C1C0
C0C0
C0E0
C060
0070
0030
0038
ENDCHAR
STARTCHAR char423
ENCODING 423
SWIDTH 551 0
DWIDTH 16 0
BBX 11 19 2 0
BITMAP
0400
7F80
7BC0
00E0
0060
0060
0060
00E0
07E0
3FC0
7E00
F000
C000
C000
C000
C000
E020
7FE0
3FC0
ENDCHAR
STARTCHAR char424
ENCODING 424
SWIDTH 551 0
DWIDTH 16 0
BBX 10 14 3 0
BITMAP
7E00
FF80
8180
0180
01C0
0380
3F80
7E00
E000
C000
C000
C040
FFC0
7FC0
ENDCHAR
STARTCHAR char425
ENCODING 425
SWIDTH 551 0
DWIDTH 16 0
BBX 13 18 1 0
BITMAP
FFF8
FFF8
6000
3000
3800
1C00
0E00
0600
0300
0300
0600
0E00
1C00
3800
3000
6000
FFF8
FFF8
ENDCHAR
STARTCHAR char426
ENCODING 426
SWIDTH 551 0
DWIDTH 16 0
BBX 13 24 1 -5
BITMAP
3C00
7F00
C300
7FE0
7FE0
0300
0300
0300
0300
0300
0300
0300
0300
0300
0300
0300
0300
0300
0300
0300
0300
0380
01F8
00F8
ENDCHAR
STARTCHAR char427
ENCODING 427
SWIDTH 551 0
DWIDTH 16 0
BBX 11 23 2 -5
BITMAP
1C00
1C00
1C00
1C00
FFE0
FFE0
1C00
1C00
1C00
1C00
1C00
1C00
1C00
1C00
1C00
1C00
0FE0
07E0
00E0
00E0
00C0
0FC0
0F80
ENDCHAR
STARTCHAR char428
ENCODING 428
SWIDTH 551 0
DWIDTH 16 0
BBX 13 18 1 0
BITMAP
7FF8
FFF8
C700
C700
8700
0700
0700
0700
0700
0700
0700
0700
0700
0700
0700
0700
0700
0700
ENDCHAR
STARTCHAR char429
ENCODING 429
SWIDTH 551 0
DWIDTH 16 0
BBX 11 19 2 0
BITMAP
07C0
0FC0
0C00
1C00
1C00
FFE0
FFE0
1C00
1C00
1C00
1C00
1C00
1C00
1C00
1C00
1C00
1C00
0FE0
07E0
ENDCHAR
STARTCHAR char430
ENCODING 430
SWIDTH 551 0
DWIDTH 16 0
BBX 13 23 1 -5
BITMAP
FFF8
FFF8
0700
0700
0700
0700
0700
0700
0700
0700
0700
0700
0700
0700
0700
0700
0700
0700
0700
0700
0300
03F0
01F0
ENDCHAR
STARTCHAR char431
ENCODING 431
SWIDTH 551 0
DWIDTH 16 0
BBX 15 19 0 0
BITMAP
0006
C066
C066
C07E
C06C
C060
C060
C060
C060
C060
C060
C060
C060
C060
C060
E0E0
E0E0
7FC0
1F00
ENDCHAR
STARTCHAR char432
ENCODING 432
SWIDTH 551 0
DWIDTH 16 0
BBX 15 14 0 0
BITMAP
E066
E066
E066
E07E
E06C
E060
E060
E060
E060
E0E0
60E0
71E0
7F60
3E60
ENDCHAR
STARTCHAR char433
ENCODING 433
SWIDTH 551 0
DWIDTH 16 0
BBX 13 18 1 0
BITMAP
FDF8
FDF8
18C0
3060
7070
6030
E038
E038
E018
C018
C018
E038
E038
6030
7070
38E0
1FE0
0F80
ENDCHAR
STARTCHAR char434
ENCODING 434
SWIDTH 551 0
DWIDTH 16 0
BBX 11 18 2 0
BITMAP
C000
C000
C300
C180
C1C0
C0C0
C0E0
C0E0
C060
C060
C060
C0E0
C0E0
C0C0
E1C0
E380
7F80
3E00
ENDCHAR
STARTCHAR char435
ENCODING 435
SWIDTH 551 0
DWIDTH 16 0
BBX 14 18 1 0
BITMAP
C03C
C078
60E0
60C0
3180
3180
1B00
1B00
0E00
0E00
0E00
0E00
0E00
0E00
0E00
0E00
0E00
0E00
ENDCHAR
STARTCHAR char436
ENCODING 436
SWIDTH 551 0
DWIDTH 16 0
BBX 15 19 0 -5
BITMAP
E00E
601E
7038
3030
3030
3870
1860
1CE0
0CC0
0CC0
0FC0
0780
0780
0300
0300
0700
0600
3E00
3C00
ENDCHAR
STARTCHAR char437
ENCODING 437
SWIDTH 551 0
DWIDTH 16 0
BBX 12 18 2 0
BITMAP
FFF0
FFF0
0060
00E0
01C0
0180
0380
0700
0600
7FC0
7FC0
1800
3800
3000
6000
E000
FFF0
FFF0
ENDCHAR
STARTCHAR char438
ENCODING 438
SWIDTH 551 0
DWIDTH 16 0
BBX 11 14 2 0
BITMAP
7FE0
7FE0
00E0
01C0
0380
0300
FFE0
FFE0
1C00
3800
3000
6000
FFE0
FFE0
ENDCHAR
STARTCHAR char439
ENCODING 439
SWIDTH 551 0
DWIDTH 16 0
BBX 15 18 0 0
BITMAP
7FF8
7FF8
0038
0070
00E0
01C0
0380
03C0
03F0
003C
001C
000E
000E
E00E
600C
701C
3FF8
1FF0
ENDCHAR
STARTCHAR char440
ENCODING 440
SWIDTH 551 0
DWIDTH 16 0
BBX 15 18 0 0
BITMAP
3FFC
3FFC
3800
1C00
0E00
0700
0380
0780
1F80
7800
7000
E000
E000
E00E
600C
701C
3FF8
1FF0
ENDCHAR
STARTCHAR char441
ENCODING 441
SWIDTH 551 0
DWIDTH 16 0
BBX 12 19 2 -5
BITMAP
7FE0
7FE0
6000
3000
3800
1C00
0E00
0700
0F00
3F00
7000
E000
C000
C000
C000
C000
E010
7FF0
3FE0
ENDCHAR
STARTCHAR char442
ENCODING 442
SWIDTH 551 0
DWIDTH 16 0
BBX 11 19 2 -5
BITMAP
FFE0
FFE0
00E0
01C0
0380
0700
0600
0E00
1FC0
00E0
0060
00E0
0FC0
7F00
7000
E000
E000
7FC0
3FC0
ENDCHAR
STARTCHAR char443
ENCODING 443
SWIDTH 551 0
DWIDTH 16 0
BBX 11 19 2 0
BITMAP
0800
FF80
FFC0
81C0
00E0
00E0
00E0
00C0
01C0
0180
7FC0
7FC0
0E00
1C00
3800
7000
E000
FFE0
FFE0
ENDCHAR
STARTCHAR char444
ENCODING 444
SWIDTH 551 0
DWIDTH 16 0
BBX 15 18 0 0
BITMAP
1FFC
1FFC
1800
1800
1800
1800
1800
1FC0
1FF0
003C
001C
000E
000E
E00E
600C
701C
3FF8
1FF0
ENDCHAR
STARTCHAR char445
ENCODING 445
SWIDTH 551 0
DWIDTH 16 0
BBX 12 19 2 -5
BITMAP
7FC0
7FC0
7FC0
6000
6000
6000
6000
6000
7E00
7F80
01C0
00E0
0060
0070
0060
0060
00E0
FFC0
FF80
ENDCHAR
STARTCHAR char446
ENCODING 446
SWIDTH 551 0
DWIDTH 16 0
BBX 11 18 2 0
BITMAP
1C00
1C00
1C00
1C00
7F80
7F80
1C00
1E00
1F80
03C0
00C0
00E0
00E0
00E0
00C0
81C0
FF80
FF00
ENDCHAR
STARTCHAR char447
ENCODING 447
SWIDTH 551 0
DWIDTH 16 0
BBX 12 19 2 -5
BITMAP
CFC0
DFE0
F8E0
E070
C070
C070
C060
C060
C0C0
C1C0
C380
CF00
DC00
F800
E000
C000
C000
C000
C000
ENDCHAR
STARTCHAR char448
ENCODING 448
SWIDTH 551 0
DWIDTH 16 0
BBX 3 18 6 0
BITMAP
E0
E0
E0
E0
E0
E0
E0
E0
E0
E0
E0
E0
E0
E0
E0
E0
E0
E0
ENDCHAR
STARTCHAR char449
ENCODING 449
SWIDTH 551 0
DWIDTH 16 0
BBX 7 18 4 0
BITMAP
EE
EE
EE
EE
EE
EE
EE
EE
EE
EE
EE
EE
EE
EE
EE
EE
EE
EE
ENDCHAR
STARTCHAR char450
ENCODING 450
SWIDTH 551 0
DWIDTH 16 0
BBX 11 18 2 0
BITMAP
0E00
0E00
0E00
0E00
0E00
FFE0
FFE0
0E00
0E00
0E00
FFE0
FFE0
0E00
0E00
0E00
0E00
0E00
0E00
ENDCHAR
STARTCHAR char451
ENCODING 451
SWIDTH 551 0
DWIDTH 16 0
BBX 3 18 6 0
BITMAP
E0
E0
E0
E0
E0
E0
E0
E0
E0
E0
E0
60
00
00
00
E0
E0
E0
ENDCHAR
STARTCHAR char461
ENCODING 461
SWIDTH 551 0
DWIDTH 16 0
BBX 13 23 1 0
BITMAP
18C0
0D80
0700
0000
0000
0700
0700
0D80
0D80
0D80
1CC0
18C0
18C0
38E0
3060
3060
7FF0
7FF0
6030
6038
E038
C018
C018
ENDCHAR
STARTCHAR char462
ENCODING 462
SWIDTH 551 0
DWIDTH 16 0
BBX 11 20 2 0
BITMAP
3180
1180
1B00
0E00
0E00
0000
3F00
7FC0
40C0
00E0
0060
3FE0
7FE0
E060
C060
C0E0
C0E0
E1E0
7F60
3E60
ENDCHAR
STARTCHAR char463
ENCODING 463
SWIDTH 551 0
DWIDTH 16 0
BBX 11 23 2 0
BITMAP
3180
1B00
0E00
0000
0000
FFE0
FFE0
0E00
0E00
0E00
0E00
0E00
0E00
0E00
0E00
0E00
0E00
0E00
0E00
0E00
0E00
FFE0
FFE0
ENDCHAR
STARTCHAR char464
ENCODING 464
SWIDTH 551 0
DWIDTH 16 0
BBX 11 20 2 0
BITMAP
3180
1180
1B00
0E00
0E00
0000
7E00
7E00
0600
0600
0600
0600
0600
0600
0600
0600
0600
0600
FFE0
FFE0
ENDCHAR
STARTCHAR char465
ENCODING 465
SWIDTH 551 0
DWIDTH 16 0
BBX 13 23 1 0
BITMAP
18C0
0D80
0700
0000
0000
0F80
1FC0
38E0
7070
6030
6030
6030
E038
E038
E038
E038
6030
6030
6030
7070
38E0
3FE0
0F80
ENDCHAR
STARTCHAR char466
ENCODING 466
SWIDTH 551 0
DWIDTH 16 0
BBX 11 20 2 0
BITMAP
3180
1180
1B00
0E00
0E00
0000
1F00
7FC0
71C0
E0E0
C060
C060
C060
C060
C060
C060
E0E0
71C0
7FC0
1F00
ENDCHAR
STARTCHAR char467
ENCODING 467
SWIDTH 551 0
DWIDTH 16 0
BBX 11 23 2 0
BITMAP
3180
1B00
0E00
0000
0000
C060
C060
C060
C060
C060
C060
C060
C060
C060
C060
C060
C060
C060
C060
E0E0
E0E0
7FC0
1F00
ENDCHAR
STARTCHAR char468
ENCODING 468
SWIDTH 551 0
DWIDTH 16 0
BBX 11 20 2 0
BITMAP
3180
1180
1B00
0E00
0E00
0000
E060
E060
E060
E060
E060
E060
E060
E060
E060
E0E0
60E0
71E0
7F60
3E60
ENDCHAR
STARTCHAR char469
ENCODING 469
SWIDTH 551 0
DWIDTH 16 0
BBX 11 24 2 0
BITMAP
3F80
3F80
3180
3180
3180
0000
C060
C060
C060
C060
C060
C060
C060
C060
C060
C060
C060
C060
C060
C060
E0E0
E0E0
7FC0
1F00
ENDCHAR
STARTCHAR char470
ENCODING 470
SWIDTH 551 0
DWIDTH 16 0
BBX 11 23 2 0
BITMAP
3F80
3F80
0000
0000
3180
3180
3180
0000
0000
E060
E060
E060
E060
E060
E060
E060
E060
E060
E0E0
60E0
71E0
7F60
3E60
ENDCHAR
STARTCHAR char471
ENCODING 471
SWIDTH 551 0
DWIDTH 16 0
BBX 11 24 2 0
BITMAP
0300
0600
3D80
3180
3180
0000
C060
C060
C060
C060
C060
C060
C060
C060
C060
C060
C060
C060
C060
C060
E0E0
E0E0
7FC0
1F00
ENDCHAR
STARTCHAR char472
ENCODING 472
SWIDTH 551 0
DWIDTH 16 0
BBX 11 24 2 0
BITMAP
0180
0300
0700
0600
0C00
3180
3180
3180
0000
0000
E060
E060
E060
E060
E060
E060
E060
E060
E060
E0E0
60E0
71E0
7F60
3E60
ENDCHAR
STARTCHAR char473
ENCODING 473
SWIDTH 551 0
DWIDTH 16 0
BBX 11 24 2 0
BITMAP
3180
1B00
3F80
3180
3180
0000
C060
C060
C060
C060
C060
C060
C060
C060
C060
C060
C060
C060
C060
C060
E0E0
E0E0
7FC0
1F00
ENDCHAR
STARTCHAR char474
ENCODING 474
SWIDTH 551 0
DWIDTH 16 0
BBX 11 24 2 0
BITMAP
3180
1180
1B00
0E00
0E00
3180
3180
3180
0000
0000
E060
E060
E060
E060
E060
E060
E060
E060
E060
E0E0
60E0
71E0
7F60
3E60
ENDCHAR
STARTCHAR char475
ENCODING 475
SWIDTH 551 0
DWIDTH 16 0
BBX 11 24 2 0
BITMAP
1800
0C00
3780
3180
3180
0000
C060
C060
C060
C060
C060
C060
C060
C060
C060
C060
C060
C060
C060
C060
E0E0
E0E0
7FC0
1F00
ENDCHAR
STARTCHAR char476
ENCODING 476
SWIDTH 551 0
DWIDTH 16 0
BBX 11 24 2 0
BITMAP
3000
1800
1C00
0C00
0600
3180
3180
3180
0000
0000
E060
E060
E060
E060
E060
E060
E060
E060
E060
E0E0
60E0
71E0
7F60
3E60
ENDCHAR
STARTCHAR char477
ENCODING 477
SWIDTH 551 0
DWIDTH 16 0
BBX 13 14 1 0
BITMAP
3F80
7FC0
60E0
0070
0030
0030
FFF8
FFF8
6030
6030
6070
70E0
3FC0
0F80
ENDCHAR
STARTCHAR char478
ENCODING 478
SWIDTH 551 0
DWIDTH 16 0
BBX 13 24 1 0
BITMAP
1FC0
1FC0
18C0
18C0
18C0
0000
0700
0700
0D80
0D80
0D80
1CC0
18C0
18C0
38E0
3060
3060
7FF0
7FF0
6030
6038
E038
C018
C018
ENDCHAR
STARTCHAR char479
ENCODING 479
SWIDTH 551 0
DWIDTH 16 0
BBX 11 23 2 0
BITMAP
3F80
3F80
0000
0000
3180
3180
3180
0000
0000
3F00
7FC0
40C0
00E0
0060
3FE0
7FE0
E060
C060
C0E0
C0E0
E1E0
7F60
3E60
ENDCHAR
STARTCHAR char480
ENCODING 480
SWIDTH 551 0
DWIDTH 16 0
BBX 13 24 1 0
BITMAP
1FC0
1FC0
0000
0700
0700
0700
0700
0700
0D80
0D80
0D80
1CC0
18C0
18C0
38E0
3060
3060
7FF0
7FF0
6030
6038
E038
C018
C018
ENDCHAR
STARTCHAR char481
ENCODING 481
SWIDTH 551 0
DWIDTH 16 0
BBX 11 23 2 0
BITMAP
3F80
3F80
0000
0000
0E00
0E00
0E00
0000
0000
3F00
7FC0
40C0
00E0
0060
3FE0
7FE0
E060
C060
C0E0
C0E0
E1E0
7F60
3E60
ENDCHAR
STARTCHAR char482
ENCODING 482
SWIDTH 551 0
DWIDTH 16 0
BBX 14 22 0 0
BITMAP
03F8
03F8
0000
0000
07FC
07FC
0CC0
0CC0
0CC0
1CC0
18C0
18FC
18FC
30C0
30C0
3FC0
3FC0
60C0
60C0
60C0
E0FC
C0FC
ENDCHAR
STARTCHAR char483
ENCODING 483
SWIDTH 551 0
DWIDTH 16 0
BBX 14 19 1 0
BITMAP
1FC0
1FC0
0000
0000
0000
7CF0
FFF8
8718
0718
030C
030C
3FFC
FFFC
C300
C300
C700
C708
FDF8
78F8
ENDCHAR
STARTCHAR char486
ENCODING 486
SWIDTH 551 0
DWIDTH 16 0
BBX 12 23 1 0
BITMAP
18C0
0D80
0700
0000
0000
07E0
1FF0
3830
7010
7000
6000
E000
E000
E1F0
E1F0
E030
E030
6030
7030
7030
3830
1FF0
07C0
ENDCHAR
STARTCHAR char487
ENCODING 487
SWIDTH 551 0
DWIDTH 16 0
BBX 11 25 2 -5
BITMAP
3180
1180
1B00
0E00
0E00
0000
1EE0
7FE0
71E0
E0E0
C0E0
C0E0
C0E0
C0E0
C0E0
C0E0
E0E0
71E0
7FE0
1EE0
00E0
00C0
41C0
7F80
3F00
ENDCHAR
STARTCHAR char488
ENCODING 488
SWIDTH 551 0
DWIDTH 16 0
BBX 13 23 2 0
BITMAP
3180
1B00
0E00
0000
0000
C070
C0E0
C1C0
C380
C300
C600
CC00
DC00
FC00
FE00
E700
C300
C380
C1C0
C0E0
C0E0
C070
C038
ENDCHAR
STARTCHAR char489
ENCODING 489
SWIDTH 551 0
DWIDTH 16 0
BBX 11 23 3 0
BITMAP
6300
3600
1C00
0000
C000
C000
C000
C000
C000
C0C0
C180
C300
C600
CC00
DC00
FC00
EE00
C700
C300
C380
C1C0
C0E0
C060
ENDCHAR
STARTCHAR char490
ENCODING 490
SWIDTH 551 0
DWIDTH 16 0
BBX 13 23 1 -5
BITMAP
0F80
1FC0
38E0
7070
6030
6030
6030
E038
E038
E038
E038
6030
6030
6030
7070
38E0
3FE0
0F80
0600
0C00
0C00
0F80
0780
ENDCHAR
STARTCHAR char491
ENCODING 491
SWIDTH 551 0
DWIDTH 16 0
BBX 11 19 2 -5
BITMAP
1F00
7FC0
71C0
E0E0
C060
C060
C060
C060
C060
C060
E0E0
71C0
7FC0
1F00
0C00
1800
1800
1F00
0F00
ENDCHAR
STARTCHAR char492
ENCODING 492
SWIDTH 551 0
DWIDTH 16 0
BBX 13 27 1 -5
BITMAP
1FC0
1FC0
0000
0000
0F80
1FC0
38E0
7070
6030
6030
6030
E038
E038
E038
E038
6030
6030
6030
7070
38E0
3FE0
0F80
0600
0C00
0C00
0F80
0780
ENDCHAR
STARTCHAR char493
ENCODING 493
SWIDTH 551 0
DWIDTH 16 0
BBX 11 24 2 -5
BITMAP
3F80
3F80
0000
0000
0000
1F00
7FC0
71C0
E0E0
C060
C060
C060
C060
C060
C060
E0E0
71C0
7FC0
1F00
0C00
1800
1800
1F00
0F00
ENDCHAR
STARTCHAR char494
ENCODING 494
SWIDTH 551 0
DWIDTH 16 0
BBX 15 23 0 0
BITMAP
0C60
06C0
0380
0000
0000
7FF8
7FF8
0038
0070
00E0
01C0
0380
03C0
03F0
003C
001C
000E
000E
E00E
600C
701C
3FF8
1FF0
ENDCHAR
STARTCHAR char495
ENCODING 495
SWIDTH 551 0
DWIDTH 16 0
BBX 12 25 2 -5
BITMAP
3180
1180
1B00
0E00
0E00
0000
FFC0
FFC0
00C0
0180
0380
0700
0E00
1C00
1E00
1F80
01C0
00E0
0060
0070
0060
0060
00E0
FFC0
FF80
ENDCHAR
STARTCHAR char496
ENCODING 496
SWIDTH 551 0
DWIDTH 16 0
BBX 9 25 2 -5
BITMAP
3180
1180
1B00
0E00
0E00
0000
7F00
7F00
0700
0700
0700
0700
0700
0700
0700
0700
0700
0700
0700
0700
0700
0600
0600
FE00
F800
ENDCHAR
STARTCHAR char500
ENCODING 500
SWIDTH 551 0
DWIDTH 16 0
BBX 12 23 1 0
BITMAP
00C0
0180
0300
0000
0000
07E0
1FF0
3830
7010
7000
6000
E000
E000
E1F0
E1F0
E030
E030
6030
7030
7030
3830
1FF0
07C0
ENDCHAR
STARTCHAR char501
ENCODING 501
SWIDTH 551 0
DWIDTH 16 0
BBX 11 25 2 -5
BITMAP
0180
0300
0700
0600
0C00
0000
1EE0
7FE0
71E0
E0E0
C0E0
C0E0
C0E0
C0E0
C0E0
C0E0
E0E0
71E0
7FE0
1EE0
00E0
00C0
41C0
7F80
3F00
ENDCHAR
STARTCHAR char502
ENCODING 502
SWIDTH 551 0
DWIDTH 16 0
BBX 13 18 1 0
BITMAP
C300
C300
C300
C300
C300
C300
C300
FF18
FF18
C318
C318
C318
C318
C318
C318
C398
C1F8
C1F0
ENDCHAR
STARTCHAR char504
ENCODING 504
SWIDTH 551 0
DWIDTH 16 0
BBX 11 23 2 0
BITMAP
1800
0C00
0600
0000
0000
E060
E060
F060
F060
D860
D860
DC60
CC60
CC60
C660
C660
C360
C360
C360
C1E0
C1E0
C0E0
C0E0
ENDCHAR
STARTCHAR char505
ENCODING 505
SWIDTH 551 0
DWIDTH 16 0
BBX 11 20 2 0
BITMAP
3000
1800
1C00
0C00
0600
0000
E780
FFC0
F0C0
E0E0
E0E0
E060
E060
E060
E060
E060
E060
E060
E060
E060
ENDCHAR
STARTCHAR char508
ENCODING 508
SWIDTH 551 0
DWIDTH 16 0
BBX 14 23 0 0
BITMAP
0018
0030
0060
0000
0000
07FC
07FC
0CC0
0CC0
0CC0
1CC0
18C0
18FC
18FC
30C0
30C0
3FC0
3FC0
60C0
60C0
60C0
E0FC
C0FC
ENDCHAR
STARTCHAR char509
ENCODING 509
SWIDTH 551 0
DWIDTH 16 0
BBX 14 20 1 0
BITMAP
00C0
0180
0380
0300
0600
0000
7CF0
FFF8
8718
0718
030C
030C
3FFC
FFFC
C300
C300
C700
C708
FDF8
78F8
ENDCHAR
STARTCHAR char510
ENCODING 510
SWIDTH 551 0
DWIDTH 16 0
BBX 15 23 0 0
BITMAP
00C0
0180
0300
0000
0000
07C6
0FEC
1C78
3838
3038
3078
30D8
709C
719C
731C
761C
3418
3C18
3818
3838
3C70
7FF0
C7C0
ENDCHAR
STARTCHAR char511
ENCODING 511
SWIDTH 551 0
DWIDTH 16 0
BBX 13 21 1 -1
BITMAP
00C0
0180
0380
0300
0600
0008
0F98
3FF0
38E0
7070
60F0
61B0
6330
6630
6C30
7830
7070
38E0
7FE0
CF80
8000
ENDCHAR
STARTCHAR char512
ENCODING 512
SWIDTH 551 0
DWIDTH 16 0
BBX 13 23 1 0
BITMAP
3300
1980
0D80
0000
0000
0700
0700
0D80
0D80
0D80
1CC0
18C0
18C0
38E0
3060
3060
7FF0
7FF0
6030
6038
E038
C018
C018
ENDCHAR
STARTCHAR char513
ENCODING 513
SWIDTH 551 0
DWIDTH 16 0
BBX 11 20 2 0
BITMAP
6600
3300
3300
1980
0980
0000
3F00
7FC0
40C0
00E0
0060
3FE0
7FE0
E060
C060
C0E0
C0E0
E1E0
7F60
3E60
ENDCHAR
STARTCHAR char514
ENCODING 514
SWIDTH 551 0
DWIDTH 16 0
BBX 13 23 1 0
BITMAP
0F80
1DC0
1040
0000
0000
0700
0700
0D80
0D80
0D80
1CC0
18C0
18C0
38E0
3060
3060
7FF0
7FF0
6030
6038
E038
C018
C018
ENDCHAR
STARTCHAR char515
ENCODING 515
SWIDTH 551 0
DWIDTH 16 0
BBX 11 20 2 0
BITMAP
0400
1F00
3180
2080
0000
0000
3F00
7FC0
40C0
00E0
0060
3FE0
7FE0
E060
C060
C0E0
C0E0
E1E0
7F60
3E60
ENDCHAR
STARTCHAR char516
ENCODING 516
SWIDTH 551 0
DWIDTH 16 0
BBX 11 23 2 0
BITMAP
6600
3300
1B00
0000
0000
FFE0
FFE0
E000
E000
E000
E000
E000
FFE0
FFE0
E000
E000
E000
E000
E000
E000
E000
FFE0
FFE0
ENDCHAR
STARTCHAR char517
ENCODING 517
SWIDTH 551 0
DWIDTH 16 0
BBX 12 20 2 0
BITMAP
6600
3300
3300
1980
0980
0000
1F00
3FC0
70E0
E060
C060
C060
FFF0
FFF0
C000
C000
E000
7060
3FE0
1FC0
ENDCHAR
STARTCHAR char518
ENCODING 518
SWIDTH 551 0
DWIDTH 16 0
BBX 11 23 2 0
BITMAP
1F00
3B80
2080
0000
0000
FFE0
FFE0
E000
E000
E000
E000
E000
FFE0
FFE0
E000
E000
E000
E000
E000
E000
E000
FFE0
FFE0
ENDCHAR
STARTCHAR char519
ENCODING 519
SWIDTH 551 0
DWIDTH 16 0
BBX 12 20 2 0
BITMAP
0400
1F00
3180
2080
0000
0000
1F00
3FC0
70E0
E060
C060
C060
FFF0
FFF0
C000
C000
E000
7060
3FE0
1FC0
ENDCHAR
STARTCHAR char520
ENCODING 520
SWIDTH 551 0
DWIDTH 16 0
BBX 11 23 2 0
BITMAP
6600
3300
1B00
0000
0000
FFE0
FFE0
0E00
0E00
0E00
0E00
0E00
0E00
0E00
0E00
0E00
0E00
0E00
0E00
0E00
0E00
FFE0
FFE0
ENDCHAR
STARTCHAR char521
ENCODING 521
SWIDTH 551 0
DWIDTH 16 0
BBX 11 20 2 0
BITMAP
6600
3300
3300
1980
0980
0000
7E00
7E00
0600
0600
0600
0600
0600
0600
0600
0600
0600
0600
FFE0
FFE0
ENDCHAR
STARTCHAR char522
ENCODING 522
SWIDTH 551 0
DWIDTH 16 0
BBX 11 23 2 0
BITMAP
1F00
3B80
2080
0000
0000
FFE0
FFE0
0E00
0E00
0E00
0E00
0E00
0E00
0E00
0E00
0E00
0E00
0E00
0E00
0E00
0E00
FFE0
FFE0
ENDCHAR
STARTCHAR char523
ENCODING 523
SWIDTH 551 0
DWIDTH 16 0
BBX 11 20 2 0
BITMAP
0400
1F00
3180
2080
0000
0000
7E00
7E00
0600
0600
0600
0600
0600
0600
0600
0600
0600
0600
FFE0
FFE0
ENDCHAR
STARTCHAR char524
ENCODING 524
SWIDTH 551 0
DWIDTH 16 0
BBX 13 23 1 0
BITMAP
3300
1980
0D80
0000
0000
0F80
1FC0
38E0
7070
6030
6030
6030
E038
E038
E038
E038
6030
6030
6030
7070
38E0
3FE0
0F80
ENDCHAR
STARTCHAR char525
ENCODING 525
SWIDTH 551 0
DWIDTH 16 0
BBX 11 20 2 0
BITMAP
6600
3300
3300
1980
0980
0000
1F00
7FC0
71C0
E0E0
C060
C060
C060
C060
C060
C060
E0E0
71C0
7FC0
1F00
ENDCHAR
STARTCHAR char526
ENCODING 526
SWIDTH 551 0
DWIDTH 16 0
BBX 13 23 1 0
BITMAP
0F80
1DC0
1040
0000
0000
0F80
1FC0
38E0
7070
6030
6030
6030
E038
E038
E038
E038
6030
6030
6030
7070
38E0
3FE0
0F80
ENDCHAR
STARTCHAR char527
ENCODING 527
SWIDTH 551 0
DWIDTH 16 0
BBX 11 20 2 0
BITMAP
0400
1F00
3180
2080
0000
0000
1F00
7FC0
71C0
E0E0
C060
C060
C060
C060
C060
C060
E0E0
71C0
7FC0
1F00
ENDCHAR
STARTCHAR char528
ENCODING 528
SWIDTH 551 0
DWIDTH 16 0
BBX 13 23 2 0
BITMAP
CC00
6600
3600
0000
0000
FF00
FF80
C1C0
C0E0
C0E0
C0E0
C0E0
C0E0
C1C0
FF80
FF00
C380
C1C0
C0E0
C060
C070
C030
C038
ENDCHAR
STARTCHAR char529
ENCODING 529
SWIDTH 551 0
DWIDTH 16 0
BBX 10 20 4 0
BITMAP
6600
3300
3300
1980
0980
0000
E780
FFC0
F840
F000
E000
E000
E000
E000
E000
E000
E000
E000
E000
E000
ENDCHAR
STARTCHAR char530
ENCODING 530
SWIDTH 551 0
DWIDTH 16 0
BBX 13 23 2 0
BITMAP
3E00
7700
4100
0000
0000
FF00
FF80
C1C0
C0E0
C0E0
C0E0
C0E0
C0E0
C1C0
FF80
FF00
C380
C1C0
C0E0
C060
C070
C030
C038
ENDCHAR
STARTCHAR char531
ENCODING 531
SWIDTH 551 0
DWIDTH 16 0
BBX 10 20 4 0
BITMAP
0400
1F00
3180
2080
0000
0000
E780
FFC0
F840
F000
E000
E000
E000
E000
E000
E000
E000
E000
E000
E000
ENDCHAR
STARTCHAR char532
ENCODING 532
SWIDTH 551 0
DWIDTH 16 0
BBX 11 23 2 0
BITMAP
6600
3300
1B00
0000
0000
C060
C060
C060
C060
C060
C060
C060
C060
C060
C060
C060
C060
C060
C060
E0E0
E0E0
7FC0
1F00
ENDCHAR
STARTCHAR char533
ENCODING 533
SWIDTH 551 0
DWIDTH 16 0
BBX 11 20 2 0
BITMAP
6600
3300
3300
1980
0980
0000
E060
E060
E060
E060
E060
E060
E060
E060
E060
E0E0
60E0
71E0
7F60
3E60
ENDCHAR
STARTCHAR char534
ENCODING 534
SWIDTH 551 0
DWIDTH 16 0
BBX 11 23 2 0
BITMAP
1F00
3B80
2080
0000
0000
C060
C060
C060
C060
C060
C060
C060
C060
C060
C060
C060
C060
C060
C060
E0E0
E0E0
7FC0
1F00
ENDCHAR
STARTCHAR char535
ENCODING 535
SWIDTH 551 0
DWIDTH 16 0
BBX 11 20 2 0
BITMAP
0400
1F00
3180
2080
0000
0000
E060
E060
E060
E060
E060
E060
E060
E060
E060
E0E0
60E0
71E0
7F60
3E60
ENDCHAR
STARTCHAR char536
ENCODING 536
SWIDTH 551 0
DWIDTH 16 0
BBX 11 25 2 -7
BITMAP
1F80
7FC0
F0C0
C040
C000
C000
C000
F000
7F00
1FC0
01E0
0060
0060
0060
8060
E0E0
FFC0
7F00
0000
0000
0000
0E00
0C00
1C00
1800
ENDCHAR
STARTCHAR char537
ENCODING 537
SWIDTH 551 0
DWIDTH 16 0
BBX 10 21 3 -7
BITMAP
3F00
7F80
E080
C000
C000
E000
7E00
3F80
0380
01C0
01C0
8380
FF80
7E00
0000
0000
0000
1C00
1800
3800
3000
ENDCHAR
STARTCHAR char538
ENCODING 538
SWIDTH 551 0
DWIDTH 16 0
BBX 13 25 1 -7
BITMAP
FFF8
FFF8
0700
0700
0700
0700
0700
0700
0700
0700
0700
0700
0700
0700
0700
0700
0700
0700
0000
0000
0000
0700
0600
0E00
0C00
ENDCHAR
STARTCHAR char539
ENCODING 539
SWIDTH 551 0
DWIDTH 16 0
BBX 11 25 2 -7
BITMAP
1C00
1C00
1C00
1C00
FFE0
FFE0
1C00
1C00
1C00
1C00
1C00
1C00
1C00
1C00
1C00
1C00
0FE0
07E0
0000
0000
0000
0700
0600
0E00
0C00
ENDCHAR
STARTCHAR char540
ENCODING 540
SWIDTH 551 0
DWIDTH 16 0
BBX 12 24 2 -5
BITMAP
0400
3F80
FFC0
C0E0
00E0
0060
0060
00E0
01C0
0380
0F00
3FC0
39E0
0060
0060
0070
0060
00E0
01C0
03C0
0F00
3E00
F800
C000
ENDCHAR
STARTCHAR char541
ENCODING 541
SWIDTH 551 0
DWIDTH 16 0
BBX 11 19 2 -5
BITMAP
1F00
7FC0
40C0
00E0
00C0
00C0
01C0
0380
0F00
3FC0
20E0
0060
0060
00E0
01C0
0380
0F00
7C00
E000
ENDCHAR
STARTCHAR char542
ENCODING 542
SWIDTH 551 0
DWIDTH 16 0
BBX 11 23 2 0
BITMAP
3180
1B00
0E00
0000
0000
C060
C060
C060
C060
C060
C060
C060
FFE0
FFE0
C060
C060
C060
C060
C060
C060
C060
C060
C060
ENDCHAR
STARTCHAR char543
ENCODING 543
SWIDTH 551 0
DWIDTH 16 0
BBX 11 23 2 0
BITMAP
3180
1B00
0E00
0000
E000
E000
E000
E000
E000
E780
FFC0
F0C0
E0E0
E0E0
E060
E060
E060
E060
E060
E060
E060
E060
E060
ENDCHAR
STARTCHAR char544
ENCODING 544
SWIDTH 551 0
DWIDTH 16 0
BBX 11 24 2 -5
BITMAP
0200
CFC0
DFC0
E0E0
E0E0
C060
C060
C060
C060
C060
C060
C060
C060
C060
C060
C060
C060
C060
C060
0060
0060
0060
0060
0060
ENDCHAR
STARTCHAR char545
ENCODING 545
SWIDTH 551 0
DWIDTH 16 0
BBX 14 21 0 -2
BITMAP
01C0
01C0
01C0
01C0
01C0
1DC0
3FC0
63C0
61C0
C1C0
C1C0
C1C0
C1C0
C1DC
C1FC
61F4
63E4
7EFC
3E7C
00C0
0080
ENDCHAR
STARTCHAR char548
ENCODING 548
SWIDTH 551 0
DWIDTH 16 0
BBX 12 23 2 -5
BITMAP
FFF0
FFF0
0060
00E0
01C0
0180
0380
0700
0600
0E00
0C00
1800
3800
3000
6000
E000
FFF0
FFF0
0030
0030
0070
03E0
03E0
ENDCHAR
STARTCHAR char549
ENCODING 549
SWIDTH 551 0
DWIDTH 16 0
BBX 11 19 2 -5
BITMAP
7FE0
7FE0
00E0
01C0
0380
0300
0600
0E00
1C00
3800
3000
6000
FFE0
FFE0
00E0
00E0
00C0
0FC0
0F80
ENDCHAR
STARTCHAR char550
ENCODING 550
SWIDTH 551 0
DWIDTH 16 0
BBX 13 23 1 0
BITMAP
0700
0700
0700
0000
0000
0700
0700
0D80
0D80
0D80
1CC0
18C0
18C0
38E0
3060
3060
7FF0
7FF0
6030
6038
E038
C018
C018
ENDCHAR
STARTCHAR char551
ENCODING 551
SWIDTH 551 0
DWIDTH 16 0
BBX 11 19 2 0
BITMAP
0E00
0E00
0E00
0000
0000
3F00
7FC0
40C0
00E0
0060
3FE0
7FE0
E060
C060
C0E0
C0E0
E1E0
7F60
3E60
ENDCHAR
STARTCHAR char552
ENCODING 552
SWIDTH 551 0
DWIDTH 16 0
BBX 11 23 2 -5
BITMAP
FFE0
FFE0
E000
E000
E000
E000
E000
FFE0
FFE0
E000
E000
E000
E000
E000
E000
E000
FFE0
FFE0
0300
0180
0180
0F80
0F00
ENDCHAR
STARTCHAR char553
ENCODING 553
SWIDTH 551 0
DWIDTH 16 0
BBX 12 19 2 -5
BITMAP
1F00
3FC0
70E0
E060
C060
C060
FFF0
FFF0
C000
C000
E000
7060
3FE0
1FC0
0300
0180
0180
0F80
0F00
ENDCHAR
STARTCHAR char554
ENCODING 554
SWIDTH 551 0
DWIDTH 16 0
BBX 13 24 1 0
BITMAP
1FC0
1FC0
18C0
18C0
18C0
0000
0F80
1FC0
38E0
7070
6030
6030
6030
E038
E038
E038
E038
6030
6030
6030
7070
38E0
3FE0
0F80
ENDCHAR
STARTCHAR char555
ENCODING 555
SWIDTH 551 0
DWIDTH 16 0
BBX 11 23 2 0
BITMAP
3F80
3F80
0000
0000
3180
3180
3180
0000
0000
1F00
7FC0
71C0
E0E0
C060
C060
C060
C060
C060
C060
E0E0
71C0
7FC0
1F00
ENDCHAR
STARTCHAR char556
ENCODING 556
SWIDTH 551 0
DWIDTH 16 0
BBX 13 24 1 0
BITMAP
1FC0
1FC0
1E60
1FC0
13C0
0000
0F80
1FC0
38E0
7070
6030
6030
6030
E038
E038
E038
E038
6030
6030
6030
7070
38E0
3FE0
0F80
ENDCHAR
STARTCHAR char557
ENCODING 557
SWIDTH 551 0
DWIDTH 16 0
BBX 11 23 2 0
BITMAP
3F80
3F80
0000
0000
18C0
3C80
2780
6300
0000
1F00
7FC0
71C0
E0E0
C060
C060
C060
C060
C060
C060
E0E0
71C0
7FC0
1F00
ENDCHAR
STARTCHAR char558
ENCODING 558
SWIDTH 551 0
DWIDTH 16 0
BBX 13 23 1 0
BITMAP
0700
0700
0700
0000
0000
0F80
1FC0
38E0
7070
6030
6030
6030
E038
E038
E038
E038
6030
6030
6030
7070
38E0
3FE0
0F80
ENDCHAR
STARTCHAR char559
ENCODING 559
SWIDTH 551 0
DWIDTH 16 0
BBX 11 19 2 0
BITMAP
0E00
0E00
0E00
0000
0000
1F00
7FC0
71C0
E0E0
C060
C060
C060
C060
C060
C060
E0E0
71C0
7FC0
1F00
ENDCHAR
STARTCHAR char560
ENCODING 560
SWIDTH 551 0
DWIDTH 16 0
BBX 13 24 1 0
BITMAP
1FC0
1FC0
0000
0700
0700
0700
0F80
1FC0
38E0
7070
6030
6030
6030
E038
E038
E038
E038
6030
6030
6030
7070
38E0
3FE0
0F80
ENDCHAR
STARTCHAR char561
ENCODING 561
SWIDTH 551 0
DWIDTH 16 0
BBX 11 23 2 0
BITMAP
3F80
3F80
0000
0000
0E00
0E00
0E00
0000
0000
1F00
7FC0
71C0
E0E0
C060
C060
C060
C060
C060
C060
E0E0
71C0
7FC0
1F00
ENDCHAR
STARTCHAR char562
ENCODING 562
SWIDTH 551 0
DWIDTH 16 0
BBX 13 22 1 0
BITMAP
1FC0
1FC0
0000
0000
C018
E038
6030
3070
38E0
18C0
1DC0
0D80
0F80
0700
0700
0700
0700
0700
0700
0700
0700
0700
ENDCHAR
STARTCHAR char563
ENCODING 563
SWIDTH 551 0
DWIDTH 16 0
BBX 13 24 1 -5
BITMAP
1FC0
1FC0
0000
0000
0000
E038
6038
7030
3070
3060
3860
18E0
18C0
0CC0
0D80
0F80
0780
0700
0300
0700
0600
0E00
7C00
7800
ENDCHAR
STARTCHAR char564
ENCODING 564
SWIDTH 551 0
DWIDTH 16 0
BBX 11 21 2 -2
BITMAP
FC00
FC00
0C00
0C00
0C00
0C00
0C00
0C00
0C00
0C00
0C00
0C00
0C00
0DC0
0DE0
0F60
0E60
0FC0
07C0
0400
0C00
ENDCHAR
STARTCHAR char565
ENCODING 565
SWIDTH 551 0
DWIDTH 16 0
BBX 13 16 1 -2
BITMAP
DC00
FE00
E600
C300
C300
C300
C300
C300
C330
C378
C3D8
C398
C3F0
C1F0
0100
0300
ENDCHAR
STARTCHAR char566
ENCODING 566
SWIDTH 551 0
DWIDTH 16 0
BBX 11 20 2 -2
BITMAP
1C00
1C00
1C00
1C00
FFE0
FFE0
1C00
1C00
1C00
1C00
1C00
1C00
1DC0
1FC0
1E40
1E40
0FC0
0780
0C00
0800
ENDCHAR
STARTCHAR char567
ENCODING 567
SWIDTH 551 0
DWIDTH 16 0
BBX 8 19 2 -5
BITMAP
7F
7F
07
07
07
07
07
07
07
07
07
07
07
07
07
06
06
FE
F8
ENDCHAR
STARTCHAR char568
ENCODING 568
SWIDTH 551 0
DWIDTH 16 0
BBX 13 19 1 0
BITMAP
0200
0200
0200
0200
0200
3AE0
3FF0
6730
4710
4210
4218
C218
C218
4218
4210
4710
6730
7FF0
3AE0
ENDCHAR
STARTCHAR char569
ENCODING 569
SWIDTH 551 0
DWIDTH 16 0
BBX 13 19 1 -5
BITMAP
3AE0
7FF0
6730
4710
4210
4218
C218
C218
4218
4210
4310
6730
7FF0
3AE0
0200
0200
0200
0200
0200
ENDCHAR
STARTCHAR char570
ENCODING 570
SWIDTH 551 0
DWIDTH 16 0
BBX 14 20 0 -1
BITMAP
0004
038C
07CC
06D8
06F0
06E0
0E60
0CE0
0DE0
1DF0
1B30
1E30
3FF8
3FF8
3818
301C
701C
600C
E00C
4000
ENDCHAR
STARTCHAR char571
ENCODING 571
SWIDTH 551 0
DWIDTH 16 0
BBX 14 20 0 -1
BITMAP
00C4
07FC
0FFC
1C18
1830
3820
3860
30C0
3180
3180
3300
3600
3600
3C00
3800
1800
3C08
6FF8
C7F8
4000
ENDCHAR
STARTCHAR char572
ENCODING 572
SWIDTH 551 0
DWIDTH 16 0
BBX 13 16 1 -1
BITMAP
0008
07F8
0FF0
1C70
3860
30C0
7180
7300
7600
7C00
3800
3800
3810
7FF0
CFF0
8000
ENDCHAR
STARTCHAR char573
ENCODING 573
SWIDTH 551 0
DWIDTH 16 0
BBX 15 18 0 0
BITMAP
0C00
0C00
0C00
0C00
0C00
0C00
0C00
0C00
0C00
FF80
FF80
0C00
0C00
0C00
0C00
0C00
0FFE
0FFE
ENDCHAR
STARTCHAR char574
ENCODING 574
SWIDTH 551 0
DWIDTH 16 0
BBX 14 20 1 -1
BITMAP
0008
FFFC
FFF8
0730
0720
0760
07C0
0780
0780
0700
0700
0700
0F00
1F00
1700
3700
6700
C700
C700
8000
ENDCHAR
STARTCHAR char575
ENCODING 575
SWIDTH 551 0
DWIDTH 16 0
BBX 10 20 3 -6
BITMAP
3F00
7F80
E080
C000
C000
E000
7E00
3F80
0380
01C0
01C0
8180
FF80
FF00
3800
1C00
0E00
0700
03C0
01C0
ENDCHAR
STARTCHAR char576
ENCODING 576
SWIDTH 551 0
DWIDTH 16 0
BBX 11 20 2 -6
BITMAP
7FE0
7FE0
00E0
01C0
0380
0300
0600
0E00
1C00
3800
3000
6000
E000
F000
3800
1C00
0E00
0700
03E0
00E0
ENDCHAR
STARTCHAR char577
ENCODING 577
SWIDTH 551 0
DWIDTH 16 0
BBX 13 18 1 0
BITMAP
7FE0
FFF0
C038
C038
C018
0018
0018
0038
00F8
07F0
0780
0600
0600
0600
0600
0600
0600
0600
ENDCHAR
STARTCHAR char579
ENCODING 579
SWIDTH 551 0
DWIDTH 16 0
BBX 14 18 0 0
BITMAP
3FE0
3FF0
3838
3818
3818
3818
3838
3FF0
3FE0
3878
3818
381C
FE1C
FE1C
381C
3838
3FF8
3FE0
ENDCHAR
STARTCHAR char580
ENCODING 580
SWIDTH 551 0
DWIDTH 16 0
BBX 15 18 0 0
BITMAP
3018
3018
3018
3018
3018
3018
3018
3018
3018
FFFE
FFFE
3018
3018
3018
3018
3838
1FF0
0FE0
ENDCHAR
STARTCHAR char581
ENCODING 581
SWIDTH 551 0
DWIDTH 16 0
BBX 13 18 1 0
BITMAP
0700
0780
0D80
0D80
0D80
1CC0
18C0
18C0
38E0
3860
3060
3060
7070
6030
6030
E038
E038
C018
ENDCHAR
STARTCHAR char588
ENCODING 588
SWIDTH 551 0
DWIDTH 16 0
BBX 15 18 0 0
BITMAP
1FC0
1FF0
1870
1838
1838
1838
1838
1830
FFF0
FFC0
18E0
1870
1830
1838
1818
181C
180C
180E
ENDCHAR
STARTCHAR char589
ENCODING 589
SWIDTH 551 0
DWIDTH 16 0
BBX 12 14 2 0
BITMAP
39E0
3BF0
3E10
3C00
3800
3800
FFE0
FFE0
3800
3800
3800
3800
3800
3800
ENDCHAR
STARTCHAR char592
ENCODING 592
SWIDTH 551 0
DWIDTH 16 0
BBX 11 14 2 0
BITMAP
CF80
DFC0
F0E0
E060
C060
C060
C0E0
FFC0
FF00
C000
C000
E000
7FC0
3FC0
ENDCHAR
STARTCHAR char593
ENCODING 593
SWIDTH 551 0
DWIDTH 16 0
BBX 11 14 2 0
BITMAP
1EE0
7FE0
E1E0
E0E0
C0E0
C0E0
C0E0
C0E0
C0E0
C0E0
E0E0
E1E0
7FE0
1EE0
ENDCHAR
STARTCHAR char594
ENCODING 594
SWIDTH 551 0
DWIDTH 16 0
BBX 12 14 2 0
BITMAP
EF80
FFC0
F0E0
E0E0
E060
E060
E070
E070
E060
E060
E0E0
F0E0
FFC0
EF80
ENDCHAR
STARTCHAR char595
ENCODING 595
SWIDTH 551 0
DWIDTH 16 0
BBX 12 19 2 0
BITMAP
3E00
7E00
6000
E000
E000
EF80
FFC0
F0E0
E0E0
E060
E060
E070
E070
E070
E060
E0E0
F0E0
FFC0
EF80
ENDCHAR
STARTCHAR char596
ENCODING 596
SWIDTH 551 0
DWIDTH 16 0
BBX 11 14 2 0
BITMAP
7E00
FF80
83C0
01C0
00C0
00E0
00E0
00E0
00E0
00E0
81C0
C3C0
7F80
3E00
ENDCHAR
STARTCHAR char597
ENCODING 597
SWIDTH 551 0
DWIDTH 16 0
BBX 11 16 2 -2
BITMAP
0FC0
1FE0
3820
7000
6000
E000
E000
E000
E000
63C0
67E0
7C60
3FE0
1FE0
1800
1800
ENDCHAR
STARTCHAR char598
ENCODING 598
SWIDTH 551 0
DWIDTH 16 0
BBX 11 24 2 -5
BITMAP
0180
0180
0180
0180
0180
3D80
7F80
E380
C180
C180
C180
C180
C180
C180
C180
C180
E380
7F80
3D80
0180
0180
01C0
00E0
0060
ENDCHAR
STARTCHAR char599
ENCODING 599
SWIDTH 551 0
DWIDTH 16 0
BBX 11 19 2 0
BITMAP
0060
00E0
01C0
01C0
0180
3D80
7F80
E380
C180
C180
C180
C180
C180
C180
C180
C180
E380
7F80
3D80
ENDCHAR
STARTCHAR char600
ENCODING 600
SWIDTH 551 0
DWIDTH 16 0
BBX 13 14 1 0
BITMAP
0F80
3FC0
70E0
6070
6030
6030
FFF8
FFF8
0030
0030
0030
4060
7FE0
3F80
ENDCHAR
STARTCHAR char601
ENCODING 601
SWIDTH 551 0
DWIDTH 16 0
BBX 13 14 1 0
BITMAP
3F80
7FC0
60E0
0070
0030
0030
FFF8
FFF8
6030
6030
6070
70E0
3FC0
0F80
ENDCHAR
STARTCHAR char602
ENCODING 602
SWIDTH 551 0
DWIDTH 16 0
BBX 15 14 0 0
BITMAP
3E00
7F18
43F8
01F8
01D8
03D8
0EDE
1CCE
30C0
E0C0
4180
6180
7F00
3E00
ENDCHAR
STARTCHAR char603
ENCODING 603
SWIDTH 551 0
DWIDTH 16 0
BBX 11 14 2 0
BITMAP
1F80
7FC0
7040
E000
6000
7000
1F00
7F00
F000
C000
C000
E020
7FE0
1FC0
ENDCHAR
STARTCHAR char604
ENCODING 604
SWIDTH 551 0
DWIDTH 16 0
BBX 11 14 2 0
BITMAP
3F00
7FC0
41C0
00E0
00E0
01C0
1F80
1F80
00C0
0060
0060
80E0
FFC0
7F00
ENDCHAR
STARTCHAR char605
ENCODING 605
SWIDTH 551 0
DWIDTH 16 0
BBX 13 14 1 0
BITMAP
FC00
FE60
86E0
03E0
0320
0630
3C38
3E18
0300
0300
0300
0300
FE00
FC00
ENDCHAR
STARTCHAR char606
ENCODING 606
SWIDTH 551 0
DWIDTH 16 0
BBX 11 15 2 -1
BITMAP
0F80
3FC0
70E0
6060
C060
C060
C7C0
C780
C0C0
C060
6060
6060
3DC0
1FC0
0200
ENDCHAR
STARTCHAR char607
ENCODING 607
SWIDTH 551 0
DWIDTH 16 0
BBX 12 19 2 -5
BITMAP
7F00
7F00
0700
0700
0700
0700
7FF0
7FF0
0700
0700
0700
0700
0700
0700
0700
0600
0600
FE00
FC00
ENDCHAR
STARTCHAR char608
ENCODING 608
SWIDTH 551 0
DWIDTH 16 0
BBX 11 24 2 -5
BITMAP
0060
00E0
01C0
01C0
0180
0F80
7F80
6180
C180
C180
C180
C180
C180
C180
C180
C180
E380
7F80
3D80
0180
0180
0180
7700
7E00
ENDCHAR
STARTCHAR char609
ENCODING 609
SWIDTH 551 0
DWIDTH 16 0
BBX 11 19 2 -5
BITMAP
07E0
3FE0
7060
6060
E060
C060
C060
C060
C060
E060
E0E0
70E0
3FE0
1E60
0060
0060
00E0
7BC0
7F80
ENDCHAR
STARTCHAR char610
ENCODING 610
SWIDTH 551 0
DWIDTH 16 0
BBX 13 14 1 0
BITMAP
0FE0
3FF0
3810
7000
6000
6000
E000
E078
6018
6018
7018
3818
1FF8
0FF0
ENDCHAR
STARTCHAR char611
ENCODING 611
SWIDTH 551 0
DWIDTH 16 0
BBX 13 19 1 -5
BITMAP
E038
7070
3860
18E0
1DC0
0F80
0700
0700
0F80
0D80
18C0
18C0
3060
3060
3060
3060
3060
3FE0
1FC0
ENDCHAR
STARTCHAR char612
ENCODING 612
SWIDTH 551 0
DWIDTH 16 0
BBX 13 14 1 0
BITMAP
E038
7070
3860
18C0
1DC0
0F80
0700
0700
0F80
1D80
18C0
18C0
1DC0
0F80
ENDCHAR
STARTCHAR char613
ENCODING 613
SWIDTH 551 0
DWIDTH 16 0
BBX 11 19 2 -5
BITMAP
E0E0
E0E0
E0E0
E0E0
E0E0
E0E0
E0E0
E0E0
E0E0
E0E0
E0E0
61E0
7FE0
3EE0
00E0
00E0
00E0
00E0
00E0
ENDCHAR
STARTCHAR char614
ENCODING 614
SWIDTH 551 0
DWIDTH 16 0
BBX 11 19 2 0
BITMAP
3E00
7E00
6000
E000
E000
E780
FFC0
F0C0
E0E0
E060
E060
E060
E060
E060
E060
E060
E060
E060
E060
ENDCHAR
STARTCHAR char615
ENCODING 615
SWIDTH 551 0
DWIDTH 16 0
BBX 11 24 2 -5
BITMAP
3E00
7E00
6000
E000
E000
E780
FFC0
F0C0
E0E0
E060
E060
E060
E060
E060
E060
E060
E060
E060
E060
0060
00E0
00E0
0FC0
0F80
ENDCHAR
STARTCHAR char616
ENCODING 616
SWIDTH 551 0
DWIDTH 16 0
BBX 11 19 2 0
BITMAP
0E00
0E00
0E00
0000
0000
7E00
7E00
0E00
0E00
0E00
0E00
FFE0
FFE0
0E00
0E00
0E00
0E00
FFE0
FFE0
ENDCHAR
STARTCHAR char617
ENCODING 617
SWIDTH 551 0
DWIDTH 16 0
BBX 11 14 2 0
BITMAP
FC00
FC00
0C00
0C00
0C00
0C00
0C00
0C00
0C00
0C00
0C00
0E00
07E0
03E0
ENDCHAR
STARTCHAR char618
ENCODING 618
SWIDTH 551 0
DWIDTH 16 0
BBX 11 14 2 0
BITMAP
FFE0
FFE0
0E00
0E00
0E00
0E00
0E00
0E00
0E00
0E00
0E00
0E00
FFE0
FFE0
ENDCHAR
STARTCHAR char619
ENCODING 619
SWIDTH 551 0
DWIDTH 16 0
BBX 13 19 1 0
BITMAP
7E00
7E00
0600
0600
0600
0600
0600
0600
0600
0600
7E18
FFF8
87F0
0600
0600
0600
0700
03F0
01F0
ENDCHAR
STARTCHAR char620
ENCODING 620
SWIDTH 551 0
DWIDTH 16 0
BBX 11 19 2 0
BITMAP
FC00
FC00
0C00
0C00
0C00
0C00
7C00
FC00
CC00
FF80
FF80
0C00
0C00
0C00
0C00
0C00
0E00
07E0
03E0
ENDCHAR
STARTCHAR char621
ENCODING 621
SWIDTH 551 0
DWIDTH 16 0
BBX 11 24 2 -5
BITMAP
FC00
FC00
0C00
0C00
0C00
0C00
0C00
0C00
0C00
0C00
0C00
0C00
0C00
0C00
0C00
0C00
0C00
0C00
0C00
0C00
0C00
0C00
0FE0
07E0
ENDCHAR
STARTCHAR char622
ENCODING 622
SWIDTH 551 0
DWIDTH 16 0
BBX 15 24 0 -5
BITMAP
F800
F800
1800
1800
1800
1FFC
1FFC
181C
1818
1830
1870
1860
18C0
19E0
19F8
181C
0C0C
0F8C
0786
0006
000C
041C
07F8
07F0
ENDCHAR
STARTCHAR char623
ENCODING 623
SWIDTH 551 0
DWIDTH 16 0
BBX 13 14 1 0
BITMAP
C318
C318
C318
C318
C318
C318
C318
C318
C718
C718
C718
E738
7FF8
7BD8
ENDCHAR
STARTCHAR char624
ENCODING 624
SWIDTH 551 0
DWIDTH 16 0
BBX 13 20 1 -6
BITMAP
C318
C318
C318
C318
C318
C318
C318
C318
C718
C718
C718
E738
7FF8
7BD8
0018
0018
0018
0018
0018
0018
ENDCHAR
STARTCHAR char625
ENCODING 625
SWIDTH 551 0
DWIDTH 16 0
BBX 13 19 1 -5
BITMAP
DCE0
FFF0
E730
C718
C718
C718
C718
C718
C718
C718
C718
C718
C718
C718
0018
0018
0038
01F0
01E0
ENDCHAR
STARTCHAR char626
ENCODING 626
SWIDTH 551 0
DWIDTH 16 0
BBX 11 19 2 -5
BITMAP
3380
37C0
38E0
3860
3060
3060
3060
3060
3060
3060
3060
3060
3060
3060
3000
3000
7000
F000
E000
ENDCHAR
STARTCHAR char627
ENCODING 627
SWIDTH 551 0
DWIDTH 16 0
BBX 11 19 2 -5
BITMAP
DE00
FF00
E380
C180
C180
C180
C180
C180
C180
C180
C180
C180
C180
C180
0180
0180
01C0
00E0
00E0
ENDCHAR
STARTCHAR char628
ENCODING 628
SWIDTH 551 0
DWIDTH 16 0
BBX 11 14 2 0
BITMAP
E060
F060
F060
F860
D860
DC60
CE60
C660
C760
C360
C3E0
C1E0
C1E0
C0E0
ENDCHAR
STARTCHAR char629
ENCODING 629
SWIDTH 551 0
DWIDTH 16 0
BBX 11 14 2 0
BITMAP
1F00
7FC0
71C0
E0E0
C060
C060
C060
FFE0
FFE0
C060
E0E0
60E0
7FC0
3F80
ENDCHAR
STARTCHAR char630
ENCODING 630
SWIDTH 551 0
DWIDTH 16 0
BBX 13 14 1 0
BITMAP
07F8
3FF8
7380
E380
E380
C380
C3F8
C3F8
C380
E380
E380
7380
3FF8
1FF8
ENDCHAR
STARTCHAR char631
ENCODING 631
SWIDTH 551 0
DWIDTH 16 0
BBX 11 14 2 0
BITMAP
1F00
3F80
7FC0
60C0
60C0
C060
C460
C460
C460
C460
C460
EAE0
7BC0
7BC0
ENDCHAR
STARTCHAR char632
ENCODING 632
SWIDTH 551 0
DWIDTH 16 0
BBX 11 24 2 -5
BITMAP
3FC0
3FC0
0E00
0E00
0E00
1F00
7FC0
7FC0
EEE0
CE60
CE60
CE60
CE60
CE60
CE60
EEE0
6EE0
7FC0
3F80
0E00
0E00
0E00
3FC0
3FC0
ENDCHAR
STARTCHAR char633
ENCODING 633
SWIDTH 551 0
DWIDTH 16 0
BBX 10 14 2 0
BITMAP
01C0
01C0
01C0
01C0
01C0
01C0
01C0
01C0
01C0
01C0
03C0
03C0
FFC0
FDC0
ENDCHAR
STARTCHAR char634
ENCODING 634
SWIDTH 551 0
DWIDTH 16 0
BBX 10 19 2 0
BITMAP
01C0
01C0
01C0
01C0
01C0
01C0
01C0
01C0
01C0
01C0
01C0
01C0
01C0
01C0
01C0
03C0
03C0
FFC0
FDC0
ENDCHAR
STARTCHAR char635
ENCODING 635
SWIDTH 551 0
DWIDTH 16 0
BBX 13 19 1 -5
BITMAP
00C0
00C0
00C0
00C0
00C0
00C0
00C0
00C0
00C0
01C0
01C0
83C0
FEC0
FCC0
00C0
00C0
00C0
00F8
0078
ENDCHAR
STARTCHAR char636
ENCODING 636
SWIDTH 551 0
DWIDTH 16 0
BBX 10 19 4 -5
BITMAP
E780
EFC0
F840
F000
E000
E000
E000
E000
E000
E000
E000
E000
E000
E000
E000
E000
E000
E000
E000
ENDCHAR
STARTCHAR char637
ENCODING 637
SWIDTH 551 0
DWIDTH 16 0
BBX 10 19 4 -5
BITMAP
E780
EFC0
F840
F000
E000
E000
E000
E000
E000
E000
E000
E000
E000
E000
E000
E000
6000
7F00
3F00
ENDCHAR
STARTCHAR char638
ENCODING 638
SWIDTH 551 0
DWIDTH 16 0
BBX 11 14 2 0
BITMAP
03E0
07E0
0600
0E00
0E00
0E00
0E00
0E00
0E00
0E00
0E00
0E00
FFE0
FFE0
ENDCHAR
STARTCHAR char639
ENCODING 639
SWIDTH 551 0
DWIDTH 16 0
BBX 11 14 2 0
BITMAP
F800
FC00
0C00
0E00
0E00
0E00
0E00
0E00
0E00
0E00
0E00
0E00
FFE0
FFE0
ENDCHAR
STARTCHAR char640
ENCODING 640
SWIDTH 551 0
DWIDTH 16 0
BBX 12 14 1 0
BITMAP
FE00
FF80
E1C0
E0C0
E0E0
E0C0
FFC0
FF00
E380
E0C0
E0E0
E060
E070
E030
ENDCHAR
STARTCHAR char641
ENCODING 641
SWIDTH 551 0
DWIDTH 16 0
BBX 12 14 1 0
BITMAP
E030
E030
E060
E0E0
E0C0
E1C0
FF00
FF80
E1C0
E0C0
E0C0
E1C0
FFC0
FF00
ENDCHAR
STARTCHAR char642
ENCODING 642
SWIDTH 551 0
DWIDTH 16 0
BBX 11 19 2 -5
BITMAP
1F80
7FC0
6040
E000
E000
7000
7F00
1FC0
01C0
00E0
00E0
80E0
FFC0
FF80
E000
E000
6000
7F00
3F00
ENDCHAR
STARTCHAR char643
ENCODING 643
SWIDTH 551 0
DWIDTH 16 0
BBX 12 24 2 -5
BITMAP
03F0
07F0
0600
0600
0600
0600
0600
0600
0600
0600
0600
0600
0600
0600
0600
0600
0600
0600
0600
0600
0E00
0E00
FC00
F800
ENDCHAR
STARTCHAR char644
ENCODING 644
SWIDTH 551 0
DWIDTH 16 0
BBX 12 24 2 -5
BITMAP
03F0
07F0
0600
0600
0600
7E00
7E00
0600
0600
0600
0600
FFE0
FFE0
0600
0600
0600
0600
0600
0600
0600
0E00
0E00
FC00
F800
ENDCHAR
STARTCHAR char645
ENCODING 645
SWIDTH 551 0
DWIDTH 16 0
BBX 12 19 2 -5
BITMAP
E000
FC00
1C00
0E00
0600
0600
0600
0600
0600
0600
0600
0600
0600
0600
0600
0600
0600
07F0
03F0
ENDCHAR
STARTCHAR char646
ENCODING 646
SWIDTH 551 0
DWIDTH 16 0
BBX 13 24 1 -5
BITMAP
00F8
01F8
0380
0300
0300
0300
0300
0300
0300
0300
0300
0300
0300
0300
0300
0300
0300
0300
0300
3FE0
7FE0
C300
7F00
7E00
ENDCHAR
STARTCHAR char647
ENCODING 647
SWIDTH 551 0
DWIDTH 16 0
BBX 11 18 2 -4
BITMAP
F000
FC00
0E00
0600
0600
0600
0600
0600
0600
0600
0600
0600
FFE0
FFE0
0600
0600
0600
0600
ENDCHAR
STARTCHAR char648
ENCODING 648
SWIDTH 551 0
DWIDTH 16 0
BBX 11 23 2 -5
BITMAP
1C00
1C00
1C00
1C00
FFE0
FFE0
1C00
1C00
1C00
1C00
1C00
1C00
1C00
1C00
1C00
1C00
1C00
1C00
1C00
1C00
1C00
0FE0
07E0
ENDCHAR
STARTCHAR char649
ENCODING 649
SWIDTH 551 0
DWIDTH 16 0
BBX 15 14 0 0
BITMAP
3018
3018
3018
3018
3018
3018
FFFE
FFFE
3018
3018
3038
3838
1FF8
0F98
ENDCHAR
STARTCHAR char650
ENCODING 650
SWIDTH 551 0
DWIDTH 16 0
BBX 13 14 1 0
BITMAP
FCF8
FCF8
1CC0
38E0
7070
6030
E038
E038
E038
E038
6030
7070
3FE0
1FC0
ENDCHAR
STARTCHAR char651
ENCODING 651
SWIDTH 551 0
DWIDTH 16 0
BBX 13 14 1 0
BITMAP
F000
F000
31E0
3070
3030
3038
3018
3018
3018
3038
3030
3070
3FE0
0F80
ENDCHAR
STARTCHAR char652
ENCODING 652
SWIDTH 551 0
DWIDTH 16 0
BBX 13 14 1 0
BITMAP
0700
0700
0F80
0D80
1DC0
18C0
18C0
38E0
3060
3060
7070
6030
E038
C018
ENDCHAR
STARTCHAR char653
ENCODING 653
SWIDTH 551 0
DWIDTH 16 0
BBX 15 14 0 0
BITMAP
1830
1830
1C70
3C78
3C78
3458
3458
26CC
66CC
62CC
628C
6384
C386
C386
ENDCHAR
STARTCHAR char654
ENCODING 654
SWIDTH 551 0
DWIDTH 16 0
BBX 13 19 1 0
BITMAP
00F0
01F0
0180
0300
0300
0700
0700
0F00
0D80
0D80
1DC0
18C0
38E0
3060
3060
7070
6030
E038
C018
ENDCHAR
STARTCHAR char655
ENCODING 655
SWIDTH 551 0
DWIDTH 16 0
BBX 11 14 2 0
BITMAP
C060
E0E0
71C0
3180
3B80
1F00
0E00
0E00
0E00
0E00
0E00
0E00
0E00
0E00
ENDCHAR
STARTCHAR char656
ENCODING 656
SWIDTH 551 0
DWIDTH 16 0
BBX 11 19 2 -5
BITMAP
7F80
7F80
0380
0300
0700
0600
0C00
1C00
1800
3000
7000
6000
FF80
FF80
0180
0180
0180
01E0
00E0
ENDCHAR
STARTCHAR char657
ENCODING 657
SWIDTH 551 0
DWIDTH 16 0
BBX 11 15 2 -1
BITMAP
FFE0
FFE0
00E0
01C0
0380
0300
0600
0E00
1C00
3BC0
77E0
E660
FFE0
FFC0
0C00
ENDCHAR
STARTCHAR char658
ENCODING 658
SWIDTH 551 0
DWIDTH 16 0
BBX 12 19 2 -5
BITMAP
FFC0
FFC0
00C0
0180
0380
0700
0E00
1C00
1E00
1F80
01C0
00E0
0060
0070
0060
0060
00E0
FFC0
FF80
ENDCHAR
STARTCHAR char659
ENCODING 659
SWIDTH 551 0
DWIDTH 16 0
BBX 13 19 1 -5
BITMAP
FFE0
FFE0
00E0
01C0
0380
0300
0600
0E00
1F00
1FC0
01E0
0070
0070
0030
3F70
7FF0
60F0
7FF0
7F98
ENDCHAR
STARTCHAR char660
ENCODING 660
SWIDTH 551 0
DWIDTH 16 0
BBX 11 19 2 0
BITMAP
7E00
FF80
83C0
00C0
00E0
00E0
00E0
00C0
01C0
1F80
1F00
1C00
1C00
1C00
1C00
1C00
1C00
1C00
1C00
ENDCHAR
STARTCHAR char661
ENCODING 661
SWIDTH 551 0
DWIDTH 16 0
BBX 11 19 2 0
BITMAP
0FC0
3FE0
7820
6000
E000
E000
E000
6000
7000
3F00
1F00
0700
0700
0700
0700
0700
0700
0700
0700
ENDCHAR
STARTCHAR char662
ENCODING 662
SWIDTH 551 0
DWIDTH 16 0
BBX 11 19 2 0
BITMAP
1C00
1C00
1C00
1C00
1C00
1C00
1C00
1C00
1E00
1F80
01C0
00C0
00E0
00E0
00E0
00C0
81C0
FF80
7E00
ENDCHAR
STARTCHAR char663
ENCODING 663
SWIDTH 551 0
DWIDTH 16 0
BBX 11 24 2 -5
BITMAP
0FC0
3FE0
7820
6000
E000
E000
E000
E000
E000
E000
E000
E000
E000
E000
E000
E000
E000
E000
E000
E000
6000
7020
3FE0
1FE0
ENDCHAR
STARTCHAR char664
ENCODING 664
SWIDTH 551 0
DWIDTH 16 0
BBX 13 12 1 1
BITMAP
1FC0
3FE0
7070
6030
E038
C718
C718
E038
6030
7070
3FE0
1FC0
ENDCHAR
STARTCHAR char665
ENCODING 665
SWIDTH 551 0
DWIDTH 16 0
BBX 9 14 3 0
BITMAP
FE00
FF00
C380
C180
C380
FF00
FF00
C380
C180
C180
C180
C380
FF80
FE00
ENDCHAR
STARTCHAR char666
ENCODING 666
SWIDTH 551 0
DWIDTH 16 0
BBX 11 14 2 -1
BITMAP
3E00
7F80
E1C0
C0C0
C060
C060
7C60
3C60
6060
C060
C0C0
C0C0
7780
7F00
ENDCHAR
STARTCHAR char667
ENCODING 667
SWIDTH 551 0
DWIDTH 16 0
BBX 13 19 1 0
BITMAP
0078
00F8
00C0
01C0
01C0
3FC0
7FC0
6040
E000
C000
C000
C000
C3C0
C0C0
C0C0
E0C0
70C0
3FC0
1F80
ENDCHAR
STARTCHAR char668
ENCODING 668
SWIDTH 551 0
DWIDTH 16 0
BBX 11 14 2 0
BITMAP
C060
C060
C060
C060
C060
FFE0
FFE0
FFE0
C060
C060
C060
C060
C060
C060
ENDCHAR
STARTCHAR char669
ENCODING 669
SWIDTH 551 0
DWIDTH 16 0
BBX 11 24 2 -5
BITMAP
0300
0300
0300
0000
0000
3F00
3F00
0300
0300
0300
0300
0300
0300
0300
0300
0300
0300
0300
0300
3FE0
7FE0
C300
7F00
7E00
ENDCHAR
STARTCHAR char670
ENCODING 670
SWIDTH 551 0
DWIDTH 16 0
BBX 12 19 2 -5
BITMAP
E070
7070
3870
1C70
0E70
0770
03F0
01F0
03F0
0770
0E70
1C70
7070
E070
0070
0070
0070
0070
0070
ENDCHAR
STARTCHAR char671
ENCODING 671
SWIDTH 551 0
DWIDTH 16 0
BBX 9 14 3 0
BITMAP
C000
C000
C000
C000
C000
C000
C000
C000
C000
C000
C000
C000
FF80
FF80
ENDCHAR
STARTCHAR char672
ENCODING 672
SWIDTH 551 0
DWIDTH 16 0
BBX 14 24 0 -5
BITMAP
003C
007C
0060
0060
0060
1E60
3F60
71E0
60E0
60E0
60E0
E060
E060
60E0
60E0
60E0
71E0
3F60
1F60
0060
0060
0060
0060
0060
ENDCHAR
STARTCHAR char673
ENCODING 673
SWIDTH 551 0
DWIDTH 16 0
BBX 11 19 2 0
BITMAP
7E00
FF80
83C0
00C0
00E0
00E0
00E0
00C0
01C0
1F80
1F00
1C00
1C00
1C00
7F80
7F80
1C00
1C00
1C00
ENDCHAR
STARTCHAR char674
ENCODING 674
SWIDTH 551 0
DWIDTH 16 0
BBX 11 19 2 0
BITMAP
0FC0
3FE0
7820
6000
E000
E000
E000
6000
7000
3F00
1F00
0700
0700
0700
3FC0
3FC0
0700
0700
0700
ENDCHAR
STARTCHAR char675
ENCODING 675
SWIDTH 551 0
DWIDTH 16 0
BBX 14 19 0 0
BITMAP
0100
0100
0100
0100
0100
39FC
3DFC
6304
630C
4308
C118
C110
C130
C120
4360
4340
63C0
7DFC
3DFC
ENDCHAR
STARTCHAR char676
ENCODING 676
SWIDTH 551 0
DWIDTH 16 0
BBX 15 24 0 -5
BITMAP
0300
0300
0300
0300
0300
3BFC
3FFC
670C
4308
4318
C310
C330
C320
C370
C378
430C
6704
7F06
3B06
0006
0006
010C
01FC
00F8
ENDCHAR
STARTCHAR char677
ENCODING 677
SWIDTH 551 0
DWIDTH 16 0
BBX 13 20 1 -1
BITMAP
0200
0200
0200
0200
0200
33F8
7BF8
C608
C618
8610
8230
8220
8260
8240
86F8
86B8
C7A8
7BF8
7BF8
0060
ENDCHAR
STARTCHAR char678
ENCODING 678
SWIDTH 551 0
DWIDTH 16 0
BBX 11 18 2 0
BITMAP
4000
4000
4000
4000
FBC0
FFE0
4620
4400
4400
4600
4780
41C0
4060
4020
4020
4020
7FE0
3FC0
ENDCHAR
STARTCHAR char679
ENCODING 679
SWIDTH 551 0
DWIDTH 16 0
BBX 11 24 2 -5
BITMAP
00E0
61E0
6300
6300
6300
FF00
FF00
6300
6300
6300
6300
6300
6300
6300
6300
6300
6300
3F00
3F00
0300
0300
0300
0E00
0E00
ENDCHAR
STARTCHAR char680
ENCODING 680
SWIDTH 551 0
DWIDTH 16 0
BBX 11 20 2 -2
BITMAP
6000
6000
6000
6000
F9C0
FBE0
6620
6400
6C00
6C00
6C00
6C00
6C00
6DC0
65C0
6760
3FE0
3BC0
0200
0200
ENDCHAR
STARTCHAR char681
ENCODING 681
SWIDTH 551 0
DWIDTH 16 0
BBX 11 24 2 -5
BITMAP
3800
7800
6000
4000
4000
FDC0
FFE0
4E60
4C20
4C20
4C20
4C20
4C20
4C20
4C20
4C20
4C20
4C20
4C20
0020
0020
0020
01E0
01C0
ENDCHAR
STARTCHAR char682
ENCODING 682
SWIDTH 551 0
DWIDTH 16 0
BBX 9 19 3 0
BITMAP
C000
C000
C000
C000
C000
DF00
FF80
F080
E000
E000
F000
FE00
DF00
C380
C180
C180
C180
FF80
FF00
ENDCHAR
STARTCHAR char683
ENCODING 683
SWIDTH 551 0
DWIDTH 16 0
BBX 9 19 3 0
BITMAP
8000
8000
8000
8000
8000
FF80
FF80
8180
8180
8300
8600
8600
8C00
9800
9800
B000
E000
FF80
FF80
ENDCHAR
STARTCHAR char684
ENCODING 684
SWIDTH 551 0
DWIDTH 16 0
BBX 11 16 2 0
BITMAP
8620
CE60
CA60
4A40
7B40
71C0
3180
3180
0000
8E20
CA60
4A60
4A40
79C0
71C0
3180
ENDCHAR
STARTCHAR char685
ENCODING 685
SWIDTH 551 0
DWIDTH 16 0
BBX 11 14 2 2
BITMAP
FFE0
FFE0
8020
8020
8020
0000
0000
0000
0000
FFE0
FFE0
8020
8020
8020
ENDCHAR
STARTCHAR char686
ENCODING 686
SWIDTH 551 0
DWIDTH 16 0
BBX 11 24 2 -5
BITMAP
E000
E000
3000
3000
3000
3060
3060
3060
3060
3060
3060
3060
3060
3060
3060
3060
18E0
1FE0
0F60
0060
0060
0060
0060
0060
ENDCHAR
STARTCHAR char687
ENCODING 687
SWIDTH 551 0
DWIDTH 16 0
BBX 11 24 2 -5
BITMAP
C000
E000
2000
2000
2000
2080
2080
2080
2080
2080
2080
2080
2080
2080
2180
3180
3180
1E80
1E80
0080
0080
0080
00E0
0060
ENDCHAR
STARTCHAR char688
ENCODING 688
SWIDTH 551 0
DWIDTH 16 0
BBX 7 11 4 8
BITMAP
80
80
80
BC
C6
C2
82
82
82
82
82
ENDCHAR
STARTCHAR char689
ENCODING 689
SWIDTH 551 0
DWIDTH 16 0
BBX 7 11 4 8
BITMAP
78
C0
80
BC
C6
C2
82
82
82
82
82
ENDCHAR
STARTCHAR char690
ENCODING 690
SWIDTH 551 0
DWIDTH 16 0
BBX 3 14 6 5
BITMAP
20
20
00
20
20
20
20
20
20
20
20
20
60
C0
ENDCHAR
STARTCHAR char691
ENCODING 691
SWIDTH 551 0
DWIDTH 16 0
BBX 5 8 5 8
BITMAP
B8
C0
C0
80
80
80
80
80
ENDCHAR
STARTCHAR char692
ENCODING 692
SWIDTH 551 0
DWIDTH 16 0
BBX 5 8 5 8
BITMAP
08
08
08
08
08
18
18
E8
ENDCHAR
STARTCHAR char693
ENCODING 693
SWIDTH 551 0
DWIDTH 16 0
BBX 7 11 4 5
BITMAP
08
08
08
08
08
18
18
E8
08
0C
06
ENDCHAR
STARTCHAR char694
ENCODING 694
SWIDTH 551 0
DWIDTH 16 0
BBX 7 8 4 8
BITMAP
82
84
8C
F8
9C
84
8C
F8
ENDCHAR
STARTCHAR char695
ENCODING 695
SWIDTH 551 0
DWIDTH 16 0
BBX 11 8 2 8
BITMAP
8420
CE60
CA60
4A40
5B40
71C0
3180
3180
ENDCHAR
STARTCHAR char696
ENCODING 696
SWIDTH 551 0
DWIDTH 16 0
BBX 9 11 3 5
BITMAP
C180
4100
6300
2200
3600
1400
1C00
0800
1800
1000
6000
ENDCHAR
STARTCHAR char697
ENCODING 697
SWIDTH 551 0
DWIDTH 16 0
BBX 3 6 6 14
BITMAP
60
60
E0
C0
C0
C0
ENDCHAR
STARTCHAR char699
ENCODING 699
SWIDTH 551 0
DWIDTH 16 0
BBX 4 7 6 12
BITMAP
30
70
60
E0
E0
E0
E0
ENDCHAR
STARTCHAR char700
ENCODING 700
SWIDTH 551 0
DWIDTH 16 0
BBX 4 7 6 12
BITMAP
70
70
70
60
E0
C0
C0
ENDCHAR
STARTCHAR char701
ENCODING 701
SWIDTH 551 0
DWIDTH 16 0
BBX 3 6 6 15
BITMAP
E0
E0
E0
C0
E0
60
ENDCHAR
STARTCHAR char702
ENCODING 702
SWIDTH 551 0
DWIDTH 16 0
BBX 3 7 6 12
BITMAP
C0
E0
60
20
60
C0
80
ENDCHAR
STARTCHAR char703
ENCODING 703
SWIDTH 551 0
DWIDTH 16 0
BBX 3 7 6 12
BITMAP
60
E0
C0
80
C0
60
20
ENDCHAR
STARTCHAR char704
ENCODING 704
SWIDTH 551 0
DWIDTH 16 0
BBX 7 11 4 11
BITMAP
70
8C
06
06
06
3C
30
30
30
30
30
ENDCHAR
STARTCHAR char705
ENCODING 705
SWIDTH 551 0
DWIDTH 16 0
BBX 7 11 4 11
BITMAP
1C
62
C0
C0
C0
78
18
18
18
18
18
ENDCHAR
STARTCHAR char710
ENCODING 710
SWIDTH 551 0
DWIDTH 16 0
BBX 7 5 4 15
BITMAP
38
38
6C
46
C6
ENDCHAR
STARTCHAR char711
ENCODING 711
SWIDTH 551 0
DWIDTH 16 0
BBX 7 5 4 15
BITMAP
C6
46
6C
38
38
ENDCHAR
STARTCHAR char712
ENCODING 712
SWIDTH 551 0
DWIDTH 16 0
BBX 1 7 7 12
BITMAP
80
80
80
80
80
80
80
ENDCHAR
STARTCHAR char713
ENCODING 713
SWIDTH 551 0
DWIDTH 16 0
BBX 7 2 4 17
BITMAP
FE
FE
ENDCHAR
STARTCHAR char716
ENCODING 716
SWIDTH 551 0
DWIDTH 16 0
BBX 1 7 7 -4
BITMAP
80
80
80
80
80
80
80
ENDCHAR
STARTCHAR char717
ENCODING 717
SWIDTH 551 0
DWIDTH 16 0
BBX 7 2 4 -5
BITMAP
FE
FE
ENDCHAR
STARTCHAR char718
ENCODING 718
SWIDTH 551 0
DWIDTH 16 0
BBX 5 5 5 -8
BITMAP
C0
60
70
30
18
ENDCHAR
STARTCHAR char719
ENCODING 719
SWIDTH 551 0
DWIDTH 16 0
BBX 5 5 5 -8
BITMAP
18
30
70
60
C0
ENDCHAR
STARTCHAR char720
ENCODING 720
SWIDTH 551 0
DWIDTH 16 0
BBX 3 13 6 0
BITMAP
E0
E0
40
40
00
00
00
00
00
40
40
E0
E0
ENDCHAR
STARTCHAR char721
ENCODING 721
SWIDTH 551 0
DWIDTH 16 0
BBX 3 4 6 9
BITMAP
E0
E0
40
40
ENDCHAR
STARTCHAR char722
ENCODING 722
SWIDTH 551 0
DWIDTH 16 0
BBX 3 7 6 6
BITMAP
C0
E0
60
20
60
C0
80
ENDCHAR
STARTCHAR char723
ENCODING 723
SWIDTH 551 0
DWIDTH 16 0
BBX 3 7 6 6
BITMAP
60
E0
C0
80
C0
60
20
ENDCHAR
STARTCHAR char726
ENCODING 726
SWIDTH 551 0
DWIDTH 16 0
BBX 7 7 4 3
BITMAP
10
10
FE
FE
10
10
10
ENDCHAR
STARTCHAR char727
ENCODING 727
SWIDTH 551 0
DWIDTH 16 0
BBX 5 2 5 6
BITMAP
F8
F8
ENDCHAR
STARTCHAR char728
ENCODING 728
SWIDTH 551 0
DWIDTH 16 0
BBX 7 4 4 16
BITMAP
82
C6
FE
7C
ENDCHAR
STARTCHAR char729
ENCODING 729
SWIDTH 551 0
DWIDTH 16 0
BBX 3 3 6 16
BITMAP
E0
E0
E0
ENDCHAR
STARTCHAR char730
ENCODING 730
SWIDTH 551 0
DWIDTH 16 0
BBX 7 7 4 15
BITMAP
38
7C
C6
C6
C6
7C
38
ENDCHAR
STARTCHAR char731
ENCODING 731
SWIDTH 551 0
DWIDTH 16 0
BBX 5 5 5 -5
BITMAP
60
C0
C0
F8
78
ENDCHAR
STARTCHAR char732
ENCODING 732
SWIDTH 551 0
DWIDTH 16 0
BBX 8 4 4 15
BITMAP
63
F2
9E
8C
ENDCHAR
STARTCHAR char733
ENCODING 733
SWIDTH 551 0
DWIDTH 16 0
BBX 8 5 4 15
BITMAP
33
33
66
66
CC
ENDCHAR
STARTCHAR char734
ENCODING 734
SWIDTH 551 0
DWIDTH 16 0
BBX 15 7 -4 6
BITMAP
01C0
1FC0
FFC0
E1C0
00C0
00FE
007E
ENDCHAR
STARTCHAR char736
ENCODING 736
SWIDTH 551 0
DWIDTH 16 0
BBX 7 11 4 5
BITMAP
C2
44
6C
38
38
28
44
44
C6
EE
38
ENDCHAR
STARTCHAR char737
ENCODING 737
SWIDTH 551 0
DWIDTH 16 0
BBX 7 11 4 8
BITMAP
F0
30
30
30
30
30
30
30
30
18
0E
ENDCHAR
STARTCHAR char738
ENCODING 738
SWIDTH 551 0
DWIDTH 16 0
BBX 7 8 4 8
BITMAP
7C
C0
C0
78
0E
06
86
78
ENDCHAR
STARTCHAR char739
ENCODING 739
SWIDTH 551 0
DWIDTH 16 0
BBX 7 8 4 8
BITMAP
C2
44
2C
38
38
6C
C6
82
ENDCHAR
STARTCHAR char740
ENCODING 740
SWIDTH 551 0
DWIDTH 16 0
BBX 7 11 4 8
BITMAP
3C
62
C0
C0
C0
78
18
18
18
18
18
ENDCHAR
STARTCHAR char741
ENCODING 741
SWIDTH 551 0
DWIDTH 16 0
BBX 7 17 4 0
BITMAP
FE
FE
02
02
02
02
02
02
02
02
02
02
02
02
02
02
02
ENDCHAR
STARTCHAR char742
ENCODING 742
SWIDTH 551 0
DWIDTH 16 0
BBX 7 17 4 0
BITMAP
02
02
02
02
FE
FE
02
02
02
02
02
02
02
02
02
02
02
ENDCHAR
STARTCHAR char743
ENCODING 743
SWIDTH 551 0
DWIDTH 16 0
BBX 7 17 4 0
BITMAP
02
02
02
02
02
02
02
02
FE
02
02
02
02
02
02
02
02
ENDCHAR
STARTCHAR char744
ENCODING 744
SWIDTH 551 0
DWIDTH 16 0
BBX 7 17 4 0
BITMAP
02
02
02
02
02
02
02
02
02
02
02
02
FE
02
02
02
02
ENDCHAR
STARTCHAR char745
ENCODING 745
SWIDTH 551 0
DWIDTH 16 0
BBX 7 17 4 0
BITMAP
02
02
02
02
02
02
02
02
02
02
02
02
02
02
02
FE
FE
ENDCHAR
STARTCHAR char750
ENCODING 750
SWIDTH 551 0
DWIDTH 16 0
BBX 9 7 3 12
BITMAP
7380
7380
7380
E380
E300
C300
C600
ENDCHAR
STARTCHAR char755
ENCODING 755
SWIDTH 551 0
DWIDTH 16 0
BBX 5 5 5 -6
BITMAP
70
88
88
88
70
ENDCHAR
STARTCHAR char768
ENCODING 768
SWIDTH 551 0
DWIDTH 16 0
BBX 5 5 4 15
BITMAP
C0
60
70
30
18
ENDCHAR
STARTCHAR char769
ENCODING 769
SWIDTH 551 0
DWIDTH 16 0
BBX 5 5 6 15
BITMAP
18
30
70
60
C0
ENDCHAR
STARTCHAR char770
ENCODING 770
SWIDTH 551 0
DWIDTH 16 0
BBX 7 5 4 15
BITMAP
38
38
6C
46
C6
ENDCHAR
STARTCHAR char771
ENCODING 771
SWIDTH 551 0
DWIDTH 16 0
BBX 8 4 4 15
BITMAP
63
F2
9E
8C
ENDCHAR
STARTCHAR char772
ENCODING 772
SWIDTH 551 0
DWIDTH 16 0
BBX 7 2 4 17
BITMAP
FE
FE
ENDCHAR
STARTCHAR char773
ENCODING 773
SWIDTH 551 0
DWIDTH 16 0
BBX 15 2 0 18
BITMAP
FFFE
FFFE
ENDCHAR
STARTCHAR char774
ENCODING 774
SWIDTH 551 0
DWIDTH 16 0
BBX 7 4 4 16
BITMAP
82
C6
FE
7C
ENDCHAR
STARTCHAR char775
ENCODING 775
SWIDTH 551 0
DWIDTH 16 0
BBX 3 3 6 16
BITMAP
E0
E0
E0
ENDCHAR
STARTCHAR char776
ENCODING 776
SWIDTH 551 0
DWIDTH 16 0
BBX 7 3 4 16
BITMAP
C6
C6
C6
ENDCHAR
STARTCHAR char777
ENCODING 777
SWIDTH 551 0
DWIDTH 16 0
BBX 5 6 5 15
BITMAP
F0
98
18
18
20
20
ENDCHAR
STARTCHAR char778
ENCODING 778
SWIDTH 551 0
DWIDTH 16 0
BBX 7 7 4 15
BITMAP
38
7C
C6
C6
C6
7C
38
ENDCHAR
STARTCHAR char779
ENCODING 779
SWIDTH 551 0
DWIDTH 16 0
BBX 8 5 4 15
BITMAP
33
33
66
66
CC
ENDCHAR
STARTCHAR char780
ENCODING 780
SWIDTH 551 0
DWIDTH 16 0
BBX 7 5 4 15
BITMAP
C6
46
6C
38
38
ENDCHAR
STARTCHAR char781
ENCODING 781
SWIDTH 551 0
DWIDTH 16 0
BBX 1 6 7 15
BITMAP
80
80
80
80
80
80
ENDCHAR
STARTCHAR char782
ENCODING 782
SWIDTH 551 0
DWIDTH 16 0
BBX 5 6 5 15
BITMAP
88
88
88
88
88
88
ENDCHAR
STARTCHAR char783
ENCODING 783
SWIDTH 551 0
DWIDTH 16 0
BBX 8 5 3 15
BITMAP
CC
66
66
33
13
ENDCHAR
STARTCHAR char784
ENCODING 784
SWIDTH 551 0
DWIDTH 16 0
BBX 7 5 4 16
BITMAP
38
BA
FE
FE
7C
ENDCHAR
STARTCHAR char785
ENCODING 785
SWIDTH 551 0
DWIDTH 16 0
BBX 7 4 4 16
BITMAP
10
7C
C6
82
ENDCHAR
STARTCHAR char786
ENCODING 786
SWIDTH 551 0
DWIDTH 16 0
BBX 4 4 6 12
BITMAP
30
60
60
E0
ENDCHAR
STARTCHAR char787
ENCODING 787
SWIDTH 551 0
DWIDTH 16 0
BBX 3 6 6 15
BITMAP
E0
E0
E0
60
60
C0
ENDCHAR
STARTCHAR char788
ENCODING 788
SWIDTH 551 0
DWIDTH 16 0
BBX 3 6 6 15
BITMAP
E0
E0
E0
C0
E0
60
ENDCHAR
STARTCHAR char789
ENCODING 789
SWIDTH 551 0
DWIDTH 16 0
BBX 3 5 6 15
BITMAP
60
E0
C0
C0
C0
ENDCHAR
STARTCHAR char790
ENCODING 790
SWIDTH 551 0
DWIDTH 16 0
BBX 5 5 5 -8
BITMAP
C0
60
70
30
18
ENDCHAR
STARTCHAR char791
ENCODING 791
SWIDTH 551 0
DWIDTH 16 0
BBX 5 5 5 -8
BITMAP
18
30
70
60
C0
ENDCHAR
STARTCHAR char792
ENCODING 792
SWIDTH 551 0
DWIDTH 16 0
BBX 4 6 5 -9
BITMAP
30
30
30
F0
30
30
ENDCHAR
STARTCHAR char793
ENCODING 793
SWIDTH 551 0
DWIDTH 16 0
BBX 3 6 6 -9
BITMAP
80
80
80
E0
80
80
ENDCHAR
STARTCHAR char794
ENCODING 794
SWIDTH 551 0
DWIDTH 16 0
BBX 6 6 5 17
BITMAP
FC
0C
0C
0C
0C
0C
ENDCHAR
STARTCHAR char795
ENCODING 795
SWIDTH 551 0
DWIDTH 16 0
BBX 5 5 5 9
BITMAP
18
18
98
F8
30
ENDCHAR
STARTCHAR char796
ENCODING 796
SWIDTH 551 0
DWIDTH 16 0
BBX 3 5 6 -6
BITMAP
60
C0
80
C0
60
ENDCHAR
STARTCHAR char797
ENCODING 797
SWIDTH 551 0
DWIDTH 16 0
BBX 6 4 4 -7
BITMAP
30
30
30
FC
ENDCHAR
STARTCHAR char798
ENCODING 798
SWIDTH 551 0
DWIDTH 16 0
BBX 6 4 4 -7
BITMAP
FC
FC
30
30
ENDCHAR
STARTCHAR char799
ENCODING 799
SWIDTH 551 0
DWIDTH 16 0
BBX 6 6 4 -9
BITMAP
30
30
30
FC
30
30
ENDCHAR
STARTCHAR char800
ENCODING 800
SWIDTH 551 0
DWIDTH 16 0
BBX 6 2 5 -5
BITMAP
FC
FC
ENDCHAR
STARTCHAR char801
ENCODING 801
SWIDTH 551 0
DWIDTH 16 0
BBX 7 7 6 -5
BITMAP
06
06
06
0E
0E
FC
F8
ENDCHAR
STARTCHAR char802
ENCODING 802
SWIDTH 551 0
DWIDTH 16 0
BBX 7 7 2 -5
BITMAP
C0
C0
C0
E0
60
7E
3E
ENDCHAR
STARTCHAR char803
ENCODING 803
SWIDTH 551 0
DWIDTH 16 0
BBX 3 3 6 -6
BITMAP
E0
E0
E0
ENDCHAR
STARTCHAR char804
ENCODING 804
SWIDTH 551 0
DWIDTH 16 0
BBX 7 3 4 -6
BITMAP
C6
C6
C6
ENDCHAR
STARTCHAR char805
ENCODING 805
SWIDTH 551 0
DWIDTH 16 0
BBX 5 5 5 -6
BITMAP
70
88
88
88
70
ENDCHAR
STARTCHAR char806
ENCODING 806
SWIDTH 551 0
DWIDTH 16 0
BBX 4 4 5 -7
BITMAP
70
60
E0
C0
ENDCHAR
STARTCHAR char807
ENCODING 807
SWIDTH 551 0
DWIDTH 16 0
BBX 5 5 5 -5
BITMAP
30
18
18
F8
F0
ENDCHAR
STARTCHAR char808
ENCODING 808
SWIDTH 551 0
DWIDTH 16 0
BBX 5 5 5 -5
BITMAP
60
C0
C0
F8
78
ENDCHAR
STARTCHAR char809
ENCODING 809
SWIDTH 551 0
DWIDTH 16 0
BBX 1 5 7 -8
BITMAP
80
80
80
80
80
ENDCHAR
STARTCHAR char810
ENCODING 810
SWIDTH 551 0
DWIDTH 16 0
BBX 7 4 4 -7
BITMAP
FE
C6
C6
C6
ENDCHAR
STARTCHAR char811
ENCODING 811
SWIDTH 551 0
DWIDTH 16 0
BBX 9 4 3 -6
BITMAP
8880
DD80
FF80
2200
ENDCHAR
STARTCHAR char812
ENCODING 812
SWIDTH 551 0
DWIDTH 16 0
BBX 7 5 4 -6
BITMAP
C6
46
6C
38
38
ENDCHAR
STARTCHAR char813
ENCODING 813
SWIDTH 551 0
DWIDTH 16 0
BBX 7 5 4 -6
BITMAP
38
38
6C
46
C6
ENDCHAR
STARTCHAR char814
ENCODING 814
SWIDTH 551 0
DWIDTH 16 0
BBX 7 4 4 -6
BITMAP
82
C6
FE
7C
ENDCHAR
STARTCHAR char815
ENCODING 815
SWIDTH 551 0
DWIDTH 16 0
BBX 7 4 4 -6
BITMAP
10
7C
C6
82
ENDCHAR
STARTCHAR char816
ENCODING 816
SWIDTH 551 0
DWIDTH 16 0
BBX 8 4 4 -6
BITMAP
63
F2
9E
8C
ENDCHAR
STARTCHAR char817
ENCODING 817
SWIDTH 551 0
DWIDTH 16 0
BBX 7 2 4 -5
BITMAP
FE
FE
ENDCHAR
STARTCHAR char818
ENCODING 818
SWIDTH 551 0
DWIDTH 16 0
BBX 15 2 0 -6
BITMAP
FFFE
FFFE
ENDCHAR
STARTCHAR char819
ENCODING 819
SWIDTH 551 0
DWIDTH 16 0
BBX 15 5 0 -6
BITMAP
FFFE
FFFE
0000
FFFE
FFFE
ENDCHAR
STARTCHAR char820
ENCODING 820
SWIDTH 551 0
DWIDTH 16 0
BBX 13 4 1 6
BITMAP
3C08
FF18
C3F8
80E0
ENDCHAR
STARTCHAR char821
ENCODING 821
SWIDTH 551 0
DWIDTH 16 0
BBX 11 2 2 6
BITMAP
FFE0
FFE0
ENDCHAR
STARTCHAR char822
ENCODING 822
SWIDTH 551 0
DWIDTH 16 0
BBX 15 2 0 6
BITMAP
FFFE
FFFE
ENDCHAR
STARTCHAR char823
ENCODING 823
SWIDTH 551 0
DWIDTH 16 0
BBX 13 16 1 -1
BITMAP
0008
0018
0030
0060
0060
00C0
0180
0300
0600
0C00
0800
1800
3000
6000
C000
8000
ENDCHAR
STARTCHAR char824
ENCODING 824
SWIDTH 551 0
DWIDTH 16 0
BBX 14 20 0 -1
BITMAP
0004
000C
000C
0018
0030
0020
0060
00C0
0180
0180
0300
0600
0600
0C00
1800
1000
3000
6000
C000
4000
ENDCHAR
STARTCHAR char825
ENCODING 825
SWIDTH 551 0
DWIDTH 16 0
BBX 3 5 6 -6
BITMAP
C0
60
20
60
C0
ENDCHAR
STARTCHAR char826
ENCODING 826
SWIDTH 551 0
DWIDTH 16 0
BBX 7 4 4 -5
BITMAP
C6
C6
FE
FE
ENDCHAR
STARTCHAR char827
ENCODING 827
SWIDTH 551 0
DWIDTH 16 0
BBX 7 6 4 -9
BITMAP
FE
C6
C6
C6
C6
FE
ENDCHAR
STARTCHAR char828
ENCODING 828
SWIDTH 551 0
DWIDTH 16 0
BBX 10 4 3 -6
BITMAP
7700
FF80
8C80
88C0
ENDCHAR
STARTCHAR char829
ENCODING 829
SWIDTH 551 0
DWIDTH 16 0
BBX 5 5 5 15
BITMAP
D8
78
70
F8
88
ENDCHAR
STARTCHAR char830
ENCODING 830
SWIDTH 551 0
DWIDTH 16 0
BBX 3 6 6 15
BITMAP
E0
80
C0
60
60
E0
ENDCHAR
STARTCHAR char831
ENCODING 831
SWIDTH 551 0
DWIDTH 16 0
BBX 15 5 0 15
BITMAP
FFFE
FFFE
0000
FFFE
FFFE
ENDCHAR
STARTCHAR char835
ENCODING 835
SWIDTH 551 0
DWIDTH 16 0
BBX 3 6 6 15
BITMAP
E0
E0
E0
60
60
C0
ENDCHAR
STARTCHAR char856
ENCODING 856
SWIDTH 551 0
DWIDTH 16 0
BBX 3 3 12 16
BITMAP
E0
E0
E0
ENDCHAR
STARTCHAR char865
ENCODING 865
SWIDTH 551 0
DWIDTH 16 0
BBX 21 4 -3 19
BITMAP
002000
1FFFC0
7C01F0
E00038
ENDCHAR
STARTCHAR char884
ENCODING 884
SWIDTH 551 0
DWIDTH 16 0
BBX 3 6 6 14
BITMAP
60
60
E0
C0
C0
C0
ENDCHAR
STARTCHAR char885
ENCODING 885
SWIDTH 551 0
DWIDTH 16 0
BBX 3 6 6 -5
BITMAP
60
60
60
60
C0
C0
ENDCHAR
STARTCHAR char886
ENCODING 886
SWIDTH 551 0
DWIDTH 16 0
BBX 11 18 2 0
BITMAP
C0E0
C0E0
C1E0
C1E0
C360
C360
C360
C660
C660
CC60
CC60
DC60
D860
D860
F060
F060
E060
E060
ENDCHAR
STARTCHAR char887
ENCODING 887
SWIDTH 551 0
DWIDTH 16 0
BBX 11 14 2 0
BITMAP
E0E0
E0E0
E1E0
E1E0
E360
E760
E660
EC60
EC60
F860
F860
F060
F060
E060
ENDCHAR
STARTCHAR char890
ENCODING 890
SWIDTH 551 0
DWIDTH 16 0
BBX 2 4 7 -5
BITMAP
80
80
80
C0
ENDCHAR
STARTCHAR char891
ENCODING 891
SWIDTH 551 0
DWIDTH 16 0
BBX 11 14 2 0
BITMAP
7E00
FF80
83C0
01C0
00C0
00E0
00E0
00E0
00E0
00E0
81C0
C3C0
7F80
3E00
ENDCHAR
STARTCHAR char892
ENCODING 892
SWIDTH 551 0
DWIDTH 16 0
BBX 11 14 2 0
BITMAP
0F80
1FC0
3860
7020
6000
E380
E380
E380
E380
6000
7000
3820
1FE0
0FC0
ENDCHAR
STARTCHAR char893
ENCODING 893
SWIDTH 551 0
DWIDTH 16 0
BBX 11 14 2 0
BITMAP
7E00
FF80
83C0
01C0
00C0
1CE0
1CE0
1CE0
1CE0
00E0
81C0
C3C0
7F80
3E00
ENDCHAR
STARTCHAR char894
ENCODING 894
SWIDTH 551 0
DWIDTH 16 0
BBX 4 16 5 -3
BITMAP
70
70
70
70
00
00
00
00
00
70
70
70
70
60
E0
C0
ENDCHAR
STARTCHAR char895
ENCODING 895
SWIDTH 551 0
DWIDTH 16 0
BBX 11 18 1 0
BITMAP
0FE0
0FE0
00E0
00E0
00E0
00E0
00E0
00E0
00E0
00E0
00E0
00E0
00E0
00E0
80C0
E1C0
FF80
3F00
ENDCHAR
STARTCHAR char900
ENCODING 900
SWIDTH 551 0
DWIDTH 16 0
BBX 5 5 6 15
BITMAP
18
30
70
60
C0
ENDCHAR
STARTCHAR char901
ENCODING 901
SWIDTH 551 0
DWIDTH 16 0
BBX 7 9 4 16
BITMAP
06
0C
1C
18
30
00
C6
C6
C6
ENDCHAR
STARTCHAR char902
ENCODING 902
SWIDTH 551 0
DWIDTH 16 0
BBX 13 20 1 0
BITMAP
1800
3000
7700
6700
CD80
0D80
0D80
1CC0
18C0
18C0
38E0
3060
3060
7FF0
7FF0
6030
6038
E038
C018
C018
ENDCHAR
STARTCHAR char903
ENCODING 903
SWIDTH 551 0
DWIDTH 16 0
BBX 3 4 6 7
BITMAP
E0
E0
E0
E0
ENDCHAR
STARTCHAR char904
ENCODING 904
SWIDTH 551 0
DWIDTH 16 0
BBX 16 20 -3 0
BITMAP
1800
3000
77FF
67FF
C700
0700
0700
0700
0700
07FF
07FF
0700
0700
0700
0700
0700
0700
0700
07FF
07FF
ENDCHAR
STARTCHAR char905
ENCODING 905
SWIDTH 551 0
DWIDTH 16 0
BBX 16 20 -3 0
BITMAP
1800
3000
7603
6603
C603
0603
0603
0603
0603
07FF
07FF
0603
0603
0603
0603
0603
0603
0603
0603
0603
ENDCHAR
STARTCHAR char906
ENCODING 906
SWIDTH 551 0
DWIDTH 16 0
BBX 16 20 -3 0
BITMAP
1800
3000
77FF
67FF
C070
0070
0070
0070
0070
0070
0070
0070
0070
0070
0070
0070
0070
0070
07FF
07FF
ENDCHAR
STARTCHAR char908
ENCODING 908
SWIDTH 551 0
DWIDTH 16 0
BBX 15 20 -1 0
BITMAP
1800
3000
73E0
67F0
CE38
1C1C
180C
180C
180C
380E
380E
380E
380E
180C
180C
180C
1C1C
0E38
0FF8
03E0
ENDCHAR
STARTCHAR char910
ENCODING 910
SWIDTH 551 0
DWIDTH 16 0
BBX 19 20 -5 0
BITMAP
180000
300000
730060
6380E0
C180C0
00C1C0
00E380
006300
007700
003600
003E00
001C00
001C00
001C00
001C00
001C00
001C00
001C00
001C00
001C00
ENDCHAR
STARTCHAR char911
ENCODING 911
SWIDTH 551 0
DWIDTH 16 0
BBX 14 20 0 0
BITMAP
1800
3000
7000
67C0
DFF0
1C70
3838
3018
701C
700C
600C
600C
701C
701C
3018
3018
1830
1C70
7EFC
7EFC
ENDCHAR
STARTCHAR char912
ENCODING 912
SWIDTH 551 0
DWIDTH 16 0
BBX 8 25 4 0
BITMAP
06
0C
1C
18
30
00
C6
C6
C6
00
00
F8
F8
38
38
38
38
38
38
38
38
38
18
1F
0F
ENDCHAR
STARTCHAR char913
ENCODING 913
SWIDTH 551 0
DWIDTH 16 0
BBX 13 18 1 0
BITMAP
0700
0700
0D80
0D80
0D80
1CC0
18C0
18C0
38E0
3060
3060
7FF0
7FF0
6030
6038
E038
C018
C018
ENDCHAR
STARTCHAR char914
ENCODING 914
SWIDTH 551 0
DWIDTH 16 0
BBX 12 18 2 0
BITMAP
FF00
FFC0
E0E0
E060
E060
E060
E0E0
FFC0
FFC0
E0E0
E060
E070
E070
E070
E070
E0E0
FFC0
FF80
ENDCHAR
STARTCHAR char915
ENCODING 915
SWIDTH 551 0
DWIDTH 16 0
BBX 11 18 3 0
BITMAP
FFE0
FFE0
C000
C000
C000
C000
C000
C000
C000
C000
C000
C000
C000
C000
C000
C000
C000
C000
ENDCHAR
STARTCHAR char916
ENCODING 916
SWIDTH 551 0
DWIDTH 16 0
BBX 13 18 1 0
BITMAP
0700
0700
0D80
0D80
0D80
1DC0
18C0
18C0
38E0
3060
3060
7070
7070
6030
6038
E038
FFF8
FFF8
ENDCHAR
STARTCHAR char917
ENCODING 917
SWIDTH 551 0
DWIDTH 16 0
BBX 11 18 2 0
BITMAP
FFE0
FFE0
E000
E000
E000
E000
E000
FFE0
FFE0
E000
E000
E000
E000
E000
E000
E000
FFE0
FFE0
ENDCHAR
STARTCHAR char918
ENCODING 918
SWIDTH 551 0
DWIDTH 16 0
BBX 12 18 2 0
BITMAP
FFF0
FFF0
0070
00E0
00C0
01C0
0380
0300
0700
0E00
0C00
1C00
3800
3000
7000
E000
FFF0
FFF0
ENDCHAR
STARTCHAR char919
ENCODING 919
SWIDTH 551 0
DWIDTH 16 0
BBX 11 18 2 0
BITMAP
C060
C060
C060
C060
C060
C060
C060
FFE0
FFE0
C060
C060
C060
C060
C060
C060
C060
C060
C060
ENDCHAR
STARTCHAR char920
ENCODING 920
SWIDTH 551 0
DWIDTH 16 0
BBX 13 18 1 0
BITMAP
0F80
1FC0
38E0
7070
6030
6030
6030
EFB8
EFB8
E038
E038
6030
6030
6030
7070
38E0
3FE0
0F80
ENDCHAR
STARTCHAR char921
ENCODING 921
SWIDTH 551 0
DWIDTH 16 0
BBX 11 18 2 0
BITMAP
FFE0
FFE0
0E00
0E00
0E00
0E00
0E00
0E00
0E00
0E00
0E00
0E00
0E00
0E00
0E00
0E00
FFE0
FFE0
ENDCHAR
STARTCHAR char922
ENCODING 922
SWIDTH 551 0
DWIDTH 16 0
BBX 13 18 2 0
BITMAP
C070
C0E0
C1C0
C380
C300
C600
CC00
DC00
FC00
FE00
E700
C300
C380
C1C0
C0E0
C0E0
C070
C038
ENDCHAR
STARTCHAR char923
ENCODING 923
SWIDTH 551 0
DWIDTH 16 0
BBX 13 18 1 0
BITMAP
0700
0700
0D80
0D80
0D80
1CC0
18C0
18C0
38E0
3060
3060
7070
7070
6030
6038
E038
C018
C018
ENDCHAR
STARTCHAR char924
ENCODING 924
SWIDTH 551 0
DWIDTH 16 0
BBX 13 18 1 0
BITMAP
F078
F078
D078
D8D8
D8D8
C898
CD98
CD98
C518
C718
C718
C018
C018
C018
C018
C018
C018
C018
ENDCHAR
STARTCHAR char925
ENCODING 925
SWIDTH 551 0
DWIDTH 16 0
BBX 11 18 2 0
BITMAP
E060
E060
F060
F060
D860
D860
DC60
CC60
CC60
C660
C660
C360
C360
C360
C1E0
C1E0
C0E0
C0E0
ENDCHAR
STARTCHAR char926
ENCODING 926
SWIDTH 551 0
DWIDTH 16 0
BBX 11 18 2 0
BITMAP
FFE0
FFE0
0000
0000
0000
0000
0000
3F80
3F80
0000
0000
0000
0000
0000
0000
0000
FFE0
FFE0
ENDCHAR
STARTCHAR char927
ENCODING 927
SWIDTH 551 0
DWIDTH 16 0
BBX 13 18 1 0
BITMAP
0F80
1FC0
38E0
7070
6030
6030
6030
E038
E038
E038
E038
6030
6030
6030
7070
38E0
3FE0
0F80
ENDCHAR
STARTCHAR char928
ENCODING 928
SWIDTH 551 0
DWIDTH 16 0
BBX 11 18 2 0
BITMAP
FFE0
FFE0
C060
C060
C060
C060
C060
C060
C060
C060
C060
C060
C060
C060
C060
C060
C060
C060
ENDCHAR
STARTCHAR char929
ENCODING 929
SWIDTH 551 0
DWIDTH 16 0
BBX 12 18 2 0
BITMAP
FF80
FFC0
E0E0
E070
E070
E070
E070
E070
E0E0
FFC0
FF80
E000
E000
E000
E000
E000
E000
E000
ENDCHAR
STARTCHAR char931
ENCODING 931
SWIDTH 551 0
DWIDTH 16 0
BBX 13 18 1 0
BITMAP
FFF8
FFF8
6000
3000
3800
1C00
0E00
0600
0300
0300
0600
0E00
1C00
3800
3000
6000
FFF8
FFF8
ENDCHAR
STARTCHAR char932
ENCODING 932
SWIDTH 551 0
DWIDTH 16 0
BBX 13 18 1 0
BITMAP
FFF8
FFF8
0700
0700
0700
0700
0700
0700
0700
0700
0700
0700
0700
0700
0700
0700
0700
0700
ENDCHAR
STARTCHAR char933
ENCODING 933
SWIDTH 551 0
DWIDTH 16 0
BBX 13 18 1 0
BITMAP
C018
E038
6030
3070
38E0
18C0
1DC0
0D80
0F80
0700
0700
0700
0700
0700
0700
0700
0700
0700
ENDCHAR
STARTCHAR char934
ENCODING 934
SWIDTH 551 0
DWIDTH 16 0
BBX 13 18 1 0
BITMAP
1FC0
1FC0
0700
1FC0
3FE0
7770
6730
6730
E738
E738
6738
6730
7770
3FE0
1FC0
0700
1FC0
1FC0
ENDCHAR
STARTCHAR char935
ENCODING 935
SWIDTH 551 0
DWIDTH 16 0
BBX 14 18 1 0
BITMAP
E038
7030
3070
3860
18E0
1DC0
0F80
0780
0700
0780
0F80
1DC0
18C0
3860
7070
6030
E038
C01C
ENDCHAR
STARTCHAR char936
ENCODING 936
SWIDTH 551 0
DWIDTH 16 0
BBX 13 18 1 0
BITMAP
E738
E738
E738
E738
E738
E738
6730
6730
6730
7770
3FE0
3FE0
0F80
0700
0700
0700
1FC0
1FC0
ENDCHAR
STARTCHAR char937
ENCODING 937
SWIDTH 551 0
DWIDTH 16 0
BBX 13 17 1 0
BITMAP
0F80
3FE0
38E0
7070
6030
E038
E018
C018
C018
E038
E038
6030
6030
3060
38E0
FDF8
FDF8
ENDCHAR
STARTCHAR char938
ENCODING 938
SWIDTH 551 0
DWIDTH 16 0
BBX 11 24 2 0
BITMAP
3180
3180
3180
0000
0000
0000
FFE0
FFE0
0E00
0E00
0E00
0E00
0E00
0E00
0E00
0E00
0E00
0E00
0E00
0E00
0E00
0E00
FFE0
FFE0
ENDCHAR
STARTCHAR char939
ENCODING 939
SWIDTH 551 0
DWIDTH 16 0
BBX 13 24 1 0
BITMAP
18C0
18C0
18C0
0000
0000
0000
C018
E038
6030
3070
38E0
18C0
1DC0
0D80
0F80
0700
0700
0700
0700
0700
0700
0700
0700
0700
ENDCHAR
STARTCHAR char940
ENCODING 940
SWIDTH 551 0
DWIDTH 16 0
BBX 13 20 1 0
BITMAP
00C0
0180
0380
0300
0600
0000
1E18
3FB0
71B0
E1F0
E0E0
C0E0
C0E0
C0C0
C0C0
C0E0
E1E0
61E0
7F78
3F38
ENDCHAR
STARTCHAR char941
ENCODING 941
SWIDTH 551 0
DWIDTH 16 0
BBX 11 20 2 0
BITMAP
0180
0300
0700
0600
0C00
0000
1F80
7FC0
7040
E000
6000
7000
1F00
7F00
F000
C000
C000
E020
7FE0
1FC0
ENDCHAR
STARTCHAR char942
ENCODING 942
SWIDTH 551 0
DWIDTH 16 0
BBX 11 25 2 -5
BITMAP
0180
0300
0700
0600
0C00
0000
E780
FFC0
F0C0
E0E0
E0E0
E060
E060
E060
E060
E060
E060
E060
E060
E060
0060
0060
0060
0060
0060
ENDCHAR
STARTCHAR char943
ENCODING 943
SWIDTH 551 0
DWIDTH 16 0
BBX 8 20 4 0
BITMAP
06
0C
1C
18
30
00
F8
F8
38
38
38
38
38
38
38
38
38
18
1F
0F
ENDCHAR
STARTCHAR char944
ENCODING 944
SWIDTH 551 0
DWIDTH 16 0
BBX 13 25 1 0
BITMAP
00C0
0180
0380
0300
0600
0000
18C0
18C0
18C0
0000
0000
F860
F870
3830
3830
3838
3838
3838
3838
3838
3830
3870
18E0
1FC0
0F80
ENDCHAR
STARTCHAR char945
ENCODING 945
SWIDTH 551 0
DWIDTH 16 0
BBX 13 14 1 0
BITMAP
1E18
3FB0
71B0
E1F0
E0E0
C0E0
C0E0
C0C0
C0C0
C0E0
E1E0
61E0
7F78
3F38
ENDCHAR
STARTCHAR char946
ENCODING 946
SWIDTH 551 0
DWIDTH 16 0
BBX 12 24 2 -4
BITMAP
3F00
7F80
E1C0
E0C0
C0C0
C0C0
C0C0
C1C0
CF80
CF80
C3E0
C060
C070
C070
C070
E060
F0E0
FFC0
DF80
C000
C000
C000
C000
C000
ENDCHAR
STARTCHAR char947
ENCODING 947
SWIDTH 551 0
DWIDTH 16 0
BBX 14 19 0 -5
BITMAP
C01C
F018
3018
1838
1830
1C30
0C70
0C60
0EE0
06C0
06C0
07C0
0380
0380
0380
0380
0380
0380
0380
ENDCHAR
STARTCHAR char948
ENCODING 948
SWIDTH 551 0
DWIDTH 16 0
BBX 11 19 2 0
BITMAP
1FC0
7FC0
7040
6000
6000
7F00
7FC0
71C0
E0E0
C060
C060
C060
C060
C060
C060
E0E0
60E0
7FC0
3F80
ENDCHAR
STARTCHAR char949
ENCODING 949
SWIDTH 551 0
DWIDTH 16 0
BBX 11 14 2 0
BITMAP
1F80
7FC0
7040
E000
6000
7000
1F00
7F00
F000
C000
C000
E020
7FE0
1FC0
ENDCHAR
STARTCHAR char950
ENCODING 950
SWIDTH 551 0
DWIDTH 16 0
BBX 11 24 2 -5
BITMAP
FFE0
FFE0
03E0
0780
0E00
1C00
3800
7000
6000
E000
C000
C000
C000
C000
E000
E000
7000
3F00
1FC0
00E0
0060
0060
01C0
01C0
ENDCHAR
STARTCHAR char951
ENCODING 951
SWIDTH 551 0
DWIDTH 16 0
BBX 11 19 2 -5
BITMAP
E780
FFC0
F0C0
E0E0
E0E0
E060
E060
E060
E060
E060
E060
E060
E060
E060
0060
0060
0060
0060
0060
ENDCHAR
STARTCHAR char952
ENCODING 952
SWIDTH 551 0
DWIDTH 16 0
BBX 11 19 2 0
BITMAP
1F00
3F80
71C0
60C0
E0E0
C060
C060
C060
FFE0
FFE0
C060
C060
C060
C060
E0E0
60C0
71C0
3F80
1F00
ENDCHAR
STARTCHAR char953
ENCODING 953
SWIDTH 551 0
DWIDTH 16 0
BBX 8 14 4 0
BITMAP
F8
F8
38
38
38
38
38
38
38
38
38
18
1F
0F
ENDCHAR
STARTCHAR char954
ENCODING 954
SWIDTH 551 0
DWIDTH 16 0
BBX 11 14 3 0
BITMAP
C0C0
C180
C300
C600
CC00
DC00
FC00
EE00
C700
C300
C380
C1C0
C0E0
C060
ENDCHAR
STARTCHAR char955
ENCODING 955
SWIDTH 551 0
DWIDTH 16 0
BBX 13 19 1 0
BITMAP
3800
3C00
0E00
0600
0700
0300
0300
0780
0780
0FC0
0CC0
1CC0
18E0
3860
3060
7070
6030
6038
C018
ENDCHAR
STARTCHAR char956
ENCODING 956
SWIDTH 551 0
DWIDTH 16 0
BBX 12 19 2 -5
BITMAP
E060
E060
E060
E060
E060
E060
E060
E060
E060
E0E0
E0E0
F1E0
DFF0
CF70
C000
C000
C000
C000
C000
ENDCHAR
STARTCHAR char957
ENCODING 957
SWIDTH 551 0
DWIDTH 16 0
BBX 12 14 1 0
BITMAP
E0C0
6060
6070
7030
3030
3030
3830
1870
1860
1CE0
0DC0
0D80
0F00
0E00
ENDCHAR
STARTCHAR char958
ENCODING 958
SWIDTH 551 0
DWIDTH 16 0
BBX 11 24 2 -5
BITMAP
7FC0
7FC0
1E00
7000
6000
6000
6000
7000
3F80
1F80
3F00
7000
C000
C000
C000
E000
7000
7F00
1FC0
00E0
0060
0060
01E0
01C0
ENDCHAR
STARTCHAR char959
ENCODING 959
SWIDTH 551 0
DWIDTH 16 0
BBX 11 14 2 0
BITMAP
1F00
7FC0
71C0
E0E0
C060
C060
C060
C060
C060
C060
E0E0
71C0
7FC0
1F00
ENDCHAR
STARTCHAR char960
ENCODING 960
SWIDTH 551 0
DWIDTH 16 0
BBX 13 14 1 0
BITMAP
FFF8
FFF8
FFF8
3060
3060
3060
3060
3060
3060
3060
3060
3060
3070
3038
ENDCHAR
STARTCHAR char961
ENCODING 961
SWIDTH 551 0
DWIDTH 16 0
BBX 12 19 2 -5
BITMAP
1F00
3FC0
70C0
60E0
6060
E060
E070
E070
E060
E060
E0E0
F0E0
FFC0
EF80
E000
E000
E000
E000
E000
ENDCHAR
STARTCHAR char962
ENCODING 962
SWIDTH 551 0
DWIDTH 16 0
BBX 11 19 2 -5
BITMAP
0FC0
1FE0
3820
7000
6000
E000
E000
E000
E000
6000
6000
7000
3E00
1FC0
00C0
0060
00E0
01C0
0180
ENDCHAR
STARTCHAR char963
ENCODING 963
SWIDTH 551 0
DWIDTH 16 0
BBX 12 14 2 0
BITMAP
1FF0
7FF0
7380
E0C0
C0E0
C060
C060
C060
C060
C060
E0E0
71C0
7F80
1F00
ENDCHAR
STARTCHAR char964
ENCODING 964
SWIDTH 551 0
DWIDTH 16 0
BBX 11 14 2 0
BITMAP
FFE0
FFE0
0E00
0E00
0E00
0E00
0E00
0E00
0E00
0E00
0E00
0600
07C0
03C0
ENDCHAR
STARTCHAR char965
ENCODING 965
SWIDTH 551 0
DWIDTH 16 0
BBX 13 14 1 0
BITMAP
F860
F870
3830
3830
3838
3838
3838
3838
3838
3830
3870
18E0
1FC0
0F80
ENDCHAR
STARTCHAR char966
ENCODING 966
SWIDTH 551 0
DWIDTH 16 0
BBX 13 19 1 -5
BITMAP
19C0
3BE0
7770
E738
E738
C718
C718
C718
C718
E738
6738
7770
3FE0
1FC0
0700
0700
0700
0700
0700
ENDCHAR
STARTCHAR char967
ENCODING 967
SWIDTH 551 0
DWIDTH 16 0
BBX 13 19 1 -5
BITMAP
C030
F070
3860
18E0
1CC0
0DC0
0D80
0780
0700
0700
0700
0700
0F80
0D80
1980
18C0
30C0
30F8
7078
ENDCHAR
STARTCHAR char968
ENCODING 968
SWIDTH 551 0
DWIDTH 16 0
BBX 11 19 2 -5
BITMAP
CE60
CE60
CE60
CE60
CE60
CE60
CE60
CE60
CE60
CE60
CE60
EEE0
7FC0
3F80
0E00
0E00
0E00
0E00
0E00
ENDCHAR
STARTCHAR char969
ENCODING 969
SWIDTH 551 0
DWIDTH 16 0
BBX 13 14 1 0
BITMAP
7070
6030
6030
E038
C018
C718
C718
C718
C718
C718
C718
E738
7DF0
7DF0
ENDCHAR
STARTCHAR char970
ENCODING 970
SWIDTH 551 0
DWIDTH 16 0
BBX 8 19 4 0
BITMAP
C6
C6
C6
00
00
F8
F8
38
38
38
38
38
38
38
38
38
18
1F
0F
ENDCHAR
STARTCHAR char971
ENCODING 971
SWIDTH 551 0
DWIDTH 16 0
BBX 13 19 1 0
BITMAP
18C0
18C0
18C0
0000
0000
F860
F870
3830
3830
3838
3838
3838
3838
3838
3830
3870
18E0
1FC0
0F80
ENDCHAR
STARTCHAR char972
ENCODING 972
SWIDTH 551 0
DWIDTH 16 0
BBX 11 20 2 0
BITMAP
0180
0300
0700
0600
0C00
0000
1F00
7FC0
71C0
E0E0
C060
C060
C060
C060
C060
C060
E0E0
71C0
7FC0
1F00
ENDCHAR
STARTCHAR char973
ENCODING 973
SWIDTH 551 0
DWIDTH 16 0
BBX 13 20 1 0
BITMAP
00C0
0180
0380
0300
0600
0000
F860
F870
3830
3830
3838
3838
3838
3838
3838
3830
3870
18E0
1FC0
0F80
ENDCHAR
STARTCHAR char974
ENCODING 974
SWIDTH 551 0
DWIDTH 16 0
BBX 13 20 1 0
BITMAP
00C0
0180
0380
0300
0600
0000
7070
6030
6030
E038
C018
C718
C718
C718
C718
C718
C718
E738
7DF0
7DF0
ENDCHAR
STARTCHAR char976
ENCODING 976
SWIDTH 551 0
DWIDTH 16 0
BBX 11 19 2 0
BITMAP
1F00
3F80
7BC0
60C0
E0C0
E0C0
C1C0
C3C0
FF80
FF80
C1C0
C0E0
C060
E060
E060
60E0
79E0
3FC0
1F80
ENDCHAR
STARTCHAR char977
ENCODING 977
SWIDTH 551 0
DWIDTH 16 0
BBX 12 19 1 0
BITMAP
0780
0FC0
1CE0
1870
1870
1830
1830
1C30
EFF0
E7F0
E030
E030
6030
6030
7070
7060
3DE0
1FC0
0F80
ENDCHAR
STARTCHAR char978
ENCODING 978
SWIDTH 551 0
DWIDTH 16 0
BBX 15 18 0 1
BITMAP
F83C
FC7E
0CEE
0ECC
06C0
0780
0380
0380
0380
0380
0380
0380
0380
0380
0380
0380
0380
0380
ENDCHAR
STARTCHAR char979
ENCODING 979
SWIDTH 551 0
DWIDTH 16 0
BBX 20 20 -5 0
BITMAP
180000
300000
77C1E0
67E3F0
C06770
007660
003600
003C00
001C00
001C00
001C00
001C00
001C00
001C00
001C00
001C00
001C00
001C00
001C00
001C00
ENDCHAR
STARTCHAR char980
ENCODING 980
SWIDTH 551 0
DWIDTH 16 0
BBX 15 24 0 0
BITMAP
0C60
0C60
0C60
0000
0000
0000
F83C
FC7E
0CEE
0ECC
06C0
0780
0380
0380
0380
0380
0380
0380
0380
0380
0380
0380
0380
0380
ENDCHAR
STARTCHAR char981
ENCODING 981
SWIDTH 551 0
DWIDTH 16 0
BBX 13 23 1 -5
BITMAP
0700
0700
0700
0700
0F80
3FE0
7770
7770
6730
E738
E738
E738
E738
6730
6730
7770
3FE0
1FC0
0700
0700
0700
0700
0700
ENDCHAR
STARTCHAR char982
ENCODING 982
SWIDTH 551 0
DWIDTH 16 0
BBX 13 14 1 0
BITMAP
FFF8
FFF8
FFF8
E038
E038
C018
C718
C718
C718
C718
E738
EDB8
7DF0
38F0
ENDCHAR
STARTCHAR char983
ENCODING 983
SWIDTH 551 0
DWIDTH 16 0
BBX 13 19 1 -6
BITMAP
6008
F838
9C78
0C70
0CF0
0CE0
0FC0
1F80
1D80
3980
7180
F188
E0F8
C078
0010
0030
0030
03E0
03C0
ENDCHAR
STARTCHAR char984
ENCODING 984
SWIDTH 551 0
DWIDTH 16 0
BBX 13 24 1 -5
BITMAP
0200
1FC0
3DE0
3060
7070
6030
6030
6030
E038
E038
E038
E038
6030
6030
6030
7070
3060
3FE0
1FC0
0700
0700
0700
0700
0700
ENDCHAR
STARTCHAR char985
ENCODING 985
SWIDTH 551 0
DWIDTH 16 0
BBX 11 19 2 -5
BITMAP
1F00
7FC0
71C0
E0E0
C060
C060
C060
C060
C060
C060
E0E0
60E0
7FC0
3F80
0E00
0E00
0E00
0E00
0E00
ENDCHAR
STARTCHAR char986
ENCODING 986
SWIDTH 551 0
DWIDTH 16 0
BBX 11 23 2 -5
BITMAP
1FE0
3FE0
7000
6000
E000
E000
C000
C000
C000
C000
C000
C000
E000
E000
E000
7000
3E00
1F80
0180
01C0
01C0
0380
0300
ENDCHAR
STARTCHAR char987
ENCODING 987
SWIDTH 551 0
DWIDTH 16 0
BBX 11 19 2 -5
BITMAP
07E0
3FE0
7800
6000
E000
C000
C000
C000
C000
E000
E000
7000
3C00
1F00
0380
0180
0180
0780
0700
ENDCHAR
STARTCHAR char988
ENCODING 988
SWIDTH 551 0
DWIDTH 16 0
BBX 11 18 3 0
BITMAP
FFE0
FFE0
C000
C000
C000
C000
C000
FFC0
FFC0
C000
C000
C000
C000
C000
C000
C000
C000
C000
ENDCHAR
STARTCHAR char989
ENCODING 989
SWIDTH 551 0
DWIDTH 16 0
BBX 13 24 0 -5
BITMAP
00F8
01F8
0300
0700
0700
0700
0700
0700
0700
07E0
0700
0700
0700
0700
0700
0700
0700
0700
0700
0600
0600
0E00
FC00
F800
ENDCHAR
STARTCHAR char990
ENCODING 990
SWIDTH 551 0
DWIDTH 16 0
BBX 13 18 1 0
BITMAP
F000
F800
3800
1800
3800
3018
3070
31F0
77B0
7E60
7860
6060
80C0
00C0
00C0
00E0
00F0
0070
ENDCHAR
STARTCHAR char991
ENCODING 991
SWIDTH 551 0
DWIDTH 16 0
BBX 11 19 2 0
BITMAP
1800
1800
3000
3000
3000
6000
6000
6000
FFE0
FFE0
00E0
00C0
00C0
01C0
0180
0180
0180
0380
0300
ENDCHAR
STARTCHAR char992
ENCODING 992
SWIDTH 551 0
DWIDTH 16 0
BBX 14 24 0 -5
BITMAP
0C00
7F80
FFE0
98E0
1870
1838
1878
18FC
19DC
198C
038C
038C
038C
038C
038C
038C
038C
038C
039C
001C
0018
0038
0038
0070
ENDCHAR
STARTCHAR char993
ENCODING 993
SWIDTH 551 0
DWIDTH 16 0
BBX 13 18 1 -4
BITMAP
E000
F800
1E00
0700
0300
0180
03C0
06C0
0EE0
0CE0
19F0
3330
7730
E630
0018
0018
0018
0018
ENDCHAR
STARTCHAR char1008
ENCODING 1008
SWIDTH 551 0
DWIDTH 16 0
BBX 13 14 1 0
BITMAP
6008
F838
9C78
0C70
0CF0
0CE0
0FC0
1F80
1D80
3980
7180
F188
E0F8
C078
ENDCHAR
STARTCHAR char1009
ENCODING 1009
SWIDTH 551 0
DWIDTH 16 0
BBX 12 19 2 -5
BITMAP
1F00
3FC0
70C0
60E0
6060
E060
E070
E070
E060
E060
E060
F0E0
FFC0
6F80
6000
6000
7000
3FE0
1FE0
ENDCHAR
STARTCHAR char1010
ENCODING 1010
SWIDTH 551 0
DWIDTH 16 0
BBX 11 14 2 0
BITMAP
0F80
1FC0
3860
7020
6000
E000
E000
E000
E000
6000
7000
3820
1FE0
0FC0
ENDCHAR
STARTCHAR char1011
ENCODING 1011
SWIDTH 551 0
DWIDTH 16 0
BBX 8 24 2 -5
BITMAP
07
07
07
00
00
7F
7F
07
07
07
07
07
07
07
07
07
07
07
07
07
06
06
FE
F8
ENDCHAR
STARTCHAR char1012
ENCODING 1012
SWIDTH 551 0
DWIDTH 16 0
BBX 13 19 1 0
BITMAP
0200
1FC0
3DE0
3060
7070
6030
6030
6030
FFF8
FFF8
E038
E038
6030
6030
6030
7070
3060
3FE0
1FC0
ENDCHAR
STARTCHAR char1013
ENCODING 1013
SWIDTH 551 0
DWIDTH 16 0
BBX 11 14 2 0
BITMAP
0FE0
3FE0
7800
6000
E000
C000
FFE0
FFE0
C000
E000
6000
7000
3FE0
1FE0
ENDCHAR
STARTCHAR char1014
ENCODING 1014
SWIDTH 551 0
DWIDTH 16 0
BBX 11 14 2 0
BITMAP
FC00
FF00
0380
01C0
00C0
00C0
FFE0
FFE0
00E0
00C0
01C0
0180
FF80
FE00
ENDCHAR
STARTCHAR char1015
ENCODING 1015
SWIDTH 551 0
DWIDTH 16 0
BBX 12 18 2 0
BITMAP
E000
E000
E000
FF80
FFE0
E0F0
E070
E030
E030
E070
E0F0
FFE0
FF80
E000
E000
E000
E000
E000
ENDCHAR
STARTCHAR char1016
ENCODING 1016
SWIDTH 551 0
DWIDTH 16 0
BBX 12 24 2 -5
BITMAP
E000
E000
E000
E000
E000
EF00
FFC0
F0C0
E0E0
E060
E060
E070
E070
E060
E060
E0E0
F0E0
FFC0
EF80
E000
E000
E000
E000
E000
ENDCHAR
STARTCHAR char1017
ENCODING 1017
SWIDTH 551 0
DWIDTH 16 0
BBX 11 18 2 0
BITMAP
0FC0
1FE0
3860
7020
E000
E000
C000
C000
C000
C000
C000
C000
E000
E000
7020
7860
3FE0
0FC0
ENDCHAR
STARTCHAR char1018
ENCODING 1018
SWIDTH 551 0
DWIDTH 16 0
BBX 13 18 1 0
BITMAP
F078
F078
D8D8
DDD8
CD98
C718
C718
C018
C018
C018
C018
C018
C018
C018
C018
C018
C018
C018
ENDCHAR
STARTCHAR char1019
ENCODING 1019
SWIDTH 551 0
DWIDTH 16 0
BBX 11 19 2 -5
BITMAP
E0E0
F1E0
F1E0
FBE0
DB60
DF60
CE60
C460
C060
C060
C060
C060
C060
C060
C000
C000
C000
C000
C000
ENDCHAR
STARTCHAR char1020
ENCODING 1020
SWIDTH 551 0
DWIDTH 16 0
BBX 13 19 1 -5
BITMAP
0F80
1FE0
3860
3070
3030
7030
7038
7038
7030
7030
7030
7870
7FE0
77C0
7000
7000
FF80
FF80
7000
ENDCHAR
STARTCHAR char1021
ENCODING 1021
SWIDTH 551 0
DWIDTH 16 0
BBX 11 19 2 0
BITMAP
1000
FF00
EF80
01C0
01C0
00C0
00E0
00E0
00E0
0060
00E0
00E0
00E0
00E0
00C0
01C0
8380
FF80
FE00
ENDCHAR
STARTCHAR char1022
ENCODING 1022
SWIDTH 551 0
DWIDTH 16 0
BBX 11 18 2 0
BITMAP
0FC0
1FE0
3860
7020
E000
E000
C000
C380
C380
C380
C380
C000
E000
E000
7020
7860
3FE0
0FC0
ENDCHAR
STARTCHAR char1023
ENCODING 1023
SWIDTH 551 0
DWIDTH 16 0
BBX 11 19 2 0
BITMAP
1000
FF00
EF80
01C0
01C0
00C0
00E0
00E0
38E0
3860
38E0
38E0
00E0
00E0
00C0
01C0
8380
FF80
FE00
ENDCHAR
STARTCHAR char1024
ENCODING 1024
SWIDTH 551 0
DWIDTH 16 0
BBX 11 23 2 0
BITMAP
1800
0C00
0600
0000
0000
FFE0
FFE0
E000
E000
E000
E000
E000
FFE0
FFE0
E000
E000
E000
E000
E000
E000
E000
FFE0
FFE0
ENDCHAR
STARTCHAR char1025
ENCODING 1025
SWIDTH 551 0
DWIDTH 16 0
BBX 11 24 2 0
BITMAP
18C0
18C0
18C0
0000
0000
0000
FFE0
FFE0
E000
E000
E000
E000
E000
FFE0
FFE0
E000
E000
E000
E000
E000
E000
E000
FFE0
FFE0
ENDCHAR
STARTCHAR char1026
ENCODING 1026
SWIDTH 551 0
DWIDTH 16 0
BBX 15 24 -1 -6
BITMAP
FFE0
FFE0
1C00
1C00
1C00
1C00
1C00
1DF8
1FFC
1E0E
1C0E
1C0E
1C0E
1C0E
1C0E
1C0E
1C0E
1C0E
000E
000E
000E
001C
00F8
00E0
ENDCHAR
STARTCHAR char1027
ENCODING 1027
SWIDTH 551 0
DWIDTH 16 0
BBX 11 23 3 0
BITMAP
0300
0600
0C00
0000
0000
FFE0
FFE0
C000
C000
C000
C000
C000
C000
C000
C000
C000
C000
C000
C000
C000
C000
C000
C000
ENDCHAR
STARTCHAR char1028
ENCODING 1028
SWIDTH 551 0
DWIDTH 16 0
BBX 11 18 2 0
BITMAP
0FC0
1FE0
3860
7020
E000
E000
E000
C000
FFC0
FFC0
C000
C000
E000
E000
7020
7860
3FE0
0FC0
ENDCHAR
STARTCHAR char1029
ENCODING 1029
SWIDTH 551 0
DWIDTH 16 0
BBX 11 18 2 0
BITMAP
1F80
7FC0
F0C0
C040
C000
C000
C000
F000
7F00
1FC0
01E0
0060
0060
0060
8060
E0E0
FFC0
7F00
ENDCHAR
STARTCHAR char1030
ENCODING 1030
SWIDTH 551 0
DWIDTH 16 0
BBX 11 18 2 0
BITMAP
FFE0
FFE0
0E00
0E00
0E00
0E00
0E00
0E00
0E00
0E00
0E00
0E00
0E00
0E00
0E00
0E00
FFE0
FFE0
ENDCHAR
STARTCHAR char1031
ENCODING 1031
SWIDTH 551 0
DWIDTH 16 0
BBX 11 24 2 0
BITMAP
3180
3180
3180
0000
0000
0000
FFE0
FFE0
0E00
0E00
0E00
0E00
0E00
0E00
0E00
0E00
0E00
0E00
0E00
0E00
0E00
0E00
FFE0
FFE0
ENDCHAR
STARTCHAR char1032
ENCODING 1032
SWIDTH 551 0
DWIDTH 16 0
BBX 11 18 1 0
BITMAP
0FE0
0FE0
00E0
00E0
00E0
00E0
00E0
00E0
00E0
00E0
00E0
00E0
00E0
00E0
80C0
E1C0
FF80
3F00
ENDCHAR
STARTCHAR char1033
ENCODING 1033
SWIDTH 551 0
DWIDTH 16 0
BBX 15 18 0 0
BITMAP
1FC0
1FC0
19C0
19C0
19C0
19C0
19C0
19F0
19F8
19DC
19CE
19C6
19C6
19C6
19CE
39DC
F1F8
E1F0
ENDCHAR
STARTCHAR char1034
ENCODING 1034
SWIDTH 551 0
DWIDTH 16 0
BBX 15 18 0 0
BITMAP
E1C0
E1C0
E1C0
E1C0
E1C0
E1C0
E1C0
FFF0
FFFC
E1DC
E1CE
E1C6
E1C6
E1C6
E1CE
E1DC
E1F8
E1F0
ENDCHAR
STARTCHAR char1035
ENCODING 1035
SWIDTH 551 0
DWIDTH 16 0
BBX 15 18 -1 0
BITMAP
FFE0
FFE0
1C00
1C00
1C00
1C00
1C00
1DF8
1FFC
1E0E
1C0E
1C0E
1C0E
1C0E
1C0E
1C0E
1C0E
1C0E
ENDCHAR
STARTCHAR char1036
ENCODING 1036
SWIDTH 551 0
DWIDTH 16 0
BBX 13 23 2 0
BITMAP
0300
0600
0C00
0000
0000
C070
C0E0
C1C0
C380
C300
C600
CC00
DC00
FC00
FE00
E700
C300
C380
C1C0
C0E0
C0E0
C070
C038
ENDCHAR
STARTCHAR char1037
ENCODING 1037
SWIDTH 551 0
DWIDTH 16 0
BBX 11 23 2 0
BITMAP
1800
0C00
0600
0000
0000
C0E0
C0E0
C1E0
C1E0
C360
C360
C360
C660
C660
CC60
CC60
DC60
D860
D860
F060
F060
E060
E060
ENDCHAR
STARTCHAR char1038
ENCODING 1038
SWIDTH 551 0
DWIDTH 16 0
BBX 13 23 1 0
BITMAP
18C0
1FC0
0F80
0000
0000
E038
6030
7030
3070
3860
38E0
18E0
1CC0
0DC0
0D80
0F80
0780
0700
0700
0600
0E00
7C00
7800
ENDCHAR
STARTCHAR char1039
ENCODING 1039
SWIDTH 551 0
DWIDTH 16 0
BBX 11 22 2 -4
BITMAP
C060
C060
C060
C060
C060
C060
C060
C060
C060
C060
C060
C060
C060
C060
C060
C060
FFE0
FFE0
0E00
0E00
0E00
0E00
ENDCHAR
STARTCHAR char1040
ENCODING 1040
SWIDTH 551 0
DWIDTH 16 0
BBX 13 18 1 0
BITMAP
0700
0700
0D80
0D80
0D80
1CC0
18C0
18C0
38E0
3060
3060
7FF0
7FF0
6030
6038
E038
C018
C018
ENDCHAR
STARTCHAR char1041
ENCODING 1041
SWIDTH 551 0
DWIDTH 16 0
BBX 12 18 2 0
BITMAP
FFE0
FFE0
E000
E000
E000
E000
E000
FF00
FFC0
E0E0
E070
E070
E070
E070
E070
E0E0
FFC0
FF80
ENDCHAR
STARTCHAR char1042
ENCODING 1042
SWIDTH 551 0
DWIDTH 16 0
BBX 12 18 2 0
BITMAP
FF00
FFC0
E0E0
E060
E060
E060
E0E0
FFC0
FFC0
E0E0
E060
E070
E070
E070
E070
E0E0
FFC0
FF80
ENDCHAR
STARTCHAR char1043
ENCODING 1043
SWIDTH 551 0
DWIDTH 16 0
BBX 11 18 3 0
BITMAP
FFE0
FFE0
C000
C000
C000
C000
C000
C000
C000
C000
C000
C000
C000
C000
C000
C000
C000
C000
ENDCHAR
STARTCHAR char1044
ENCODING 1044
SWIDTH 551 0
DWIDTH 16 0
BBX 15 22 0 -4
BITMAP
1FF8
1FF8
1818
1818
1818
1818
1818
1818
1818
1818
1818
3818
3818
3818
3818
3818
FFFE
FFFE
C006
C006
C006
C006
ENDCHAR
STARTCHAR char1045
ENCODING 1045
SWIDTH 551 0
DWIDTH 16 0
BBX 11 18 2 0
BITMAP
FFE0
FFE0
E000
E000
E000
E000
E000
FFE0
FFE0
E000
E000
E000
E000
E000
E000
E000
FFE0
FFE0
ENDCHAR
STARTCHAR char1046
ENCODING 1046
SWIDTH 551 0
DWIDTH 16 0
BBX 15 18 0 0
BITMAP
638C
739C
3398
3BB8
1BB8
1FF0
0FF0
0FE0
1FF0
1FF0
1BF0
3BB8
3398
3398
739C
638C
638C
E38E
ENDCHAR
STARTCHAR char1047
ENCODING 1047
SWIDTH 551 0
DWIDTH 16 0
BBX 11 18 2 0
BITMAP
3F00
FF80
C1C0
00E0
00E0
00E0
01C0
1F80
1F80
01C0
00E0
0060
0060
0060
00E0
81C0
FFC0
7F00
ENDCHAR
STARTCHAR char1048
ENCODING 1048
SWIDTH 551 0
DWIDTH 16 0
BBX 11 18 2 0
BITMAP
C0E0
C0E0
C1E0
C1E0
C360
C360
C360
C660
C660
CC60
CC60
DC60
D860
D860
F060
F060
E060
E060
ENDCHAR
STARTCHAR char1049
ENCODING 1049
SWIDTH 551 0
DWIDTH 16 0
BBX 11 23 2 0
BITMAP
3180
3F80
1F00
0000
0000
C0E0
C0E0
C1E0
C1E0
C360
C360
C360
C660
C660
CC60
CC60
DC60
D860
D860
F060
F060
E060
E060
ENDCHAR
STARTCHAR char1050
ENCODING 1050
SWIDTH 551 0
DWIDTH 16 0
BBX 13 18 2 0
BITMAP
C070
C0E0
C1C0
C380
C300
C600
CC00
DC00
FC00
FE00
E700
C300
C380
C1C0
C0E0
C0E0
C070
C038
ENDCHAR
STARTCHAR char1051
ENCODING 1051
SWIDTH 551 0
DWIDTH 16 0
BBX 13 18 0 0
BITMAP
1FF8
1FF8
1C18
1C18
1C18
1C18
1C18
1C18
1C18
1C18
1C18
1C18
1C18
1C18
1818
3818
F018
E018
ENDCHAR
STARTCHAR char1052
ENCODING 1052
SWIDTH 551 0
DWIDTH 16 0
BBX 13 18 1 0
BITMAP
F078
F078
D078
D8D8
D8D8
C898
CD98
CD98
C518
C718
C718
C018
C018
C018
C018
C018
C018
C018
ENDCHAR
STARTCHAR char1053
ENCODING 1053
SWIDTH 551 0
DWIDTH 16 0
BBX 11 18 2 0
BITMAP
C060
C060
C060
C060
C060
C060
C060
FFE0
FFE0
C060
C060
C060
C060
C060
C060
C060
C060
C060
ENDCHAR
STARTCHAR char1054
ENCODING 1054
SWIDTH 551 0
DWIDTH 16 0
BBX 13 18 1 0
BITMAP
0F80
1FC0
38E0
7070
6030
6030
6030
E038
E038
E038
E038
6030
6030
6030
7070
38E0
3FE0
0F80
ENDCHAR
STARTCHAR char1055
ENCODING 1055
SWIDTH 551 0
DWIDTH 16 0
BBX 11 18 2 0
BITMAP
FFE0
FFE0
C060
C060
C060
C060
C060
C060
C060
C060
C060
C060
C060
C060
C060
C060
C060
C060
ENDCHAR
STARTCHAR char1056
ENCODING 1056
SWIDTH 551 0
DWIDTH 16 0
BBX 12 18 2 0
BITMAP
FF80
FFC0
E0E0
E070
E070
E070
E070
E070
E0E0
FFC0
FF80
E000
E000
E000
E000
E000
E000
E000
ENDCHAR
STARTCHAR char1057
ENCODING 1057
SWIDTH 551 0
DWIDTH 16 0
BBX 11 18 2 0
BITMAP
0FC0
1FE0
3860
7020
E000
E000
C000
C000
C000
C000
C000
C000
E000
E000
7020
7860
3FE0
0FC0
ENDCHAR
STARTCHAR char1058
ENCODING 1058
SWIDTH 551 0
DWIDTH 16 0
BBX 13 18 1 0
BITMAP
FFF8
FFF8
0700
0700
0700
0700
0700
0700
0700
0700
0700
0700
0700
0700
0700
0700
0700
0700
ENDCHAR
STARTCHAR char1059
ENCODING 1059
SWIDTH 551 0
DWIDTH 16 0
BBX 13 18 1 0
BITMAP
E038
6030
7030
3070
3860
38E0
18E0
1CC0
0DC0
0D80
0F80
0780
0700
0700
0600
0E00
7C00
7800
ENDCHAR
STARTCHAR char1060
ENCODING 1060
SWIDTH 551 0
DWIDTH 16 0
BBX 13 18 1 0
BITMAP
0700
1FC0
7FF0
7770
E738
E738
C718
C718
C718
C718
C718
E738
E738
7770
3FF0
1FC0
0700
0700
ENDCHAR
STARTCHAR char1061
ENCODING 1061
SWIDTH 551 0
DWIDTH 16 0
BBX 14 18 1 0
BITMAP
E038
7030
3070
3860
18E0
1DC0
0F80
0780
0700
0780
0F80
1DC0
18C0
3860
7070
6030
E038
C01C
ENDCHAR
STARTCHAR char1062
ENCODING 1062
SWIDTH 551 0
DWIDTH 16 0
BBX 13 22 1 -4
BITMAP
C070
C070
C070
C070
C070
C070
C070
C070
C070
C070
C070
C070
C070
C070
C070
C070
FFF8
FFF8
0018
0018
0018
0018
ENDCHAR
STARTCHAR char1063
ENCODING 1063
SWIDTH 551 0
DWIDTH 16 0
BBX 11 18 2 0
BITMAP
C060
C060
C060
C060
C060
C060
C060
C060
E0E0
FFE0
3F60
0060
0060
0060
0060
0060
0060
0060
ENDCHAR
STARTCHAR char1064
ENCODING 1064
SWIDTH 551 0
DWIDTH 16 0
BBX 13 18 1 0
BITMAP
E738
E738
E738
E738
E738
E738
E738
E738
E738
E738
E738
E738
E738
E738
E738
E738
FFF8
FFF8
ENDCHAR
STARTCHAR char1065
ENCODING 1065
SWIDTH 551 0
DWIDTH 16 0
BBX 14 22 1 -4
BITMAP
C630
C630
C630
C630
C630
C630
C630
C630
C630
C630
C630
C630
C630
C630
C630
C630
FFFC
FFFC
000C
000C
000C
000C
ENDCHAR
STARTCHAR char1066
ENCODING 1066
SWIDTH 551 0
DWIDTH 16 0
BBX 14 18 0 0
BITMAP
FC00
FC00
0C00
0C00
0C00
0C00
0C00
0FE0
0FF0
0C38
0C1C
0C1C
0C1C
0C1C
0C1C
0C38
0FF0
0FE0
ENDCHAR
STARTCHAR char1067
ENCODING 1067
SWIDTH 551 0
DWIDTH 16 0
BBX 13 18 1 0
BITMAP
C038
C038
C038
C038
C038
C038
C038
FC38
FE38
C738
C3B8
C3B8
C3B8
C3B8
C3B8
C738
FE38
FC38
ENDCHAR
STARTCHAR char1068
ENCODING 1068
SWIDTH 551 0
DWIDTH 16 0
BBX 12 18 2 0
BITMAP
E000
E000
E000
E000
E000
E000
E000
FF80
FFC0
E0E0
E070
E070
E070
E070
E070
E0E0
FFC0
FF80
ENDCHAR
STARTCHAR char1069
ENCODING 1069
SWIDTH 551 0
DWIDTH 16 0
BBX 11 18 2 0
BITMAP
7E00
FF00
C380
81C0
00C0
00E0
00E0
00E0
7FE0
7FE0
00E0
00E0
00E0
00C0
81C0
C380
FF00
7E00
ENDCHAR
STARTCHAR char1070
ENCODING 1070
SWIDTH 551 0
DWIDTH 16 0
BBX 13 18 1 0
BITMAP
C3C0
C7F0
C630
CE38
CC18
CC18
CC18
CC18
FC18
FC18
CC18
CC18
CC18
CC18
CE38
C630
C7F0
C3C0
ENDCHAR
STARTCHAR char1071
ENCODING 1071
SWIDTH 551 0
DWIDTH 16 0
BBX 13 18 1 0
BITMAP
0FF8
3FF8
3838
7038
7038
7038
7038
7038
3838
1FF8
0FF8
0E38
1C38
1838
3838
7038
6038
E038
ENDCHAR
STARTCHAR char1072
ENCODING 1072
SWIDTH 551 0
DWIDTH 16 0
BBX 11 14 2 0
BITMAP
3F00
7FC0
40C0
00E0
0060
3FE0
7FE0
E060
C060
C0E0
C0E0
E1E0
7F60
3E60
ENDCHAR
STARTCHAR char1073
ENCODING 1073
SWIDTH 551 0
DWIDTH 16 0
BBX 11 20 2 0
BITMAP
07C0
1FC0
7C00
7000
E000
C000
DF00
FFC0
F1C0
E0E0
C060
C060
C060
C060
C060
C060
E0E0
71C0
7FC0
1F00
ENDCHAR
STARTCHAR char1074
ENCODING 1074
SWIDTH 551 0
DWIDTH 16 0
BBX 9 14 3 0
BITMAP
FE00
FF00
C380
C180
C180
C380
FF00
FF00
C180
C180
C180
C380
FF80
FE00
ENDCHAR
STARTCHAR char1075
ENCODING 1075
SWIDTH 551 0
DWIDTH 16 0
BBX 9 14 3 0
BITMAP
FF80
FF80
C000
C000
C000
C000
C000
C000
C000
C000
C000
C000
C000
C000
ENDCHAR
STARTCHAR char1076
ENCODING 1076
SWIDTH 551 0
DWIDTH 16 0
BBX 13 17 1 -3
BITMAP
3FE0
3FE0
3060
3060
3060
3060
3060
3060
3060
3060
3060
3060
FFF8
FFF8
C018
C018
C018
ENDCHAR
STARTCHAR char1077
ENCODING 1077
SWIDTH 551 0
DWIDTH 16 0
BBX 12 14 2 0
BITMAP
1F00
3FC0
70E0
E060
C060
C060
FFF0
FFF0
C000
C000
E000
7060
3FE0
1FC0
ENDCHAR
STARTCHAR char1078
ENCODING 1078
SWIDTH 551 0
DWIDTH 16 0
BBX 13 14 1 0
BITMAP
E738
6730
7770
3760
1FE0
1FC0
3FE0
3FE0
3760
7730
6730
6730
C718
C718
ENDCHAR
STARTCHAR char1079
ENCODING 1079
SWIDTH 551 0
DWIDTH 16 0
BBX 11 14 2 0
BITMAP
3F00
7FC0
41C0
00E0
00E0
01C0
1F80
1F80
00C0
0060
0060
80E0
FFC0
7F00
ENDCHAR
STARTCHAR char1080
ENCODING 1080
SWIDTH 551 0
DWIDTH 16 0
BBX 11 14 2 0
BITMAP
E0E0
E0E0
E1E0
E1E0
E360
E760
E660
EC60
EC60
F860
F860
F060
F060
E060
ENDCHAR
STARTCHAR char1081
ENCODING 1081
SWIDTH 551 0
DWIDTH 16 0
BBX 11 20 2 0
BITMAP
2080
3180
3F80
1F00
0000
0000
E0E0
E0E0
E1E0
E1E0
E360
E760
E660
EC60
EC60
F860
F860
F060
F060
E060
ENDCHAR
STARTCHAR char1082
ENCODING 1082
SWIDTH 551 0
DWIDTH 16 0
BBX 11 14 3 0
BITMAP
C0C0
C180
C300
C600
CC00
DC00
FC00
EE00
C700
C300
C380
C1C0
C0E0
C060
ENDCHAR
STARTCHAR char1083
ENCODING 1083
SWIDTH 551 0
DWIDTH 16 0
BBX 13 14 0 0
BITMAP
1FF8
1FF8
1818
1818
1818
1818
1818
1818
1818
1818
1818
3818
F018
E018
ENDCHAR
STARTCHAR char1084
ENCODING 1084
SWIDTH 551 0
DWIDTH 16 0
BBX 13 14 1 0
BITMAP
C018
E038
E038
F078
F078
F8F8
DCD8
DDD8
CF98
C798
C718
C018
C018
C018
ENDCHAR
STARTCHAR char1085
ENCODING 1085
SWIDTH 551 0
DWIDTH 16 0
BBX 11 14 2 0
BITMAP
E060
E060
E060
E060
E060
E060
FFE0
FFE0
E060
E060
E060
E060
E060
E060
ENDCHAR
STARTCHAR char1086
ENCODING 1086
SWIDTH 551 0
DWIDTH 16 0
BBX 11 14 2 0
BITMAP
1F00
7FC0
71C0
E0E0
C060
C060
C060
C060
C060
C060
E0E0
71C0
7FC0
1F00
ENDCHAR
STARTCHAR char1087
ENCODING 1087
SWIDTH 551 0
DWIDTH 16 0
BBX 11 14 2 0
BITMAP
FFE0
FFE0
E060
E060
E060
E060
E060
E060
E060
E060
E060
E060
E060
E060
ENDCHAR
STARTCHAR char1088
ENCODING 1088
SWIDTH 551 0
DWIDTH 16 0
BBX 12 19 2 -5
BITMAP
EF00
FFC0
F0C0
E0E0
E060
E060
E070
E070
E060
E060
E0E0
F0E0
FFC0
EF80
E000
E000
E000
E000
E000
ENDCHAR
STARTCHAR char1089
ENCODING 1089
SWIDTH 551 0
DWIDTH 16 0
BBX 11 14 2 0
BITMAP
0F80
1FC0
3860
7020
6000
E000
E000
E000
E000
6000
7000
3820
1FE0
0FC0
ENDCHAR
STARTCHAR char1090
ENCODING 1090
SWIDTH 551 0
DWIDTH 16 0
BBX 10 14 3 0
BITMAP
FFC0
FFC0
0C00
0C00
0C00
0C00
0C00
0C00
0C00
0C00
0C00
0C00
0C00
0C00
ENDCHAR
STARTCHAR char1091
ENCODING 1091
SWIDTH 551 0
DWIDTH 16 0
BBX 13 19 1 -5
BITMAP
E038
6038
7030
3070
3060
3860
18E0
18C0
0CC0
0D80
0F80
0780
0700
0300
0700
0600
0E00
7C00
7800
ENDCHAR
STARTCHAR char1092
ENCODING 1092
SWIDTH 551 0
DWIDTH 16 0
BBX 13 24 1 -5
BITMAP
0700
0700
0700
0700
0700
1FC0
3FE0
7770
6730
E738
E738
E738
E738
E738
E738
6730
7770
3FE0
1FC0
0700
0700
0700
0700
0700
ENDCHAR
STARTCHAR char1093
ENCODING 1093
SWIDTH 551 0
DWIDTH 16 0
BBX 13 14 1 0
BITMAP
6030
3070
38E0
18C0
0D80
0F80
0700
0700
0D80
1DC0
38E0
3060
7070
E038
ENDCHAR
STARTCHAR char1094
ENCODING 1094
SWIDTH 551 0
DWIDTH 16 0
BBX 12 17 2 -3
BITMAP
C0C0
C0C0
C0C0
C0C0
C0C0
C0C0
C0C0
C0C0
C0C0
C0C0
C0C0
C0C0
FFF0
FFF0
0030
0030
0030
ENDCHAR
STARTCHAR char1095
ENCODING 1095
SWIDTH 551 0
DWIDTH 16 0
BBX 11 14 2 0
BITMAP
E060
E060
E060
E060
E060
E060
60E0
7FE0
3F60
0060
0060
0060
0060
0060
ENDCHAR
STARTCHAR char1096
ENCODING 1096
SWIDTH 551 0
DWIDTH 16 0
BBX 12 14 2 0
BITMAP
CE70
CE70
CE70
CE70
CE70
CE70
CE70
CE70
CE70
CE70
CE70
CE70
FFF0
FFF0
ENDCHAR
STARTCHAR char1097
ENCODING 1097
SWIDTH 551 0
DWIDTH 16 0
BBX 14 17 1 -3
BITMAP
C630
C630
C630
C630
C630
C630
C630
C630
C630
C630
C630
C630
FFFC
FFFC
000C
000C
000C
ENDCHAR
STARTCHAR char1098
ENCODING 1098
SWIDTH 551 0
DWIDTH 16 0
BBX 14 14 0 0
BITMAP
FC00
FC00
1C00
1C00
1C00
1C00
1FF0
1FF8
1C1C
1C0C
1C0C
1C1C
1FF8
1FF0
ENDCHAR
STARTCHAR char1099
ENCODING 1099
SWIDTH 551 0
DWIDTH 16 0
BBX 13 14 1 0
BITMAP
C018
C018
C018
C018
C018
C018
FE18
FF18
C398
C198
C198
C398
FF18
FE18
ENDCHAR
STARTCHAR char1100
ENCODING 1100
SWIDTH 551 0
DWIDTH 16 0
BBX 11 14 2 0
BITMAP
E000
E000
E000
E000
E000
E000
FF80
FFC0
E0E0
E060
E060
E0E0
FFC0
FF80
ENDCHAR
STARTCHAR char1101
ENCODING 1101
SWIDTH 551 0
DWIDTH 16 0
BBX 11 14 2 0
BITMAP
3E00
7F80
C3C0
80C0
00E0
00E0
3FE0
3FE0
0060
00E0
00C0
81C0
FF80
7E00
ENDCHAR
STARTCHAR char1102
ENCODING 1102
SWIDTH 551 0
DWIDTH 16 0
BBX 13 14 1 0
BITMAP
C1C0
C7F0
C730
CE38
CE18
CC18
FC18
FC18
CC18
CE18
CE38
C630
C3F0
C1C0
ENDCHAR
STARTCHAR char1103
ENCODING 1103
SWIDTH 551 0
DWIDTH 16 0
BBX 10 14 2 0
BITMAP
1FC0
7FC0
70C0
60C0
60C0
70C0
3FC0
1FC0
18C0
38C0
30C0
70C0
60C0
E0C0
ENDCHAR
STARTCHAR char1104
ENCODING 1104
SWIDTH 551 0
DWIDTH 16 0
BBX 12 20 2 0
BITMAP
3000
1800
1C00
0C00
0600
0000
1F00
3FC0
70E0
E060
C060
C060
FFF0
FFF0
C000
C000
E000
7060
3FE0
1FC0
ENDCHAR
STARTCHAR char1105
ENCODING 1105
SWIDTH 551 0
DWIDTH 16 0
BBX 12 18 2 0
BITMAP
3180
3180
3180
0000
1F00
3FC0
70E0
E060
C060
C060
FFF0
FFF0
C000
C000
E000
7060
3FE0
1FC0
ENDCHAR
STARTCHAR char1106
ENCODING 1106
SWIDTH 551 0
DWIDTH 16 0
BBX 14 24 0 -5
BITMAP
1800
1800
1800
1800
1800
FFC0
FFC0
1800
1800
1800
1BF0
1FF8
1C18
1818
181C
181C
1818
1818
1818
0038
0038
0070
00E0
00C0
ENDCHAR
STARTCHAR char1107
ENCODING 1107
SWIDTH 551 0
DWIDTH 16 0
BBX 9 20 3 0
BITMAP
0180
0300
0700
0600
0C00
0000
FF80
FF80
C000
C000
C000
C000
C000
C000
C000
C000
C000
C000
C000
C000
ENDCHAR
STARTCHAR char1108
ENCODING 1108
SWIDTH 551 0
DWIDTH 16 0
BBX 11 14 2 0
BITMAP
0F80
1FC0
3860
7020
6000
E000
FF80
FF80
E000
6000
7000
3820
1FE0
0FC0
ENDCHAR
STARTCHAR char1109
ENCODING 1109
SWIDTH 551 0
DWIDTH 16 0
BBX 10 14 3 0
BITMAP
3F00
7F80
E080
C000
C000
E000
7E00
3F80
0380
01C0
01C0
8380
FF80
7E00
ENDCHAR
STARTCHAR char1110
ENCODING 1110
SWIDTH 551 0
DWIDTH 16 0
BBX 11 19 2 0
BITMAP
0600
0600
0600
0000
0000
7E00
7E00
0600
0600
0600
0600
0600
0600
0600
0600
0600
0600
FFE0
FFE0
ENDCHAR
STARTCHAR char1111
ENCODING 1111
SWIDTH 551 0
DWIDTH 16 0
BBX 11 19 2 0
BITMAP
3180
3180
3180
0000
0000
7E00
7E00
0600
0600
0600
0600
0600
0600
0600
0600
0600
0600
FFE0
FFE0
ENDCHAR
STARTCHAR char1112
ENCODING 1112
SWIDTH 551 0
DWIDTH 16 0
BBX 8 24 2 -5
BITMAP
07
07
07
00
00
7F
7F
07
07
07
07
07
07
07
07
07
07
07
07
07
06
06
FE
F8
ENDCHAR
STARTCHAR char1113
ENCODING 1113
SWIDTH 551 0
DWIDTH 16 0
BBX 15 14 0 0
BITMAP
1FC0
1FC0
18C0
18C0
18C0
18C0
18F8
18FC
18CE
18C6
18C6
30CE
F0FC
E0F8
ENDCHAR
STARTCHAR char1114
ENCODING 1114
SWIDTH 551 0
DWIDTH 16 0
BBX 13 14 1 0
BITMAP
C300
C300
C300
C300
C300
C300
FFE0
FFF8
C318
C318
C318
C338
C3F8
C3E0
ENDCHAR
STARTCHAR char1115
ENCODING 1115
SWIDTH 551 0
DWIDTH 16 0
BBX 13 19 0 0
BITMAP
1800
1800
1800
1800
1800
FFC0
FFC0
1800
1800
1800
1BF0
1FF8
1C38
1818
1818
1818
1818
1818
1818
ENDCHAR
STARTCHAR char1116
ENCODING 1116
SWIDTH 551 0
DWIDTH 16 0
BBX 11 20 3 0
BITMAP
0180
0300
0700
0600
0C00
0000
C0C0
C180
C300
C600
CC00
DC00
FC00
EE00
C700
C300
C380
C1C0
C0E0
C060
ENDCHAR
STARTCHAR char1117
ENCODING 1117
SWIDTH 551 0
DWIDTH 16 0
BBX 11 20 2 0
BITMAP
1800
0C00
0E00
0600
0300
0000
E0E0
E0E0
E1E0
E1E0
E360
E760
E660
EC60
EC60
F860
F860
F060
F060
E060
ENDCHAR
STARTCHAR char1118
ENCODING 1118
SWIDTH 551 0
DWIDTH 16 0
BBX 13 25 1 -5
BITMAP
1040
18C0
1FC0
0F80
0000
0000
E038
6038
7030
3070
3060
3860
18E0
18C0
0CC0
0D80
0F80
0780
0700
0300
0700
0600
0E00
7C00
7800
ENDCHAR
STARTCHAR char1119
ENCODING 1119
SWIDTH 551 0
DWIDTH 16 0
BBX 11 17 2 -3
BITMAP
E060
E060
E060
E060
E060
E060
E060
E060
E060
E060
E060
E060
FFE0
FFE0
0600
0600
0600
ENDCHAR
STARTCHAR char1122
ENCODING 1122
SWIDTH 551 0
DWIDTH 16 0
BBX 14 18 0 0
BITMAP
0C00
0C00
0C00
FFE0
FFE0
0C00
0C00
0FE0
0FF0
0C38
0C1C
0C1C
0C1C
0C1C
0C1C
0C38
0FF0
0FE0
ENDCHAR
STARTCHAR char1123
ENCODING 1123
SWIDTH 551 0
DWIDTH 16 0
BBX 14 19 0 0
BITMAP
1C00
1C00
1C00
1C00
1C00
FFE0
FFE0
1C00
1C00
1C00
1C00
1FF0
1FF8
1C1C
1C0C
1C0C
1C1C
1FF8
1FF0
ENDCHAR
STARTCHAR char1138
ENCODING 1138
SWIDTH 551 0
DWIDTH 16 0
BBX 13 19 1 0
BITMAP
0200
1FC0
3DE0
3060
7070
6030
6030
6030
E038
FFF8
FFF8
E038
6030
6030
6030
7070
3060
3FE0
1FC0
ENDCHAR
STARTCHAR char1139
ENCODING 1139
SWIDTH 551 0
DWIDTH 16 0
BBX 11 14 2 0
BITMAP
1F00
7FC0
71C0
E0E0
C060
C060
C060
FFE0
FFE0
C060
E0E0
60E0
7FC0
3F80
ENDCHAR
STARTCHAR char1168
ENCODING 1168
SWIDTH 551 0
DWIDTH 16 0
BBX 11 22 3 0
BITMAP
0060
0060
0060
0060
FFE0
FFE0
C000
C000
C000
C000
C000
C000
C000
C000
C000
C000
C000
C000
C000
C000
C000
C000
ENDCHAR
STARTCHAR char1169
ENCODING 1169
SWIDTH 551 0
DWIDTH 16 0
BBX 9 18 3 0
BITMAP
0180
0180
0180
0180
FF80
FF80
C000
C000
C000
C000
C000
C000
C000
C000
C000
C000
C000
C000
ENDCHAR
STARTCHAR char1170
ENCODING 1170
SWIDTH 551 0
DWIDTH 16 0
BBX 13 18 1 0
BITMAP
3FF8
3FF8
3000
3000
3000
3000
FFE0
FFE0
3000
3000
3000
3000
3000
3000
3000
3000
3000
3000
ENDCHAR
STARTCHAR char1171
ENCODING 1171
SWIDTH 551 0
DWIDTH 16 0
BBX 10 14 2 0
BITMAP
7FC0
7FC0
7FC0
6000
6000
6000
FF00
FF00
6000
6000
6000
6000
6000
6000
ENDCHAR
STARTCHAR char1172
ENCODING 1172
SWIDTH 551 0
DWIDTH 16 0
BBX 11 23 3 -5
BITMAP
FFE0
FFE0
C000
C000
C000
C000
C000
FE00
FF80
C3C0
C0E0
C0E0
C0E0
C0E0
C0E0
C0E0
C0E0
C0E0
00E0
00E0
01C0
07C0
0700
ENDCHAR
STARTCHAR char1173
ENCODING 1173
SWIDTH 551 0
DWIDTH 16 0
BBX 11 19 3 -5
BITMAP
FF80
FF80
FF80
C000
C000
C000
FF00
FFC0
C0C0
C0C0
C0C0
C0E0
C0E0
C0E0
00E0
00C0
00C0
0FC0
0F80
ENDCHAR
STARTCHAR char1174
ENCODING 1174
SWIDTH 551 0
DWIDTH 16 0
BBX 15 22 0 -4
BITMAP
638C
739C
3398
3BB8
1BB0
1FF0
0FE0
0FE0
1FF0
1FF0
1BF0
3BB8
3398
3398
739C
638C
638E
E38E
0006
0006
0006
0006
ENDCHAR
STARTCHAR char1175
ENCODING 1175
SWIDTH 551 0
DWIDTH 16 0
BBX 14 17 1 -3
BITMAP
C718
6730
7770
3760
3FE0
1FC0
3FE0
3FE0
3760
7730
6730
6730
C71C
C71C
000C
000C
000C
ENDCHAR
STARTCHAR char1176
ENCODING 1176
SWIDTH 551 0
DWIDTH 16 0
BBX 11 23 2 -5
BITMAP
3F00
FF80
C1C0
00E0
00E0
00E0
01C0
1F80
1F80
01C0
00E0
0060
0060
0060
00E0
81C0
FFC0
7F00
0C00
0600
0600
3E00
3C00
ENDCHAR
STARTCHAR char1177
ENCODING 1177
SWIDTH 551 0
DWIDTH 16 0
BBX 11 19 2 -5
BITMAP
3F00
7FC0
41C0
00E0
00E0
01C0
1F80
1F80
00C0
0060
0060
80E0
FFC0
7F00
0C00
0600
0600
3E00
3C00
ENDCHAR
STARTCHAR char1178
ENCODING 1178
SWIDTH 551 0
DWIDTH 16 0
BBX 13 22 2 -4
BITMAP
C070
C0E0
C1C0
C380
C700
CE00
DC00
DC00
FE00
EE00
E700
C380
C380
C1C0
C0E0
C0E0
C078
C038
0038
0038
0038
0038
ENDCHAR
STARTCHAR char1179
ENCODING 1179
SWIDTH 551 0
DWIDTH 16 0
BBX 12 17 3 -3
BITMAP
C0E0
C1C0
C380
C700
CE00
D800
FC00
EE00
C700
C300
C380
C1C0
C0F0
C070
0070
0070
0070
ENDCHAR
STARTCHAR char1186
ENCODING 1186
SWIDTH 551 0
DWIDTH 16 0
BBX 15 22 0 -4
BITMAP
E030
E030
E030
E030
E030
E030
E030
FFF0
FFF0
E030
E030
E030
E030
E030
E030
E030
E03E
E03E
000E
000E
000E
000E
ENDCHAR
STARTCHAR char1187
ENCODING 1187
SWIDTH 551 0
DWIDTH 16 0
BBX 13 17 1 -3
BITMAP
C0E0
C0E0
C0E0
C0E0
C0E0
C0E0
FFE0
FFE0
C0E0
C0E0
C0E0
C0E0
C0F8
C0F8
0018
0018
0018
ENDCHAR
STARTCHAR char1188
ENCODING 1188
SWIDTH 551 0
DWIDTH 16 0
BBX 14 18 1 0
BITMAP
E1FC
E1FC
E180
E180
E180
E180
E180
FF80
FF80
E180
E180
E180
E180
E180
E180
E180
E180
E180
ENDCHAR
STARTCHAR char1189
ENCODING 1189
SWIDTH 551 0
DWIDTH 16 0
BBX 13 14 2 0
BITMAP
C1F8
C1F8
C180
C180
C180
C180
FF80
FF80
C180
C180
C180
C180
C180
C180
ENDCHAR
STARTCHAR char1194
ENCODING 1194
SWIDTH 551 0
DWIDTH 16 0
BBX 11 23 2 -5
BITMAP
0FC0
1FE0
3860
7020
E000
E000
C000
C000
C000
C000
C000
C000
E000
E000
7020
7860
3FE0
0FC0
0300
0180
0180
0F80
0F00
ENDCHAR
STARTCHAR char1195
ENCODING 1195
SWIDTH 551 0
DWIDTH 16 0
BBX 11 19 2 -5
BITMAP
0F80
1FC0
3860
7020
6000
E000
E000
E000
E000
6000
7000
3820
1FE0
0FC0
0300
0180
0180
0F80
0F00
ENDCHAR
STARTCHAR char1196
ENCODING 1196
SWIDTH 551 0
DWIDTH 16 0
BBX 13 22 1 -4
BITMAP
FFF8
FFF8
0700
0700
0700
0700
0700
0700
0700
0700
0700
0700
0700
0700
0700
0700
07C0
07C0
00C0
00C0
00C0
00C0
ENDCHAR
STARTCHAR char1197
ENCODING 1197
SWIDTH 551 0
DWIDTH 16 0
BBX 10 17 3 -3
BITMAP
FFC0
FFC0
FC00
0C00
0C00
0C00
0C00
0C00
0C00
0C00
0C00
0C00
0F00
0F00
0300
0300
0300
ENDCHAR
STARTCHAR char1198
ENCODING 1198
SWIDTH 551 0
DWIDTH 16 0
BBX 13 18 1 0
BITMAP
C018
E038
6030
3070
38E0
18C0
1DC0
0D80
0F80
0700
0700
0700
0700
0700
0700
0700
0700
0700
ENDCHAR
STARTCHAR char1199
ENCODING 1199
SWIDTH 551 0
DWIDTH 16 0
BBX 13 19 1 -5
BITMAP
E038
6030
6030
7070
3060
3060
18E0
18C0
1DC0
0D80
0D80
0F80
0700
0700
0700
0700
0700
0700
0700
ENDCHAR
STARTCHAR char1200
ENCODING 1200
SWIDTH 551 0
DWIDTH 16 0
BBX 13 18 1 0
BITMAP
C018
E038
7070
3060
38E0
18C0
1DC0
0D80
0780
0700
0700
3FE0
3FE0
0700
0700
0700
0700
0700
ENDCHAR
STARTCHAR char1201
ENCODING 1201
SWIDTH 551 0
DWIDTH 16 0
BBX 13 19 1 -5
BITMAP
E038
6030
6030
7070
3060
3060
18E0
18C0
1DC0
0D80
0D80
0F80
0700
0700
1FC0
1FC0
0700
0700
0700
ENDCHAR
STARTCHAR char1202
ENCODING 1202
SWIDTH 551 0
DWIDTH 16 0
BBX 14 22 1 -4
BITMAP
E038
7030
3070
3860
18C0
0DC0
0F80
0780
0700
0780
0D80
1DC0
18C0
3860
7070
6030
E03C
C01C
001C
001C
001C
001C
ENDCHAR
STARTCHAR char1203
ENCODING 1203
SWIDTH 551 0
DWIDTH 16 0
BBX 13 17 1 -3
BITMAP
6038
7070
3060
18C0
0DC0
0F80
0700
0700
0F80
1DC0
18C0
3060
7078
E038
0018
0018
0018
ENDCHAR
STARTCHAR char1210
ENCODING 1210
SWIDTH 551 0
DWIDTH 16 0
BBX 11 18 2 0
BITMAP
C000
C000
C000
C000
C000
C000
C300
DFC0
FFE0
E0E0
E060
C060
C060
C060
C060
C060
C060
C060
ENDCHAR
STARTCHAR char1211
ENCODING 1211
SWIDTH 551 0
DWIDTH 16 0
BBX 11 19 2 0
BITMAP
E000
E000
E000
E000
E000
E780
FFC0
F0C0
E0E0
E0E0
E060
E060
E060
E060
E060
E060
E060
E060
E060
ENDCHAR
STARTCHAR char1216
ENCODING 1216
SWIDTH 551 0
DWIDTH 16 0
BBX 11 18 2 0
BITMAP
FFE0
FFE0
0E00
0E00
0E00
0E00
0E00
0E00
0E00
0E00
0E00
0E00
0E00
0E00
0E00
0E00
FFE0
FFE0
ENDCHAR
STARTCHAR char1217
ENCODING 1217
SWIDTH 551 0
DWIDTH 16 0
BBX 15 23 0 0
BITMAP
0C60
0FE0
07C0
0000
0000
638C
739C
3398
3BB8
1BB8
1FF0
0FF0
0FE0
1FF0
1FF0
1BF0
3BB8
3398
3398
739C
638C
638C
E38E
ENDCHAR
STARTCHAR char1218
ENCODING 1218
SWIDTH 551 0
DWIDTH 16 0
BBX 13 20 1 0
BITMAP
1040
18C0
1FC0
0F80
0000
0000
E738
6730
7770
3760
1FE0
1FC0
3FE0
3FE0
3760
7730
6730
6730
C718
C718
ENDCHAR
STARTCHAR char1219
ENCODING 1219
SWIDTH 551 0
DWIDTH 16 0
BBX 12 23 2 -5
BITMAP
C070
C0E0
C1C0
C380
C700
CE00
DC00
DE00
FF80
E3C0
E0E0
C0E0
C0E0
C0E0
C0E0
C0E0
C0E0
C0E0
00E0
00E0
01C0
07C0
0700
ENDCHAR
STARTCHAR char1220
ENCODING 1220
SWIDTH 551 0
DWIDTH 16 0
BBX 11 19 3 -5
BITMAP
C0E0
C1C0
C380
C600
CC00
D800
FF00
FFC0
C1C0
C0C0
C0C0
C0C0
C0C0
C0C0
00C0
00C0
00C0
0FC0
0F80
ENDCHAR
STARTCHAR char1223
ENCODING 1223
SWIDTH 551 0
DWIDTH 16 0
BBX 11 23 2 -5
BITMAP
C060
C060
C060
C060
C060
C060
C060
FFE0
FFE0
C060
C060
C060
C060
C060
C060
C060
C060
C060
0060
00E0
00E0
07C0
0780
ENDCHAR
STARTCHAR char1224
ENCODING 1224
SWIDTH 551 0
DWIDTH 16 0
BBX 11 19 2 -5
BITMAP
E060
E060
E060
E060
E060
E060
FFE0
FFE0
E060
E060
E060
E060
E060
E060
0060
00E0
00E0
0FC0
0F80
ENDCHAR
STARTCHAR char1227
ENCODING 1227
SWIDTH 551 0
DWIDTH 16 0
BBX 11 22 2 -4
BITMAP
C060
C060
C060
C060
C060
C060
C060
E0E0
F3E0
7FE0
3E60
0060
0060
0060
0060
0060
03E0
03E0
0380
0380
0380
0380
ENDCHAR
STARTCHAR char1228
ENCODING 1228
SWIDTH 551 0
DWIDTH 16 0
BBX 11 17 2 -3
BITMAP
E060
E060
E060
E060
E0E0
60E0
61E0
7F60
3E60
0060
0060
0060
03E0
03E0
0380
0380
0380
ENDCHAR
STARTCHAR char1231
ENCODING 1231
SWIDTH 551 0
DWIDTH 16 0
BBX 2 19 6 0
BITMAP
C0
C0
C0
C0
C0
C0
C0
C0
C0
C0
C0
C0
C0
C0
C0
C0
C0
C0
C0
ENDCHAR
STARTCHAR char1232
ENCODING 1232
SWIDTH 551 0
DWIDTH 16 0
BBX 13 23 1 0
BITMAP
18C0
1FC0
0F80
0000
0000
0700
0700
0D80
0D80
0D80
1CC0
18C0
18C0
38E0
3060
3060
7FF0
7FF0
6030
6038
E038
C018
C018
ENDCHAR
STARTCHAR char1233
ENCODING 1233
SWIDTH 551 0
DWIDTH 16 0
BBX 11 20 2 0
BITMAP
2080
3180
3F80
1F00
0000
0000
3F00
7FC0
40C0
00E0
0060
3FE0
7FE0
E060
C060
C0E0
C0E0
E1E0
7F60
3E60
ENDCHAR
STARTCHAR char1234
ENCODING 1234
SWIDTH 551 0
DWIDTH 16 0
BBX 13 24 1 0
BITMAP
18C0
18C0
18C0
0000
0000
0000
0700
0700
0D80
0D80
0D80
1CC0
18C0
18C0
38E0
3060
3060
7FF0
7FF0
6030
6038
E038
C018
C018
ENDCHAR
STARTCHAR char1235
ENCODING 1235
SWIDTH 551 0
DWIDTH 16 0
BBX 11 19 2 0
BITMAP
3180
3180
3180
0000
0000
3F00
7FC0
40C0
00E0
0060
3FE0
7FE0
E060
C060
C0E0
C0E0
E1E0
7F60
3E60
ENDCHAR
STARTCHAR char1236
ENCODING 1236
SWIDTH 551 0
DWIDTH 16 0
BBX 14 18 0 0
BITMAP
07FC
07FC
0CC0
0CC0
0CC0
1CC0
18C0
18FC
18FC
30C0
30C0
3FC0
3FC0
60C0
60C0
60C0
E0FC
C0FC
ENDCHAR
STARTCHAR char1237
ENCODING 1237
SWIDTH 551 0
DWIDTH 16 0
BBX 14 14 1 0
BITMAP
7CF0
FFF8
8718
0718
030C
030C
3FFC
FFFC
C300
C300
C700
C708
FDF8
78F8
ENDCHAR
STARTCHAR char1238
ENCODING 1238
SWIDTH 551 0
DWIDTH 16 0
BBX 11 23 2 0
BITMAP
3180
3F80
1F00
0000
0000
FFE0
FFE0
E000
E000
E000
E000
E000
FFE0
FFE0
E000
E000
E000
E000
E000
E000
E000
FFE0
FFE0
ENDCHAR
STARTCHAR char1239
ENCODING 1239
SWIDTH 551 0
DWIDTH 16 0
BBX 12 20 2 0
BITMAP
2080
3180
3F80
1F00
0000
0000
1F00
3FC0
70E0
E060
C060
C060
FFF0
FFF0
C000
C000
E000
7060
3FE0
1FC0
ENDCHAR
STARTCHAR char1240
ENCODING 1240
SWIDTH 551 0
DWIDTH 16 0
BBX 13 18 1 0
BITMAP
0F80
3FC0
30E0
2070
0030
0030
0030
0038
FFF8
FFF8
E038
6030
6030
6070
7070
38E0
1FE0
0F80
ENDCHAR
STARTCHAR char1241
ENCODING 1241
SWIDTH 551 0
DWIDTH 16 0
BBX 13 14 1 0
BITMAP
3F80
7FC0
60E0
0070
0030
0030
FFF8
FFF8
6030
6030
6070
70E0
3FC0
0F80
ENDCHAR
STARTCHAR char1242
ENCODING 1242
SWIDTH 551 0
DWIDTH 16 0
BBX 13 24 1 0
BITMAP
18C0
18C0
18C0
0000
0000
0000
0F80
3FC0
30E0
2070
0030
0030
0030
0038
FFF8
FFF8
E038
6030
6030
6070
7070
38E0
1FE0
0F80
ENDCHAR
STARTCHAR char1243
ENCODING 1243
SWIDTH 551 0
DWIDTH 16 0
BBX 13 19 1 0
BITMAP
18C0
18C0
18C0
0000
0000
3F80
7FC0
60E0
0070
0030
0030
FFF8
FFF8
6030
6030
6070
70E0
3FC0
0F80
ENDCHAR
STARTCHAR char1244
ENCODING 1244
SWIDTH 551 0
DWIDTH 16 0
BBX 15 24 0 0
BITMAP
0C60
0C60
0C60
0000
0000
0000
638C
739C
3398
3BB8
1BB8
1FF0
0FF0
0FE0
1FF0
1FF0
1BF0
3BB8
3398
3398
739C
638C
638C
E38E
ENDCHAR
STARTCHAR char1245
ENCODING 1245
SWIDTH 551 0
DWIDTH 16 0
BBX 13 19 1 0
BITMAP
18C0
18C0
18C0
0000
0000
E738
6730
7770
3760
1FE0
1FC0
3FE0
3FE0
3760
7730
6730
6730
C718
C718
ENDCHAR
STARTCHAR char1246
ENCODING 1246
SWIDTH 551 0
DWIDTH 16 0
BBX 11 24 2 0
BITMAP
3180
3180
3180
0000
0000
0000
3F00
FF80
C1C0
00E0
00E0
00E0
01C0
1F80
1F80
01C0
00E0
0060
0060
0060
00E0
81C0
FFC0
7F00
ENDCHAR
STARTCHAR char1247
ENCODING 1247
SWIDTH 551 0
DWIDTH 16 0
BBX 11 19 2 0
BITMAP
3180
3180
3180
0000
0000
3F00
7FC0
41C0
00E0
00E0
01C0
1F80
1F80
00C0
0060
0060
80E0
FFC0
7F00
ENDCHAR
STARTCHAR char1248
ENCODING 1248
SWIDTH 551 0
DWIDTH 16 0
BBX 15 18 0 0
BITMAP
7FF8
7FF8
0038
0070
00E0
01C0
0380
03C0
03F0
003C
001C
000E
000E
E00E
600C
701C
3FF8
1FF0
ENDCHAR
STARTCHAR char1249
ENCODING 1249
SWIDTH 551 0
DWIDTH 16 0
BBX 12 19 2 -5
BITMAP
FFC0
FFC0
00C0
0180
0380
0700
0E00
1C00
1E00
1F80
01C0
00E0
0060
0070
0060
0060
00E0
FFC0
FF80
ENDCHAR
STARTCHAR char1250
ENCODING 1250
SWIDTH 551 0
DWIDTH 16 0
BBX 11 22 2 0
BITMAP
3F80
3F80
0000
0000
C0E0
C0E0
C1E0
C1E0
C360
C360
C360
C660
C660
CC60
CC60
DC60
D860
D860
F060
F060
E060
E060
ENDCHAR
STARTCHAR char1251
ENCODING 1251
SWIDTH 551 0
DWIDTH 16 0
BBX 11 19 2 0
BITMAP
3F80
3F80
0000
0000
0000
E0E0
E0E0
E1E0
E1E0
E360
E760
E660
EC60
EC60
F860
F860
F060
F060
E060
ENDCHAR
STARTCHAR char1252
ENCODING 1252
SWIDTH 551 0
DWIDTH 16 0
BBX 11 24 2 0
BITMAP
3180
3180
3180
0000
0000
0000
C0E0
C0E0
C1E0
C1E0
C360
C360
C360
C660
C660
CC60
CC60
DC60
D860
D860
F060
F060
E060
E060
ENDCHAR
STARTCHAR char1253
ENCODING 1253
SWIDTH 551 0
DWIDTH 16 0
BBX 11 19 2 0
BITMAP
3180
3180
3180
0000
0000
E0E0
E0E0
E1E0
E1E0
E360
E760
E660
EC60
EC60
F860
F860
F060
F060
E060
ENDCHAR
STARTCHAR char1254
ENCODING 1254
SWIDTH 551 0
DWIDTH 16 0
BBX 13 24 1 0
BITMAP
18C0
18C0
18C0
0000
0000
0000
0F80
1FC0
38E0
7070
6030
6030
6030
E038
E038
E038
E038
6030
6030
6030
7070
38E0
3FE0
0F80
ENDCHAR
STARTCHAR char1255
ENCODING 1255
SWIDTH 551 0
DWIDTH 16 0
BBX 11 19 2 0
BITMAP
3180
3180
3180
0000
0000
1F00
7FC0
71C0
E0E0
C060
C060
C060
C060
C060
C060
E0E0
71C0
7FC0
1F00
ENDCHAR
STARTCHAR char1256
ENCODING 1256
SWIDTH 551 0
DWIDTH 16 0
BBX 13 19 1 0
BITMAP
0200
1FC0
3DE0
3060
7070
6030
6030
6030
FFF8
FFF8
E038
E038
6030
6030
6030
7070
3060
3FE0
1FC0
ENDCHAR
STARTCHAR char1257
ENCODING 1257
SWIDTH 551 0
DWIDTH 16 0
BBX 11 14 2 0
BITMAP
1F00
7FC0
71C0
E0E0
C060
C060
C060
FFE0
FFE0
C060
E0E0
60E0
7FC0
3F80
ENDCHAR
STARTCHAR char1258
ENCODING 1258
SWIDTH 551 0
DWIDTH 16 0
BBX 13 24 1 0
BITMAP
18C0
18C0
18C0
0000
0000
0200
1FC0
3DE0
3060
7070
6030
6030
6030
FFF8
FFF8
E038
E038
6030
6030
6030
7070
3060
3FE0
1FC0
ENDCHAR
STARTCHAR char1259
ENCODING 1259
SWIDTH 551 0
DWIDTH 16 0
BBX 11 19 2 0
BITMAP
3180
3180
3180
0000
0000
1F00
7FC0
71C0
E0E0
C060
C060
C060
FFE0
FFE0
C060
E0E0
60E0
7FC0
3F80
ENDCHAR
STARTCHAR char1260
ENCODING 1260
SWIDTH 551 0
DWIDTH 16 0
BBX 11 24 2 0
BITMAP
3180
3180
3180
0000
0000
0000
7E00
FF00
C380
81C0
00C0
00E0
00E0
00E0
7FE0
7FE0
00E0
00E0
00E0
00C0
81C0
C380
FF00
7E00
ENDCHAR
STARTCHAR char1261
ENCODING 1261
SWIDTH 551 0
DWIDTH 16 0
BBX 11 19 2 0
BITMAP
3180
3180
3180
0000
0000
3E00
7F80
C3C0
80C0
00E0
00E0
3FE0
3FE0
0060
00E0
00C0
81C0
FF80
7E00
ENDCHAR
STARTCHAR char1262
ENCODING 1262
SWIDTH 551 0
DWIDTH 16 0
BBX 13 22 1 0
BITMAP
1FC0
1FC0
0000
0000
E038
6030
7030
3070
3860
38E0
18E0
1CC0
0DC0
0D80
0F80
0780
0700
0700
0600
0E00
7C00
7800
ENDCHAR
STARTCHAR char1263
ENCODING 1263
SWIDTH 551 0
DWIDTH 16 0
BBX 13 24 1 -5
BITMAP
1FC0
1FC0
0000
0000
0000
E038
6038
7030
3070
3060
3860
18E0
18C0
0CC0
0D80
0F80
0780
0700
0300
0700
0600
0E00
7C00
7800
ENDCHAR
STARTCHAR char1264
ENCODING 1264
SWIDTH 551 0
DWIDTH 16 0
BBX 13 24 1 0
BITMAP
18C0
18C0
18C0
0000
0000
0000
E038
6030
7030
3070
3860
38E0
18E0
1CC0
0DC0
0D80
0F80
0780
0700
0700
0600
0E00
7C00
7800
ENDCHAR
STARTCHAR char1265
ENCODING 1265
SWIDTH 551 0
DWIDTH 16 0
BBX 13 24 1 -5
BITMAP
18C0
18C0
18C0
0000
0000
E038
6038
7030
3070
3060
3860
18E0
18C0
0CC0
0D80
0F80
0780
0700
0300
0700
0600
0E00
7C00
7800
ENDCHAR
STARTCHAR char1266
ENCODING 1266
SWIDTH 551 0
DWIDTH 16 0
BBX 13 23 1 0
BITMAP
0660
0CC0
0D80
0000
0000
E038
6030
7030
3070
3860
38E0
18E0
1CC0
0DC0
0D80
0F80
0780
0700
0700
0600
0E00
7C00
7800
ENDCHAR
STARTCHAR char1267
ENCODING 1267
SWIDTH 551 0
DWIDTH 16 0
BBX 13 25 1 -5
BITMAP
0660
0660
0CC0
0CC0
1980
0000
E038
6038
7030
3070
3060
3860
18E0
18C0
0CC0
0D80
0F80
0780
0700
0300
0700
0600
0E00
7C00
7800
ENDCHAR
STARTCHAR char1268
ENCODING 1268
SWIDTH 551 0
DWIDTH 16 0
BBX 11 24 2 0
BITMAP
3180
3180
3180
0000
0000
0000
C060
C060
C060
C060
C060
C060
C060
C060
E0E0
FFE0
3F60
0060
0060
0060
0060
0060
0060
0060
ENDCHAR
STARTCHAR char1269
ENCODING 1269
SWIDTH 551 0
DWIDTH 16 0
BBX 11 19 2 0
BITMAP
3180
3180
3180
0000
0000
E060
E060
E060
E060
E060
E060
60E0
7FE0
3F60
0060
0060
0060
0060
0060
ENDCHAR
STARTCHAR char1270
ENCODING 1270
SWIDTH 551 0
DWIDTH 16 0
BBX 11 22 3 -4
BITMAP
FFE0
FFE0
C000
C000
C000
C000
C000
C000
C000
C000
C000
C000
C000
C000
C000
C000
F800
F800
3800
3800
3800
3800
ENDCHAR
STARTCHAR char1271
ENCODING 1271
SWIDTH 551 0
DWIDTH 16 0
BBX 9 17 3 -3
BITMAP
FF80
FF80
FF80
C000
C000
C000
C000
C000
C000
C000
C000
C000
F800
F800
3800
3800
3800
ENDCHAR
STARTCHAR char1272
ENCODING 1272
SWIDTH 551 0
DWIDTH 16 0
BBX 13 24 1 0
BITMAP
18C0
18C0
18C0
0000
0000
0000
C038
C038
C038
C038
C038
C038
C038
FC38
FE38
C738
C3B8
C3B8
C3B8
C3B8
C3B8
C738
FE38
FC38
ENDCHAR
STARTCHAR char1273
ENCODING 1273
SWIDTH 551 0
DWIDTH 16 0
BBX 13 19 1 0
BITMAP
18C0
18C0
18C0
0000
0000
C018
C018
C018
C018
C018
C018
FE18
FF18
C398
C198
C198
C398
FF18
FE18
ENDCHAR
STARTCHAR char1296
ENCODING 1296
SWIDTH 551 0
DWIDTH 16 0
BBX 11 18 2 0
BITMAP
1F80
7FE0
70E0
E020
E000
E000
7000
3F00
3F00
7000
E000
C000
C000
C000
E020
F060
7FE0
1FC0
ENDCHAR
STARTCHAR char1297
ENCODING 1297
SWIDTH 551 0
DWIDTH 16 0
BBX 11 14 2 0
BITMAP
1F80
7FC0
7040
E000
6000
7000
1F00
7F00
F000
C000
C000
E020
7FE0
1FC0
ENDCHAR
STARTCHAR char1306
ENCODING 1306
SWIDTH 551 0
DWIDTH 16 0
BBX 13 21 1 -3
BITMAP
0F80
1FC0
38E0
7070
6030
6030
6030
E038
E038
E038
E038
6030
6030
6030
7070
38E0
1FE0
0F80
01C0
00E0
0060
ENDCHAR
STARTCHAR char1307
ENCODING 1307
SWIDTH 551 0
DWIDTH 16 0
BBX 11 19 2 -5
BITMAP
1E60
7F60
71E0
E0E0
C0E0
C060
C060
C060
C0E0
C0E0
E0E0
71E0
7F60
1E60
0060
0060
0060
0060
0060
ENDCHAR
STARTCHAR char1308
ENCODING 1308
SWIDTH 551 0
DWIDTH 16 0
BBX 15 18 0 0
BITMAP
C006
E00E
E00E
600E
600C
638C
638C
628C
66CC
76DC
36D8
36D8
3458
3C78
3C78
3C78
3838
1830
ENDCHAR
STARTCHAR char1309
ENCODING 1309
SWIDTH 551 0
DWIDTH 16 0
BBX 15 14 0 0
BITMAP
C006
E006
600C
600C
638C
638C
729C
3298
36D8
36D8
3458
1C70
1C70
1C30
ENDCHAR
STARTCHAR char1329
ENCODING 1329
SWIDTH 551 0
DWIDTH 16 0
BBX 12 19 1 -1
BITMAP
E070
E070
E070
E070
E070
E070
E070
E070
E070
E070
E070
E070
E070
E370
63F0
71E0
3FF0
1FF0
0010
ENDCHAR
STARTCHAR char1330
ENCODING 1330
SWIDTH 551 0
DWIDTH 16 0
BBX 11 19 2 0
BITMAP
0400
3F80
7BC0
E0E0
C0E0
C060
C060
C060
C000
C000
C000
FFE0
FFE0
C000
C000
C000
C000
C000
C000
ENDCHAR
STARTCHAR char1331
ENCODING 1331
SWIDTH 551 0
DWIDTH 16 0
BBX 13 19 1 0
BITMAP
0400
3F80
7FC0
60E0
E060
E060
E060
E060
E060
E060
6060
7FF8
3FF8
03E0
0060
0060
0060
0060
0060
ENDCHAR
STARTCHAR char1332
ENCODING 1332
SWIDTH 551 0
DWIDTH 16 0
BBX 13 19 1 0
BITMAP
0400
3F80
7BC0
E0E0
C060
C060
C060
C060
0060
0060
0060
0078
0078
0060
0060
0060
0060
0060
0060
ENDCHAR
STARTCHAR char1333
ENCODING 1333
SWIDTH 551 0
DWIDTH 16 0
BBX 11 18 2 0
BITMAP
C000
C000
C000
C000
FFE0
FFE0
C000
C000
C000
C000
C060
C060
C060
C060
C0E0
E0C0
7FC0
3F80
ENDCHAR
STARTCHAR char1334
ENCODING 1334
SWIDTH 551 0
DWIDTH 16 0
BBX 13 19 1 0
BITMAP
0200
1FC0
3DE0
7070
6030
E038
E038
E038
0038
0038
0038
0030
0070
0060
00E0
61C0
6780
7FF0
7FF0
ENDCHAR
STARTCHAR char1335
ENCODING 1335
SWIDTH 551 0
DWIDTH 16 0
BBX 13 18 1 0
BITMAP
E000
E000
E000
E000
FFF8
FFF8
E000
E000
E000
E000
E000
E000
E000
E000
E000
E000
FFE0
FFE0
ENDCHAR
STARTCHAR char1336
ENCODING 1336
SWIDTH 551 0
DWIDTH 16 0
BBX 11 19 2 0
BITMAP
0400
3F80
7BC0
E0E0
C0E0
C060
C060
C060
C000
C000
C000
C000
C000
C000
C000
C000
C000
FFE0
FFE0
ENDCHAR
STARTCHAR char1337
ENCODING 1337
SWIDTH 551 0
DWIDTH 16 0
BBX 14 19 1 0
BITMAP
0400
3F80
7BC0
E060
C060
C070
C070
C070
C1FC
C7FC
CF30
CC30
CC30
CC30
CC70
CC70
CE70
C7E0
C7C0
ENDCHAR
STARTCHAR char1338
ENCODING 1338
SWIDTH 551 0
DWIDTH 16 0
BBX 13 18 1 0
BITMAP
0060
0060
0060
0060
07F8
3FF8
7860
6060
E060
E060
E060
E060
E060
E060
E060
70E0
7FC0
1F80
ENDCHAR
STARTCHAR char1339
ENCODING 1339
SWIDTH 551 0
DWIDTH 16 0
BBX 11 18 2 0
BITMAP
C000
C000
C000
C000
DF00
FFC0
F1C0
E0E0
C060
C060
C060
C060
C000
C000
C000
C000
C000
C000
ENDCHAR
STARTCHAR char1340
ENCODING 1340
SWIDTH 551 0
DWIDTH 16 0
BBX 11 18 2 0
BITMAP
C000
C000
C000
C000
C000
C000
C000
C000
C000
C000
C000
C000
C000
C000
C000
C000
FFE0
FFE0
ENDCHAR
STARTCHAR char1341
ENCODING 1341
SWIDTH 551 0
DWIDTH 16 0
BBX 13 18 1 0
BITMAP
C000
C000
C000
C000
FE18
FE18
C618
C618
C618
C618
C618
C618
C618
C618
C618
C638
C7F0
C3F0
ENDCHAR
STARTCHAR char1342
ENCODING 1342
SWIDTH 551 0
DWIDTH 16 0
BBX 13 19 1 0
BITMAP
00C0
C7F8
CF78
D800
FF80
FFE0
60F0
6030
E038
E018
E018
E018
E018
E018
E018
6038
7030
3FF0
1FC0
ENDCHAR
STARTCHAR char1343
ENCODING 1343
SWIDTH 551 0
DWIDTH 16 0
BBX 11 18 2 0
BITMAP
C000
C000
C000
C000
C060
C060
C060
C060
C060
C060
E0E0
71E0
3FE0
0E60
0060
0060
0060
0060
ENDCHAR
STARTCHAR char1344
ENCODING 1344
SWIDTH 551 0
DWIDTH 16 0
BBX 13 18 1 -1
BITMAP
00E0
00E0
0070
0070
00F8
03E0
0780
0E00
3C00
7800
7000
E000
F000
7C00
1F80
07E0
00F8
0038
ENDCHAR
STARTCHAR char1345
ENCODING 1345
SWIDTH 551 0
DWIDTH 16 0
BBX 13 19 1 -1
BITMAP
0200
1FC0
3DE0
7070
6030
E038
E038
E038
0038
0038
0038
0030
3E30
7FF0
63E0
E0E0
E1F0
7FF0
3F38
ENDCHAR
STARTCHAR char1346
ENCODING 1346
SWIDTH 551 0
DWIDTH 16 0
BBX 13 19 1 0
BITMAP
0400
3F80
7BC0
E0E0
C060
C060
C060
C060
0060
0060
0060
0060
0060
0060
0060
0060
0060
0078
0078
ENDCHAR
STARTCHAR char1347
ENCODING 1347
SWIDTH 551 0
DWIDTH 16 0
BBX 13 18 1 1
BITMAP
7038
38F8
39E0
1F80
0F00
0E00
0E00
1F00
1B80
3B80
31C0
70C0
60E0
E060
E070
E038
FFF8
7FF8
ENDCHAR
STARTCHAR char1348
ENCODING 1348
SWIDTH 551 0
DWIDTH 16 0
BBX 13 18 1 0
BITMAP
C078
C078
C060
C060
C060
C060
C060
C060
C060
C060
C060
C060
C060
C060
C0E0
E0E0
7FC0
3F80
ENDCHAR
STARTCHAR char1349
ENCODING 1349
SWIDTH 551 0
DWIDTH 16 0
BBX 13 18 1 1
BITMAP
1FE0
3FF0
3830
3030
0038
0030
0070
FFE0
FFE0
00F0
0038
0018
0018
6018
7038
7038
3FF0
1FE0
ENDCHAR
STARTCHAR char1350
ENCODING 1350
SWIDTH 551 0
DWIDTH 16 0
BBX 13 18 1 0
BITMAP
F000
F000
3000
3000
3000
3000
3000
3000
3000
3000
3018
3018
3018
3018
3818
3838
1FF0
0FE0
ENDCHAR
STARTCHAR char1351
ENCODING 1351
SWIDTH 551 0
DWIDTH 16 0
BBX 13 18 1 0
BITMAP
7C00
7F00
0FC0
1FF0
3870
7010
6000
6000
E000
E000
E038
E038
E038
E038
6030
7070
3FE0
1FC0
ENDCHAR
STARTCHAR char1352
ENCODING 1352
SWIDTH 551 0
DWIDTH 16 0
BBX 11 19 2 0
BITMAP
0400
3F80
7BC0
E0E0
C060
C060
C060
C060
C060
C060
C060
C060
C060
C060
C060
C060
C060
C060
C060
ENDCHAR
STARTCHAR char1353
ENCODING 1353
SWIDTH 551 0
DWIDTH 16 0
BBX 13 20 1 -1
BITMAP
0200
1FC0
3DE0
7070
6030
E038
E038
E038
0038
0038
0038
0030
0070
4070
79E0
7FC0
1F80
03E0
00E0
0020
ENDCHAR
STARTCHAR char1354
ENCODING 1354
SWIDTH 551 0
DWIDTH 16 0
BBX 13 19 1 0
BITMAP
0200
3FE0
7FF0
6730
E738
C718
C718
C718
0718
0718
0718
0718
0718
0018
0018
0018
0018
0018
0018
ENDCHAR
STARTCHAR char1355
ENCODING 1355
SWIDTH 551 0
DWIDTH 16 0
BBX 13 19 1 0
BITMAP
0200
1FC0
3DE0
7070
6030
E038
E038
E038
F038
7E38
3F38
0330
01F0
01E0
01E0
61C0
6780
7FF0
7FF0
ENDCHAR
STARTCHAR char1356
ENCODING 1356
SWIDTH 551 0
DWIDTH 16 0
BBX 13 19 1 0
BITMAP
0400
3F80
7BC0
E0E0
C060
C060
C060
C060
C060
C060
C060
C078
C078
C060
C060
C060
C060
C060
C060
ENDCHAR
STARTCHAR char1357
ENCODING 1357
SWIDTH 551 0
DWIDTH 16 0
BBX 11 18 2 0
BITMAP
C060
C060
C060
C060
C060
C060
C060
C060
C060
C060
C060
C060
C060
C060
C060
E0E0
7FC0
3F80
ENDCHAR
STARTCHAR char1358
ENCODING 1358
SWIDTH 551 0
DWIDTH 16 0
BBX 15 18 0 0
BITMAP
0070
0070
0070
0070
E070
E070
E070
E070
E070
6070
6070
79F0
3FF0
0770
0070
0070
007E
007E
ENDCHAR
STARTCHAR char1359
ENCODING 1359
SWIDTH 551 0
DWIDTH 16 0
BBX 13 19 1 0
BITMAP
0200
1FC0
3DE0
7070
7070
6000
7000
3800
3F00
0FC0
01E0
0070
0038
0038
E038
6038
7070
3FE0
1FC0
ENDCHAR
STARTCHAR char1360
ENCODING 1360
SWIDTH 551 0
DWIDTH 16 0
BBX 11 19 2 0
BITMAP
0400
3F80
7BC0
E0E0
C060
C060
C060
C060
C000
C000
C000
C000
C000
C000
C000
C000
C000
C000
C000
ENDCHAR
STARTCHAR char1361
ENCODING 1361
SWIDTH 551 0
DWIDTH 16 0
BBX 13 18 1 1
BITMAP
1FE0
3FF0
3830
3030
3038
3030
3870
FFE0
FFE0
00F0
0038
0018
0018
6018
7038
7038
3FF0
1FE0
ENDCHAR
STARTCHAR char1362
ENCODING 1362
SWIDTH 551 0
DWIDTH 16 0
BBX 11 18 2 0
BITMAP
C000
C000
C000
C000
FFE0
FFE0
C000
C000
C000
C000
C000
C000
C000
C000
C000
C000
C000
C000
ENDCHAR
STARTCHAR char1363
ENCODING 1363
SWIDTH 551 0
DWIDTH 16 0
BBX 13 18 1 0
BITMAP
0700
0F80
3FE0
7770
E738
E738
C718
C718
C718
C718
C718
C718
E738
6730
7FF0
1FC0
0700
0700
ENDCHAR
STARTCHAR char1364
ENCODING 1364
SWIDTH 551 0
DWIDTH 16 0
BBX 13 19 1 0
BITMAP
0100
0FE0
1EF0
3838
3818
3018
3018
3818
3838
3FF0
37E0
3000
3000
3000
FFF8
FFF8
3000
3000
3000
ENDCHAR
STARTCHAR char1365
ENCODING 1365
SWIDTH 551 0
DWIDTH 16 0
BBX 13 18 1 0
BITMAP
0F80
1FC0
38E0
7070
6030
6030
6030
E038
E038
E038
E038
6030
6030
6030
7070
38E0
3FE0
0F80
ENDCHAR
STARTCHAR char1366
ENCODING 1366
SWIDTH 551 0
DWIDTH 16 0
BBX 13 18 1 0
BITMAP
3F00
7F00
6700
6700
7F80
3FE0
07F0
0738
0718
0718
0718
C718
C718
C718
E738
E738
7FF0
3FE0
ENDCHAR
STARTCHAR char1369
ENCODING 1369
SWIDTH 551 0
DWIDTH 16 0
BBX 3 7 6 12
BITMAP
60
E0
C0
80
C0
60
20
ENDCHAR
STARTCHAR char1370
ENCODING 1370
SWIDTH 551 0
DWIDTH 16 0
BBX 3 6 6 12
BITMAP
60
60
60
C0
C0
80
ENDCHAR
STARTCHAR char1371
ENCODING 1371
SWIDTH 551 0
DWIDTH 16 0
BBX 5 5 5 15
BITMAP
18
30
70
60
C0
ENDCHAR
STARTCHAR char1372
ENCODING 1372
SWIDTH 551 0
DWIDTH 16 0
BBX 9 7 3 15
BITMAP
0180
0380
1F00
7E00
E000
C000
C000
ENDCHAR
STARTCHAR char1373
ENCODING 1373
SWIDTH 551 0
DWIDTH 16 0
BBX 5 5 5 15
BITMAP
C0
60
70
30
18
ENDCHAR
STARTCHAR char1374
ENCODING 1374
SWIDTH 551 0
DWIDTH 16 0
BBX 11 7 2 15
BITMAP
0F80
3FC0
70E0
6060
C660
C7C0
C180
ENDCHAR
STARTCHAR char1375
ENCODING 1375
SWIDTH 551 0
DWIDTH 16 0
BBX 11 4 2 15
BITMAP
C000
C000
FFE0
FFE0
ENDCHAR
STARTCHAR char1377
ENCODING 1377
SWIDTH 551 0
DWIDTH 16 0
BBX 13 14 1 0
BITMAP
C718
C718
C718
C718
C718
C718
C718
C718
C718
C718
C718
E738
7FF8
7BD8
ENDCHAR
STARTCHAR char1378
ENCODING 1378
SWIDTH 551 0
DWIDTH 16 0
BBX 11 19 2 -5
BITMAP
CF80
DFC0
F1C0
E0C0
E0E0
E0E0
C0E0
C0E0
C0E0
C000
C000
C000
FFE0
FFE0
C000
C000
C000
C000
C000
ENDCHAR
STARTCHAR char1379
ENCODING 1379
SWIDTH 551 0
DWIDTH 16 0
BBX 13 19 1 -5
BITMAP
1E60
3F60
71E0
E0E0
E060
C060
C060
C060
C060
C060
E0E0
60E0
7FF8
3F78
0060
0060
0060
0060
0060
ENDCHAR
STARTCHAR char1380
ENCODING 1380
SWIDTH 551 0
DWIDTH 16 0
BBX 13 19 1 -5
BITMAP
EF80
FFC0
F0C0
E0E0
E060
E060
E060
E060
E060
E060
E060
E060
E078
E078
0060
0060
0060
0060
0060
ENDCHAR
STARTCHAR char1381
ENCODING 1381
SWIDTH 551 0
DWIDTH 16 0
BBX 11 19 2 0
BITMAP
C000
C000
C000
C000
C000
FFE0
FFE0
C000
C000
C000
C0C0
C0C0
C0C0
C0C0
C0C0
C0C0
E1C0
7FC0
7EC0
ENDCHAR
STARTCHAR char1382
ENCODING 1382
SWIDTH 551 0
DWIDTH 16 0
BBX 13 19 1 -5
BITMAP
1E60
3F60
71E0
E0E0
E060
C060
C060
C060
C060
C060
E0E0
60E0
7FE0
3F60
0060
0060
0060
0078
0078
ENDCHAR
STARTCHAR char1383
ENCODING 1383
SWIDTH 551 0
DWIDTH 16 0
BBX 10 19 3 0
BITMAP
C000
C000
C000
C000
C000
FFC0
FFC0
C000
C000
C000
C000
C000
C000
C000
C000
C000
C000
FF00
FF00
ENDCHAR
STARTCHAR char1384
ENCODING 1384
SWIDTH 551 0
DWIDTH 16 0
BBX 11 19 2 -5
BITMAP
CF80
DFC0
F1C0
E0C0
E0E0
E0E0
C0E0
C0E0
C0E0
C0E0
C0E0
C0E0
C0E0
C0E0
C000
C000
C000
FFE0
FFE0
ENDCHAR
STARTCHAR char1385
ENCODING 1385
SWIDTH 551 0
DWIDTH 16 0
BBX 13 19 1 -5
BITMAP
CF80
DFC0
E0E0
E060
C070
C030
C030
C3F8
CFF8
CC30
CC30
CC60
CEE0
C7C0
C000
C000
C000
C000
C000
ENDCHAR
STARTCHAR char1386
ENCODING 1386
SWIDTH 551 0
DWIDTH 16 0
BBX 13 19 1 0
BITMAP
0060
0060
0060
0060
0060
0FF8
3FF8
7060
6060
E060
C060
C060
C060
C060
C060
E0E0
60C0
7FC0
3F80
ENDCHAR
STARTCHAR char1387
ENCODING 1387
SWIDTH 551 0
DWIDTH 16 0
BBX 11 24 2 -5
BITMAP
E000
E000
E000
E000
E000
EF80
FFC0
F1C0
E0E0
E0E0
E0E0
E0E0
E0E0
E0E0
E0E0
E0E0
E0E0
E0E0
E0E0
E000
E000
E000
E000
E000
ENDCHAR
STARTCHAR char1388
ENCODING 1388
SWIDTH 551 0
DWIDTH 16 0
BBX 7 19 4 -5
BITMAP
C0
C0
C0
C0
C0
C0
C0
C0
C0
C0
C0
C0
C0
C0
C0
C0
C0
FE
FE
ENDCHAR
STARTCHAR char1389
ENCODING 1389
SWIDTH 551 0
DWIDTH 16 0
BBX 13 24 1 -5
BITMAP
C000
C000
C000
C000
C000
DC18
FE18
E618
C618
C718
C718
C718
C718
C718
C718
C318
C338
C3F8
C3D8
C000
C000
C000
C000
C000
ENDCHAR
STARTCHAR char1390
ENCODING 1390
SWIDTH 551 0
DWIDTH 16 0
BBX 11 19 2 0
BITMAP
1800
3800
3000
7800
1E00
0FE0
3FE0
79C0
E0E0
E060
C060
C060
C060
C060
C060
E0E0
60E0
7FC0
3F80
ENDCHAR
STARTCHAR char1391
ENCODING 1391
SWIDTH 551 0
DWIDTH 16 0
BBX 11 24 2 -5
BITMAP
E000
E000
E000
E000
E000
E0E0
E0E0
E0E0
E0E0
E0E0
E0E0
E0E0
E0E0
E0E0
E0E0
E0E0
61E0
7FE0
3EE0
00E0
00E0
00E0
00E0
00E0
ENDCHAR
STARTCHAR char1392
ENCODING 1392
SWIDTH 551 0
DWIDTH 16 0
BBX 11 19 2 0
BITMAP
E000
E000
E000
E000
E000
E780
FFC0
F0C0
E0E0
E0E0
E060
E060
E060
E060
E060
E060
E060
E060
E060
ENDCHAR
STARTCHAR char1393
ENCODING 1393
SWIDTH 551 0
DWIDTH 16 0
BBX 11 19 2 0
BITMAP
1800
3800
3000
3900
1F00
0E00
1F00
1980
30C0
70C0
60E0
E060
E060
C060
C060
E0E0
60E0
7F60
3E60
ENDCHAR
STARTCHAR char1394
ENCODING 1394
SWIDTH 551 0
DWIDTH 16 0
BBX 13 19 1 -5
BITMAP
EF80
FFC0
F0C0
E0E0
E060
E060
E060
E060
E060
E060
E060
E060
E060
E060
0060
0060
0060
0078
0078
ENDCHAR
STARTCHAR char1395
ENCODING 1395
SWIDTH 551 0
DWIDTH 16 0
BBX 11 19 2 0
BITMAP
01E0
03E0
0E00
0C00
1800
FC00
FF00
33C0
60C0
60E0
6060
6060
E060
E060
E060
E0E0
60E0
7FE0
3F60
ENDCHAR
STARTCHAR char1396
ENCODING 1396
SWIDTH 551 0
DWIDTH 16 0
BBX 13 19 1 0
BITMAP
00F8
00F8
00E0
00E0
00E0
E0E0
E0E0
E0E0
E0E0
E0E0
E0E0
E0E0
E0E0
E0E0
E0E0
E0E0
61E0
7FE0
3EE0
ENDCHAR
STARTCHAR char1397
ENCODING 1397
SWIDTH 551 0
DWIDTH 16 0
BBX 7 19 4 -5
BITMAP
06
06
06
06
06
06
06
06
06
06
06
06
06
06
06
06
0E
FC
F8
ENDCHAR
STARTCHAR char1398
ENCODING 1398
SWIDTH 551 0
DWIDTH 16 0
BBX 13 19 1 0
BITMAP
F800
F800
3800
3800
3800
3818
3818
3818
3818
3818
3818
3818
3818
3838
3838
3838
1878
1FD8
0F98
ENDCHAR
STARTCHAR char1399
ENCODING 1399
SWIDTH 551 0
DWIDTH 16 0
BBX 11 19 2 -5
BITMAP
1F00
7FC0
E1C0
00E0
0060
0060
00E0
00C0
01C0
0380
0700
0E00
1C00
3800
7000
6000
E000
FFC0
7FC0
ENDCHAR
STARTCHAR char1400
ENCODING 1400
SWIDTH 551 0
DWIDTH 16 0
BBX 11 14 2 0
BITMAP
E780
FFC0
F0C0
E0E0
E0E0
E060
E060
E060
E060
E060
E060
E060
E060
E060
ENDCHAR
STARTCHAR char1401
ENCODING 1401
SWIDTH 551 0
DWIDTH 16 0
BBX 9 19 3 -5
BITMAP
1800
3800
3000
7000
7000
3D00
1F80
0700
0E00
1C00
1800
3000
7000
6000
E000
C000
C000
FF80
FF80
ENDCHAR
STARTCHAR char1402
ENCODING 1402
SWIDTH 551 0
DWIDTH 16 0
BBX 13 19 1 -5
BITMAP
C718
C718
C718
C718
C718
C718
C718
C718
C718
C718
C718
E738
7FF8
7BD8
0018
0018
0018
0018
0018
ENDCHAR
STARTCHAR char1403
ENCODING 1403
SWIDTH 551 0
DWIDTH 16 0
BBX 11 19 2 -5
BITMAP
1F00
7FC0
60C0
E0E0
C060
E060
60E0
70C0
39C0
1B80
1F00
1E00
1C00
3800
7000
6000
E000
FFC0
7FC0
ENDCHAR
STARTCHAR char1404
ENCODING 1404
SWIDTH 551 0
DWIDTH 16 0
BBX 11 14 2 0
BITMAP
CF00
FF80
E1C0
C0C0
C0C0
C0C0
C0C0
C0C0
C0C0
C1C0
C180
C300
C7E0
C7E0
ENDCHAR
STARTCHAR char1405
ENCODING 1405
SWIDTH 551 0
DWIDTH 16 0
BBX 11 14 2 0
BITMAP
E060
E060
E060
E060
E060
E060
E060
E060
E060
E0E0
60E0
71E0
7F60
3E60
ENDCHAR
STARTCHAR char1406
ENCODING 1406
SWIDTH 551 0
DWIDTH 16 0
BBX 13 24 1 -5
BITMAP
00E0
00E0
00E0
00E0
00E0
C0E0
C0E0
C0E0
C0E0
C0E0
C0E0
C0E0
C0E0
C0E0
E0E0
E0E0
61E0
7FE0
3EE0
00E0
00E0
00E0
00F8
00F8
ENDCHAR
STARTCHAR char1407
ENCODING 1407
SWIDTH 551 0
DWIDTH 16 0
BBX 13 14 1 0
BITMAP
C7F0
C7F0
C738
C718
C718
C718
C718
C718
C718
C718
C718
E718
7F18
7F18
ENDCHAR
STARTCHAR char1408
ENCODING 1408
SWIDTH 551 0
DWIDTH 16 0
BBX 11 19 2 -5
BITMAP
EF80
FFC0
F1C0
E0E0
E0E0
E0E0
E0E0
E0E0
E0E0
E0E0
E0E0
E0E0
E0E0
E0E0
E000
E000
E000
E000
E000
ENDCHAR
STARTCHAR char1409
ENCODING 1409
SWIDTH 551 0
DWIDTH 16 0
BBX 11 19 2 -5
BITMAP
1EE0
7FE0
71E0
E0E0
C0E0
C0E0
C0E0
C0E0
C0E0
C0E0
E0E0
71E0
7FE0
1EE0
00E0
00C0
41C0
7F80
3F00
ENDCHAR
STARTCHAR char1410
ENCODING 1410
SWIDTH 551 0
DWIDTH 16 0
BBX 9 14 3 0
BITMAP
C000
C000
C000
C000
C000
C000
C000
C000
C000
C000
C000
C000
FF80
FF80
ENDCHAR
STARTCHAR char1411
ENCODING 1411
SWIDTH 551 0
DWIDTH 16 0
BBX 13 24 1 -5
BITMAP
0700
0700
0700
0700
0700
C7F0
C7F0
C738
C718
C718
C718
C718
C718
C718
C718
C718
E718
7F18
7F18
0700
0700
0700
0700
0700
ENDCHAR
STARTCHAR char1412
ENCODING 1412
SWIDTH 551 0
DWIDTH 16 0
BBX 13 19 1 -5
BITMAP
37C0
3FE0
3870
3030
3030
3038
3038
3038
3038
3038
3030
3870
3FE0
37C0
3000
3000
FFF8
FFF8
3000
ENDCHAR
STARTCHAR char1413
ENCODING 1413
SWIDTH 551 0
DWIDTH 16 0
BBX 11 14 2 0
BITMAP
1F00
7FC0
71C0
E0E0
C060
C060
C060
C060
C060
C060
E0E0
71C0
7FC0
1F00
ENDCHAR
STARTCHAR char1414
ENCODING 1414
SWIDTH 551 0
DWIDTH 16 0
BBX 14 24 1 -5
BITMAP
3E00
7E00
C600
C600
C600
FF00
3FE0
06F0
0638
0618
0618
061C
061C
0618
0618
8618
E638
7FF0
3FC0
0600
0600
0600
0600
0600
ENDCHAR
STARTCHAR char1415
ENCODING 1415
SWIDTH 551 0
DWIDTH 16 0
BBX 13 19 1 0
BITMAP
C000
C000
C000
C000
C000
C0C0
C0C0
C0C0
C0C0
C0C0
C0C0
C0C0
C0C0
C0C0
C0C0
C0C0
E1C0
7FF8
7EF8
ENDCHAR
STARTCHAR char1417
ENCODING 1417
SWIDTH 551 0
DWIDTH 16 0
BBX 3 10 6 0
BITMAP
E0
E0
E0
00
00
00
00
E0
E0
E0
ENDCHAR
STARTCHAR char1418
ENCODING 1418
SWIDTH 551 0
DWIDTH 16 0
BBX 7 3 4 5
BITMAP
82
FE
7C
ENDCHAR
STARTCHAR char1542
ENCODING 1542
SWIDTH 551 0
DWIDTH 16 0
BBX 13 22 1 0
BITMAP
04B0
86B0
C3E0
C200
4200
6300
6300
2300
3300
3000
1000
1878
1878
0860
0C40
0CC0
0CC0
0680
0780
0780
0380
0300
ENDCHAR
STARTCHAR char1543
ENCODING 1543
SWIDTH 551 0
DWIDTH 16 0
BBX 13 22 1 0
BITMAP
01C0
8300
C200
C180
4300
6600
6600
27E0
31C0
3000
1000
1878
1878
0860
0C40
0CC0
0CC0
0680
0780
0780
0380
0300
ENDCHAR
STARTCHAR char1545
ENCODING 1545
SWIDTH 551 0
DWIDTH 16 0
BBX 13 16 1 0
BITMAP
C0C0
C0C0
C180
0180
0300
0300
0600
0C00
0C00
1800
1800
3000
3000
6398
6398
C398
ENDCHAR
STARTCHAR char1546
ENCODING 1546
SWIDTH 551 0
DWIDTH 16 0
BBX 15 16 0 0
BITMAP
C300
C600
C600
0600
0C00
0C00
1800
1800
1800
3000
3000
3000
6000
6666
6666
C666
ENDCHAR
STARTCHAR char1548
ENCODING 1548
SWIDTH 551 0
DWIDTH 16 0
BBX 3 6 6 0
BITMAP
60
60
E0
C0
C0
C0
ENDCHAR
STARTCHAR char1557
ENCODING 1557
SWIDTH 551 0
DWIDTH 16 0
BBX 7 6 4 16
BITMAP
60
60
60
7E
76
FC
ENDCHAR
STARTCHAR char1563
ENCODING 1563
SWIDTH 551 0
DWIDTH 16 0
BBX 3 16 6 0
BITMAP
20
60
60
C0
C0
C0
00
00
00
00
00
00
00
C0
C0
C0
ENDCHAR
STARTCHAR char1567
ENCODING 1567
SWIDTH 551 0
DWIDTH 16 0
BBX 9 19 3 0
BITMAP
0800
7F80
FF80
E080
C000
C000
E000
7000
3800
1C00
0C00
0C00
0C00
0C00
0000
0000
0C00
0C00
0C00
ENDCHAR
STARTCHAR char1569
ENCODING 1569
SWIDTH 551 0
DWIDTH 16 0
BBX 8 11 5 1
BITMAP
1E
7E
70
E0
E0
E0
7F
3F
3E
F8
C0
ENDCHAR
STARTCHAR char1570
ENCODING 1570
SWIDTH 551 0
DWIDTH 16 0
BBX 9 24 3 0
BITMAP
0080
F380
9E00
0000
0000
1C00
1C00
1C00
1C00
1C00
1C00
1C00
1C00
1C00
1C00
1C00
1C00
1C00
1C00
1C00
1C00
1C00
1C00
1C00
ENDCHAR
STARTCHAR char1571
ENCODING 1571
SWIDTH 551 0
DWIDTH 16 0
BBX 5 26 5 0
BITMAP
20
70
C0
40
78
C0
00
70
70
70
70
70
70
70
70
70
70
70
70
70
70
70
70
70
70
70
ENDCHAR
STARTCHAR char1572
ENCODING 1572
SWIDTH 551 0
DWIDTH 16 0
BBX 12 22 1 -6
BITMAP
0100
0380
0600
0200
03C0
0600
0000
0000
03C0
07E0
0FF0
0E70
0C30
0F30
07F0
03F0
0070
0060
01E0
07C0
FF00
FC00
ENDCHAR
STARTCHAR char1573
ENCODING 1573
SWIDTH 551 0
DWIDTH 16 0
BBX 5 25 5 -6
BITMAP
70
70
70
70
70
70
70
70
70
70
70
70
70
70
70
70
70
70
70
20
70
C0
40
78
C0
ENDCHAR
STARTCHAR char1574
ENCODING 1574
SWIDTH 551 0
DWIDTH 16 0
BBX 15 17 0 -3
BITMAP
0400
0E00
1800
0800
0F18
187C
006E
0066
0070
003C
601C
E00C
E00C
E01C
703C
7FF0
1FE0
ENDCHAR
STARTCHAR char1575
ENCODING 1575
SWIDTH 551 0
DWIDTH 16 0
BBX 3 19 6 0
BITMAP
E0
E0
E0
E0
E0
E0
E0
E0
E0
E0
E0
E0
E0
E0
E0
E0
E0
E0
E0
ENDCHAR
STARTCHAR char1576
ENCODING 1576
SWIDTH 551 0
DWIDTH 16 0
BBX 14 11 1 -4
BITMAP
0018
C01C
C01C
C01C
E078
FFF0
3FE0
0000
0000
0300
0300
ENDCHAR
STARTCHAR char1577
ENCODING 1577
SWIDTH 551 0
DWIDTH 16 0
BBX 9 14 3 -1
BITMAP
3600
3600
0000
0000
3800
7E00
EF00
C380
C180
C180
C180
E780
7F00
1800
ENDCHAR
STARTCHAR char1578
ENCODING 1578
SWIDTH 551 0
DWIDTH 16 0
BBX 14 10 1 0
BITMAP
0D80
0D80
0000
0018
C01C
C01C
C01C
E078
FFF0
3FE0
ENDCHAR
STARTCHAR char1579
ENCODING 1579
SWIDTH 551 0
DWIDTH 16 0
BBX 14 13 1 0
BITMAP
0200
0200
0000
0D80
0D80
0000
0018
C01C
C01C
C01C
E078
FFF0
3FE0
ENDCHAR
STARTCHAR char1580
ENCODING 1580
SWIDTH 551 0
DWIDTH 16 0
BBX 14 17 1 -6
BITMAP
0F00
FFF0
F3F0
0F00
1C00
3800
3000
6000
6000
6180
6180
6000
6000
7000
3C0C
1FFC
07F0
ENDCHAR
STARTCHAR char1581
ENCODING 1581
SWIDTH 551 0
DWIDTH 16 0
BBX 14 17 1 -6
BITMAP
0F00
FFF0
F3F0
0F00
1C00
3800
3000
6000
6000
6000
6000
6000
6000
7000
3C0C
1FFC
07F0
ENDCHAR
STARTCHAR char1582
ENCODING 1582
SWIDTH 551 0
DWIDTH 16 0
BBX 14 21 1 -6
BITMAP
0600
0600
0000
0000
0F00
FFF0
F3F0
0F00
1C00
3800
3000
6000
6000
6000
6000
6000
6000
7000
3C0C
1FFC
07F0
ENDCHAR
STARTCHAR char1583
ENCODING 1583
SWIDTH 551 0
DWIDTH 16 0
BBX 9 11 3 0
BITMAP
1C00
0E00
0700
0300
0380
0180
0180
0180
0380
FF00
FE00
ENDCHAR
STARTCHAR char1584
ENCODING 1584
SWIDTH 551 0
DWIDTH 16 0
BBX 9 15 3 0
BITMAP
0C00
0C00
0000
0000
1C00
0E00
0700
0300
0380
0180
0180
0180
0380
FF00
FE00
ENDCHAR
STARTCHAR char1585
ENCODING 1585
SWIDTH 551 0
DWIDTH 16 0
BBX 14 13 -1 -6
BITMAP
000C
000C
000C
000C
000C
000C
001C
001C
0038
00F0
07E0
FF80
FC00
ENDCHAR
STARTCHAR char1586
ENCODING 1586
SWIDTH 551 0
DWIDTH 16 0
BBX 14 18 -1 -6
BITMAP
0018
0018
0000
0000
0000
000C
000C
000C
000C
000C
000C
001C
001C
0038
00F0
07E0
FF80
FC00
ENDCHAR
STARTCHAR char1587
ENCODING 1587
SWIDTH 551 0
DWIDTH 16 0
BBX 17 15 -3 -6
BITMAP
000180
000180
031980
031980
031980
633980
63BD80
63EF80
C3EF00
C30000
C30000
C20000
660000
7C0000
3C0000
ENDCHAR
STARTCHAR char1588
ENCODING 1588
SWIDTH 551 0
DWIDTH 16 0
BBX 17 21 -3 -6
BITMAP
004000
004000
000000
01B000
01B000
000000
000180
000180
031980
031980
031980
633980
63BD80
63EF80
C3EF00
C30000
C30000
C20000
660000
7C0000
3C0000
ENDCHAR
STARTCHAR char1589
ENCODING 1589
SWIDTH 551 0
DWIDTH 16 0
BBX 18 14 -3 -6
BITMAP
000F00
001F80
0339C0
0370C0
63E1C0
63C780
E3FF00
C37E00
C30000
C30000
C30000
660000
7E0000
3C0000
ENDCHAR
STARTCHAR char1590
ENCODING 1590
SWIDTH 551 0
DWIDTH 16 0
BBX 18 16 -3 -6
BITMAP
018000
018000
000F00
001F80
0339C0
0370C0
63E1C0
63C780
E3FF00
C37E00
C30000
C30000
C30000
660000
7E0000
3C0000
ENDCHAR
STARTCHAR char1591
ENCODING 1591
SWIDTH 551 0
DWIDTH 16 0
BBX 15 19 0 0
BITMAP
1800
1800
1800
1800
1800
1800
1800
1800
1800
1800
1800
18F8
19FC
1BCC
1B0E
1F0C
1E3C
FFF8
FFE0
ENDCHAR
STARTCHAR char1592
ENCODING 1592
SWIDTH 551 0
DWIDTH 16 0
BBX 15 19 0 0
BITMAP
1800
1800
1800
1800
1800
1800
1800
1980
1980
1800
1800
18F8
19FC
1BCC
1B0E
1F0C
1E3C
FFF8
FFE0
ENDCHAR
STARTCHAR char1593
ENCODING 1593
SWIDTH 551 0
DWIDTH 16 0
BBX 14 19 1 -6
BITMAP
0780
1F80
3C00
3000
3000
30E0
3FE0
1F80
1E00
3800
7000
6000
E000
E000
6000
6000
780C
3FFC
0FF8
ENDCHAR
STARTCHAR char1594
ENCODING 1594
SWIDTH 551 0
DWIDTH 16 0
BBX 14 23 1 -6
BITMAP
0C00
0C00
0000
0000
0780
1F80
3C00
3000
3000
30E0
3FE0
1F80
1E00
3800
7000
6000
E000
E000
6000
6000
780C
3FFC
0FF8
ENDCHAR
STARTCHAR char1600
ENCODING 1600
SWIDTH 551 0
DWIDTH 16 0
BBX 15 2 0 0
BITMAP
FFFE
FFFE
ENDCHAR
STARTCHAR char1601
ENCODING 1601
SWIDTH 551 0
DWIDTH 16 0
BBX 15 16 -1 -1
BITMAP
0030
0030
0000
0000
0038
00FC
01FE
01C6
E1C6
C1CE
C0FE
C07E
E00E
703E
7FF8
1FE0
ENDCHAR
STARTCHAR char1602
ENCODING 1602
SWIDTH 551 0
DWIDTH 16 0
BBX 14 21 0 -5
BITMAP
01B0
01B0
0000
0000
00F0
01F8
03B8
031C
031C
039C
01FC
60EC
600C
601C
E01C
E018
E038
7070
7FE0
3FC0
0E00
ENDCHAR
STARTCHAR char1603
ENCODING 1603
SWIDTH 551 0
DWIDTH 16 0
BBX 14 20 0 -1
BITMAP
000C
000C
000C
000C
000C
000C
070C
080C
060C
030C
030C
1E0C
000C
000C
E00C
C00C
E03C
7CF8
3FF0
0780
ENDCHAR
STARTCHAR char1604
ENCODING 1604
SWIDTH 551 0
DWIDTH 16 0
BBX 12 23 1 -4
BITMAP
0030
0030
0030
0030
0030
0030
0030
0030
0030
0030
0030
0030
0030
0030
0030
E030
C030
C030
C030
E070
FBE0
7FC0
0F00
ENDCHAR
STARTCHAR char1605
ENCODING 1605
SWIDTH 551 0
DWIDTH 16 0
BBX 12 15 2 -6
BITMAP
0780
0FE0
1CE0
1860
1870
7C60
FFE0
E7C0
C000
C000
C000
C000
C000
C000
C000
ENDCHAR
STARTCHAR char1606
ENCODING 1606
SWIDTH 551 0
DWIDTH 16 0
BBX 13 15 1 -4
BITMAP
0600
0600
0000
0038
0018
0018
C018
C018
C018
C018
C038
C030
F0F0
7FE0
1F80
ENDCHAR
STARTCHAR char1607
ENCODING 1607
SWIDTH 551 0
DWIDTH 16 0
BBX 9 10 3 -1
BITMAP
3800
7E00
EF00
C380
C180
C180
C180
E780
7F00
1800
ENDCHAR
STARTCHAR char1608
ENCODING 1608
SWIDTH 551 0
DWIDTH 16 0
BBX 12 14 1 -6
BITMAP
03C0
07E0
0FF0
0E70
0C30
0F30
07F0
03F0
0070
0060
01E0
07C0
FF00
FC00
ENDCHAR
STARTCHAR char1609
ENCODING 1609
SWIDTH 551 0
DWIDTH 16 0
BBX 15 13 0 -3
BITMAP
0018
007C
006E
0066
0070
003C
601C
E00C
E00C
E01C
703C
7FF0
1FE0
ENDCHAR
STARTCHAR char1610
ENCODING 1610
SWIDTH 551 0
DWIDTH 16 0
BBX 15 16 0 -6
BITMAP
0018
007C
006E
0066
0070
003C
601C
E00C
E00C
E01C
703C
7FF0
1FE0
0000
06C0
06C0
ENDCHAR
STARTCHAR char1611
ENCODING 1611
SWIDTH 551 0
DWIDTH 16 0
BBX 7 6 4 15
BITMAP
02
3E
F0
02
3E
E0
ENDCHAR
STARTCHAR char1612
ENCODING 1612
SWIDTH 551 0
DWIDTH 16 0
BBX 7 7 4 15
BITMAP
18
3C
34
9E
8E
D8
70
ENDCHAR
STARTCHAR char1613
ENCODING 1613
SWIDTH 551 0
DWIDTH 16 0
BBX 7 6 4 -6
BITMAP
06
7E
C0
06
7E
C0
ENDCHAR
STARTCHAR char1614
ENCODING 1614
SWIDTH 551 0
DWIDTH 16 0
BBX 7 3 4 15
BITMAP
02
3E
E0
ENDCHAR
STARTCHAR char1615
ENCODING 1615
SWIDTH 551 0
DWIDTH 16 0
BBX 7 7 4 15
BITMAP
18
3C
34
1E
0E
38
E0
ENDCHAR
STARTCHAR char1616
ENCODING 1616
SWIDTH 551 0
DWIDTH 16 0
BBX 7 2 4 -2
BITMAP
1E
F0
ENDCHAR
STARTCHAR char1617
ENCODING 1617
SWIDTH 551 0
DWIDTH 16 0
BBX 7 7 4 15
BITMAP
02
12
92
92
9E
BE
E0
ENDCHAR
STARTCHAR char1618
ENCODING 1618
SWIDTH 551 0
DWIDTH 16 0
BBX 7 7 4 15
BITMAP
38
7C
C6
C6
C6
7C
38
ENDCHAR
STARTCHAR char1619
ENCODING 1619
SWIDTH 551 0
DWIDTH 16 0
BBX 9 3 3 15
BITMAP
0080
F380
9E00
ENDCHAR
STARTCHAR char1620
ENCODING 1620
SWIDTH 551 0
DWIDTH 16 0
BBX 5 6 5 15
BITMAP
20
70
C0
40
78
C0
ENDCHAR
STARTCHAR char1621
ENCODING 1621
SWIDTH 551 0
DWIDTH 16 0
BBX 5 6 5 -6
BITMAP
20
70
C0
40
78
C0
ENDCHAR
STARTCHAR char1626
ENCODING 1626
SWIDTH 551 0
DWIDTH 16 0
BBX 5 4 5 15
BITMAP
D8
D8
70
20
ENDCHAR
STARTCHAR char1632
ENCODING 1632
SWIDTH 551 0
DWIDTH 16 0
BBX 3 3 6 6
BITMAP
E0
E0
E0
ENDCHAR
STARTCHAR char1633
ENCODING 1633
SWIDTH 551 0
DWIDTH 16 0
BBX 5 16 5 0
BITMAP
C0
E0
60
70
30
30
30
38
38
18
18
18
18
18
18
18
ENDCHAR
STARTCHAR char1634
ENCODING 1634
SWIDTH 551 0
DWIDTH 16 0
BBX 11 16 2 0
BITMAP
C060
E060
60E0
78C0
7FC0
3F80
3000
3000
3800
1800
1800
1800
1800
1800
1800
1800
ENDCHAR
STARTCHAR char1635
ENCODING 1635
SWIDTH 551 0
DWIDTH 16 0
BBX 11 16 2 0
BITMAP
C660
E660
6660
6F60
7FE0
3FC0
3000
3000
3000
3800
3800
3800
1800
1800
1800
1800
ENDCHAR
STARTCHAR char1636
ENCODING 1636
SWIDTH 551 0
DWIDTH 16 0
BBX 9 16 3 0
BITMAP
0700
1F00
3C00
7000
6000
7000
3C00
3C00
7800
E000
C000
C000
C000
E180
7F80
3F00
ENDCHAR
STARTCHAR char1637
ENCODING 1637
SWIDTH 551 0
DWIDTH 16 0
BBX 11 16 2 0
BITMAP
0E00
1F00
3B80
3180
71C0
60C0
60C0
60C0
E0E0
E0E0
E0E0
60C0
60C0
71C0
7FC0
1F00
ENDCHAR
STARTCHAR char1638
ENCODING 1638
SWIDTH 551 0
DWIDTH 16 0
BBX 11 16 2 0
BITMAP
C180
FF80
7F80
0180
0180
0180
0180
01C0
01C0
00C0
00C0
00C0
00C0
00E0
00E0
0060
ENDCHAR
STARTCHAR char1639
ENCODING 1639
SWIDTH 551 0
DWIDTH 16 0
BBX 11 16 2 0
BITMAP
C060
E0E0
60C0
60C0
71C0
3180
3B80
3B80
1B00
1B00
1F00
0E00
0E00
0E00
0E00
0E00
ENDCHAR
STARTCHAR char1640
ENCODING 1640
SWIDTH 551 0
DWIDTH 16 0
BBX 11 16 2 0
BITMAP
0E00
0E00
0E00
0E00
0E00
1F00
1B00
1B00
1B00
3B80
3180
7180
60C0
60C0
E0E0
C060
ENDCHAR
STARTCHAR char1641
ENCODING 1641
SWIDTH 551 0
DWIDTH 16 0
BBX 11 16 2 0
BITMAP
1E00
7F00
E380
C180
C180
E180
7F80
3F80
0FC0
01C0
00C0
00C0
00C0
00C0
00E0
0060
ENDCHAR
STARTCHAR char1642
ENCODING 1642
SWIDTH 551 0
DWIDTH 16 0
BBX 9 16 3 0
BITMAP
C180
C180
C300
0300
0600
0600
0C00
0C00
1800
1800
3000
3000
6000
6180
C180
C180
ENDCHAR
STARTCHAR char1643
ENCODING 1643
SWIDTH 551 0
DWIDTH 16 0
BBX 7 11 4 -3
BITMAP
06
06
06
06
06
06
0C
1C
78
F0
C0
ENDCHAR
STARTCHAR char1644
ENCODING 1644
SWIDTH 551 0
DWIDTH 16 0
BBX 3 6 6 12
BITMAP
60
60
60
C0
C0
80
ENDCHAR
STARTCHAR char1645
ENCODING 1645
SWIDTH 551 0
DWIDTH 16 0
BBX 11 10 2 3
BITMAP
0400
0400
0400
0E00
FFE0
3F80
1F00
1F00
1B00
2080
ENDCHAR
STARTCHAR char1652
ENCODING 1652
SWIDTH 551 0
DWIDTH 16 0
BBX 5 6 5 16
BITMAP
20
70
C0
40
78
C0
ENDCHAR
STARTCHAR char1657
ENCODING 1657
SWIDTH 551 0
DWIDTH 16 0
BBX 14 15 1 0
BITMAP
0600
0600
0600
07E0
0760
0FC0
0000
0000
0018
C01C
C01C
C01C
E078
FFF0
3FE0
ENDCHAR
STARTCHAR char1658
ENCODING 1658
SWIDTH 551 0
DWIDTH 16 0
BBX 14 13 1 0
BITMAP
0300
0300
0000
0300
0300
0000
0018
C01C
C01C
C01C
E078
FFF0
3FE0
ENDCHAR
STARTCHAR char1659
ENCODING 1659
SWIDTH 551 0
DWIDTH 16 0
BBX 14 13 1 -6
BITMAP
0018
C01C
C01C
C01C
E078
FFF0
3FE0
0000
0600
0600
0000
0600
0600
ENDCHAR
STARTCHAR char1662
ENCODING 1662
SWIDTH 551 0
DWIDTH 16 0
BBX 14 13 1 -6
BITMAP
0018
C01C
C01C
C01C
E078
FFF0
3FE0
0000
0D80
0D80
0000
0200
0200
ENDCHAR
STARTCHAR char1663
ENCODING 1663
SWIDTH 551 0
DWIDTH 16 0
BBX 14 13 1 0
BITMAP
0D80
0D80
0000
0D80
0D80
0000
0018
C01C
C01C
C01C
E078
FFF0
3FE0
ENDCHAR
STARTCHAR char1664
ENCODING 1664
SWIDTH 551 0
DWIDTH 16 0
BBX 14 13 1 -6
BITMAP
0018
C01C
C01C
C01C
E078
FFF0
3FE0
0000
0D80
0D80
0000
0D80
0D80
ENDCHAR
STARTCHAR char1667
ENCODING 1667
SWIDTH 551 0
DWIDTH 16 0
BBX 14 17 1 -6
BITMAP
0F00
FFF0
F3F0
0F00
1C00
3800
3000
6000
6360
6360
6000
6000
6000
7000
3C0C
1FFC
07F0
ENDCHAR
STARTCHAR char1668
ENCODING 1668
SWIDTH 551 0
DWIDTH 16 0
BBX 14 17 1 -6
BITMAP
0F00
FFF0
F3F0
0F00
1C00
3800
3000
60C0
60C0
6000
60C0
60C0
6000
7000
3C0C
1FFC
07F0
ENDCHAR
STARTCHAR char1670
ENCODING 1670
SWIDTH 551 0
DWIDTH 16 0
BBX 14 17 1 -6
BITMAP
0F00
FFF0
F3F0
0F00
1C00
3800
3000
61B0
61B0
6000
6040
6040
6000
7000
3C0C
1FFC
07F0
ENDCHAR
STARTCHAR char1671
ENCODING 1671
SWIDTH 551 0
DWIDTH 16 0
BBX 14 17 1 -6
BITMAP
0F00
FFF0
F3F0
0F00
1C00
3800
3000
6360
6360
6000
6360
6360
6000
7000
3C0C
1FFC
07F0
ENDCHAR
STARTCHAR char1681
ENCODING 1681
SWIDTH 551 0
DWIDTH 16 0
BBX 16 21 -1 -6
BITMAP
0030
0030
0030
003F
003B
007E
0000
0000
000C
000C
000C
000C
000C
000C
001C
001C
0038
00F0
07E0
FF80
FC00
ENDCHAR
STARTCHAR char1688
ENCODING 1688
SWIDTH 551 0
DWIDTH 16 0
BBX 15 20 -1 -6
BITMAP
0008
0008
0000
0036
0036
0000
0000
000C
000C
000C
000C
000C
000C
001C
001C
0038
00F0
07E0
FF80
FC00
ENDCHAR
STARTCHAR char1700
ENCODING 1700
SWIDTH 551 0
DWIDTH 16 0
BBX 15 19 -1 -1
BITMAP
0010
0010
0000
006C
006C
0000
0000
0038
00FC
01FE
01C6
E1C6
C1CE
C0FE
C07E
E00E
703E
7FF8
1FE0
ENDCHAR
STARTCHAR char1705
ENCODING 1705
SWIDTH 551 0
DWIDTH 16 0
BBX 17 20 0 -1
BITMAP
000080
000180
000780
000F00
001C00
003800
007000
00E000
006000
007000
003800
001C00
600C00
E00E00
C00600
C00E00
E01C00
787C00
3FF000
0FE000
ENDCHAR
STARTCHAR char1711
ENCODING 1711
SWIDTH 551 0
DWIDTH 16 0
BBX 17 23 0 0
BITMAP
000100
000300
000E00
001C80
003980
006780
00CF00
009C00
003800
007000
00E000
006000
007000
003800
001C00
600C00
E00E00
C00600
C00E00
E01C00
787C00
3FF000
0FE000
ENDCHAR
STARTCHAR char1726
ENCODING 1726
SWIDTH 551 0
DWIDTH 16 0
BBX 14 13 0 -1
BITMAP
0600
0700
03C0
07E0
0EF0
0C78
0C78
06EC
C6CC
E7CC
FFCC
7FFC
0070
ENDCHAR
STARTCHAR char1740
ENCODING 1740
SWIDTH 551 0
DWIDTH 16 0
BBX 15 13 0 -3
BITMAP
0018
007C
006E
0066
0070
003C
601C
E00C
E00C
E01C
703C
7FF0
1FE0
ENDCHAR
STARTCHAR char1776
ENCODING 1776
SWIDTH 551 0
DWIDTH 16 0
BBX 3 3 6 6
BITMAP
E0
E0
E0
ENDCHAR
STARTCHAR char1777
ENCODING 1777
SWIDTH 551 0
DWIDTH 16 0
BBX 5 16 5 0
BITMAP
C0
E0
60
70
30
30
30
38
38
18
18
18
18
18
18
18
ENDCHAR
STARTCHAR char1778
ENCODING 1778
SWIDTH 551 0
DWIDTH 16 0
BBX 11 16 2 0
BITMAP
C060
E060
60E0
78C0
7FC0
3F80
3000
3000
3800
1800
1800
1800
1800
1800
1800
1800
ENDCHAR
STARTCHAR char1779
ENCODING 1779
SWIDTH 551 0
DWIDTH 16 0
BBX 11 16 2 0
BITMAP
C660
E660
6660
6F60
7FE0
3FC0
3000
3000
3000
3800
3800
3800
1800
1800
1800
1800
ENDCHAR
STARTCHAR char1780
ENCODING 1780
SWIDTH 551 0
DWIDTH 16 0
BBX 11 16 2 0
BITMAP
E3C0
67C0
7600
7E00
3FE0
3FE0
3800
1800
1800
1800
1800
1800
1800
1800
1800
1800
ENDCHAR
STARTCHAR char1781
ENCODING 1781
SWIDTH 551 0
DWIDTH 16 0
BBX 11 16 2 0
BITMAP
0E00
1F00
3B80
3180
71C0
60C0
60C0
E0E0
C060
C060
C060
C060
EEE0
6EE0
7BC0
7BC0
ENDCHAR
STARTCHAR char1782
ENCODING 1782
SWIDTH 551 0
DWIDTH 16 0
BBX 9 16 3 0
BITMAP
0F00
3F00
3000
7000
6000
7000
3980
3F80
0F00
1C00
3800
3000
7000
6000
6000
E000
ENDCHAR
STARTCHAR char1783
ENCODING 1783
SWIDTH 551 0
DWIDTH 16 0
BBX 11 16 2 0
BITMAP
C060
E0E0
60C0
60C0
71C0
3180
3B80
3B80
1B00
1B00
1F00
0E00
0E00
0E00
0E00
0E00
ENDCHAR
STARTCHAR char1784
ENCODING 1784
SWIDTH 551 0
DWIDTH 16 0
BBX 11 16 2 0
BITMAP
0E00
0E00
0E00
0E00
0E00
1F00
1B00
1B00
1B00
3B80
3180
7180
60C0
60C0
E0E0
C060
ENDCHAR
STARTCHAR char1785
ENCODING 1785
SWIDTH 551 0
DWIDTH 16 0
BBX 11 16 2 0
BITMAP
1E00
7F00
E380
C180
C180
E180
7F80
3F80
0FC0
01C0
00C0
00C0
00C0
00C0
00E0
0060
ENDCHAR
STARTCHAR char3647
ENCODING 3647
SWIDTH 551 0
DWIDTH 16 0
BBX 12 23 2 -4
BITMAP
0400
0400
0400
FF00
FFC0
E4E0
E460
E460
E4E0
E5C0
FF00
E5C0
E460
E470
E470
E470
E4E0
FFE0
FF80
0400
0400
0400
0400
ENDCHAR
STARTCHAR char3713
ENCODING 3713
SWIDTH 551 0
DWIDTH 16 0
BBX 13 14 1 0
BITMAP
77E0
FFF0
9C30
F838
7838
1838
1838
1838
1838
7838
F838
D838
F838
7038
ENDCHAR
STARTCHAR char3714
ENCODING 3714
SWIDTH 551 0
DWIDTH 16 0
BBX 13 14 1 0
BITMAP
0FE0
3FF0
7830
CC38
CC38
7830
31F0
0FC0
3F00
7800
E000
E0F0
7FF8
3F18
ENDCHAR
STARTCHAR char3716
ENCODING 3716
SWIDTH 551 0
DWIDTH 16 0
BBX 12 14 1 0
BITMAP
1FC0
3FE0
7070
6030
E030
7E30
6E30
7E30
7830
E030
7E30
7F30
7F30
3E30
ENDCHAR
STARTCHAR char3719
ENCODING 3719
SWIDTH 551 0
DWIDTH 16 0
BBX 9 20 3 -6
BITMAP
7E00
FF00
DB00
F980
7180
0180
0180
0180
0180
0180
0180
0180
0180
0180
0180
0180
6180
6380
7F00
3E00
ENDCHAR
STARTCHAR char3720
ENCODING 3720
SWIDTH 551 0
DWIDTH 16 0
BBX 12 14 2 0
BITMAP
3F80
FBC0
C0E0
C060
C060
CF70
1FF0
1BF0
1F70
0E70
0070
0070
0070
0070
ENDCHAR
STARTCHAR char3722
ENCODING 3722
SWIDTH 551 0
DWIDTH 16 0
BBX 14 20 1 -6
BITMAP
1FC0
3FF0
7830
D830
D830
7870
23E0
1F80
3C00
7060
60F0
60F0
7FF0
3FB0
0038
0038
0018
0018
001C
0008
ENDCHAR
STARTCHAR char3725
ENCODING 3725
SWIDTH 551 0
DWIDTH 16 0
BBX 13 14 1 0
BITMAP
3E38
7638
F638
FE38
6038
6038
7C38
3C38
7838
6030
E030
6070
7FE0
3FC0
ENDCHAR
STARTCHAR char3732
ENCODING 3732
SWIDTH 551 0
DWIDTH 16 0
BBX 12 14 2 0
BITMAP
3F80
FFE0
E0E0
C070
C070
C070
C070
C070
C070
F070
F870
D870
F870
F070
ENDCHAR
STARTCHAR char3733
ENCODING 3733
SWIDTH 551 0
DWIDTH 16 0
BBX 12 14 2 0
BITMAP
79E0
D9F0
DB30
CF30
C630
C030
C030
C030
C030
F030
F830
D830
D830
F830
ENDCHAR
STARTCHAR char3734
ENCODING 3734
SWIDTH 551 0
DWIDTH 16 0
BBX 13 20 0 -6
BITMAP
73E0
FFF0
DC38
7C18
3818
1818
1818
1818
1818
1818
1F18
1B18
1918
0F18
0018
0018
0018
0018
0018
0018
ENDCHAR
STARTCHAR char3735
ENCODING 3735
SWIDTH 551 0
DWIDTH 16 0
BBX 13 14 1 0
BITMAP
78F0
C9F0
F998
7998
3998
7198
6198
6198
C198
C198
C398
6318
7F18
3E18
ENDCHAR
STARTCHAR char3737
ENCODING 3737
SWIDTH 551 0
DWIDTH 16 0
BBX 13 14 1 0
BITMAP
7838
FC38
CC38
FC38
7C38
0C38
0C38
0C38
0C38
0C38
1C38
1E30
3FF0
FBE0
ENDCHAR
STARTCHAR char3738
ENCODING 3738
SWIDTH 551 0
DWIDTH 16 0
BBX 12 14 2 0
BITMAP
F070
F870
D870
F870
F870
7070
6070
C070
C070
C070
C060
C0E0
FFC0
3F80
ENDCHAR
STARTCHAR char3739
ENCODING 3739
SWIDTH 551 0
DWIDTH 16 0
BBX 12 19 2 0
BITMAP
0070
0070
0070
0070
0070
F070
F870
D870
F870
F870
7070
6070
C070
C070
C070
C060
C0E0
FFC0
3F80
ENDCHAR
STARTCHAR char3740
ENCODING 3740
SWIDTH 551 0
DWIDTH 16 0
BBX 14 16 1 0
BITMAP
0004
000C
70F4
F8F4
C99C
F8F8
F078
C038
C038
C738
C738
C738
C738
E738
7FF0
3DE0
ENDCHAR
STARTCHAR char3741
ENCODING 3741
SWIDTH 551 0
DWIDTH 16 0
BBX 13 19 1 0
BITMAP
0038
0038
0038
0038
0038
7038
F838
C838
F838
F038
C038
C038
C738
C738
C738
C738
E738
7FF0
3DE0
ENDCHAR
STARTCHAR char3742
ENCODING 3742
SWIDTH 551 0
DWIDTH 16 0
BBX 13 14 1 0
BITMAP
7818
7C18
EC18
EC18
7C18
3818
7018
7318
E318
E318
C318
E738
7FF0
7DF0
ENDCHAR
STARTCHAR char3743
ENCODING 3743
SWIDTH 551 0
DWIDTH 16 0
BBX 13 19 1 0
BITMAP
0018
0018
0018
0018
0018
7818
7C18
EC18
EC18
7C18
3818
7018
7318
E318
E318
C318
E738
7FF0
7DF0
ENDCHAR
STARTCHAR char3745
ENCODING 3745
SWIDTH 551 0
DWIDTH 16 0
BBX 14 14 0 0
BITMAP
0E1C
0E1C
0E1C
0E1C
0E1C
0E1C
0E1C
0E1C
0E1C
0E1C
0E1C
FE1C
FFF8
FFF0
ENDCHAR
STARTCHAR char3746
ENCODING 3746
SWIDTH 551 0
DWIDTH 16 0
BBX 13 19 1 0
BITMAP
0038
0038
0038
0038
0038
3E38
7638
F638
FE38
6038
6038
7C38
3C38
7838
6030
E030
6070
7FE0
3FC0
ENDCHAR
STARTCHAR char3747
ENCODING 3747
SWIDTH 551 0
DWIDTH 16 0
BBX 13 14 1 0
BITMAP
3FC0
7FF0
E078
C010
E000
7F00
3FE0
0070
7038
F818
CC18
F838
7FF0
3FE0
ENDCHAR
STARTCHAR char3749
ENCODING 3749
SWIDTH 551 0
DWIDTH 16 0
BBX 13 14 1 0
BITMAP
1FE0
3FF0
7038
6038
6038
0018
0018
7E18
7618
F318
FF18
CF38
FDF8
79F0
ENDCHAR
STARTCHAR char3751
ENCODING 3751
SWIDTH 551 0
DWIDTH 16 0
BBX 13 14 1 0
BITMAP
1FC0
3FF0
7078
6038
0038
0038
0038
0038
7838
7C38
CC38
FC38
7FF0
3FE0
ENDCHAR
STARTCHAR char3754
ENCODING 3754
SWIDTH 551 0
DWIDTH 16 0
BBX 15 17 1 1
BITMAP
000C
000E
0006
7FF6
F9FE
C01C
FDFC
7FF8
0018
0018
7E18
7618
F318
FF18
CF38
FDF8
79F0
ENDCHAR
STARTCHAR char3755
ENCODING 3755
SWIDTH 551 0
DWIDTH 16 0
BBX 15 14 0 0
BITMAP
7BFC
DEFE
DEEE
7BC6
30C6
60C6
60C6
60C6
E0C6
E0C6
E0C6
E0C6
7FC6
3F86
ENDCHAR
STARTCHAR char3757
ENCODING 3757
SWIDTH 551 0
DWIDTH 16 0
BBX 13 14 1 0
BITMAP
3FE0
7FF0
6038
E038
6038
7FF8
3FF8
0038
7838
7C38
CC38
7C38
7FF0
1FE0
ENDCHAR
STARTCHAR char3758
ENCODING 3758
SWIDTH 551 0
DWIDTH 16 0
BBX 14 15 1 0
BITMAP
000C
7F0C
FF9C
E1F8
E070
7E00
1FC0
01F0
2030
F838
D838
D838
F870
7FF0
1FC0
ENDCHAR
STARTCHAR char3759
ENCODING 3759
SWIDTH 551 0
DWIDTH 16 0
BBX 14 16 1 -3
BITMAP
7E00
FF00
F378
DEFC
CDD8
C3B8
C738
FE70
78E0
01C0
0380
0700
0E00
1C00
3800
3000
ENDCHAR
STARTCHAR char3760
ENCODING 3760
SWIDTH 551 0
DWIDTH 16 0
BBX 13 14 1 0
BITMAP
7820
FC70
CC38
FC38
7FF0
3FE0
0000
0000
7820
FC70
CC38
FC38
7FF0
3FC0
ENDCHAR
STARTCHAR char3761
ENCODING 3761
SWIDTH 551 0
DWIDTH 16 0
BBX 13 6 -14 16
BITMAP
7820
FC70
CC38
FC38
7FF0
3FC0
ENDCHAR
STARTCHAR char3762
ENCODING 3762
SWIDTH 551 0
DWIDTH 16 0
BBX 11 14 2 0
BITMAP
1F00
7FC0
E0C0
F8E0
F860
D860
F860
7060
0060
0060
0060
0060
0060
0060
ENDCHAR
STARTCHAR char3763
ENCODING 3763
SWIDTH 551 0
DWIDTH 16 0
BBX 23 20 -10 0
BITMAP
780000
D80000
D80000
F80000
000000
000000
0001F0
0007FC
000E0C
000F8E
000F86
000D86
000F86
000706
000006
000006
000006
000006
000006
000006
ENDCHAR
STARTCHAR char3764
ENCODING 3764
SWIDTH 551 0
DWIDTH 16 0
BBX 13 8 1 15
BITMAP
3FE0
78F0
E038
C018
C018
E038
7CF0
0480
ENDCHAR
STARTCHAR char3765
ENCODING 3765
SWIDTH 551 0
DWIDTH 16 0
BBX 15 8 1 15
BITMAP
3FE0
78F0
E038
C018
C018
E038
7CFE
04FE
ENDCHAR
STARTCHAR char3766
ENCODING 3766
SWIDTH 551 0
DWIDTH 16 0
BBX 13 8 1 15
BITMAP
3FE0
78F0
E738
C718
C718
E038
7CF0
0480
ENDCHAR
STARTCHAR char3767
ENCODING 3767
SWIDTH 551 0
DWIDTH 16 0
BBX 15 8 1 15
BITMAP
3FE0
78F0
E738
C718
C718
E038
7CFE
04FE
ENDCHAR
STARTCHAR char3768
ENCODING 3768
SWIDTH 551 0
DWIDTH 16 0
BBX 5 8 6 -9
BITMAP
E0
B0
B8
F8
18
10
30
20
ENDCHAR
STARTCHAR char3769
ENCODING 3769
SWIDTH 551 0
DWIDTH 16 0
BBX 6 7 5 -8
BITMAP
C4
C4
C4
84
84
FC
30
ENDCHAR
STARTCHAR char3771
ENCODING 3771
SWIDTH 551 0
DWIDTH 16 0
BBX 13 6 1 16
BITMAP
1FE0
7FF8
F838
DC38
F838
7810
ENDCHAR
STARTCHAR char3772
ENCODING 3772
SWIDTH 551 0
DWIDTH 16 0
BBX 15 6 0 -7
BITMAP
7C00
FF04
F30E
D3DE
F1F8
F020
ENDCHAR
STARTCHAR char3784
ENCODING 3784
SWIDTH 551 0
DWIDTH 16 0
BBX 3 5 6 15
BITMAP
E0
E0
E0
E0
E0
ENDCHAR
STARTCHAR char3785
ENCODING 3785
SWIDTH 551 0
DWIDTH 16 0
BBX 13 7 1 15
BITMAP
F018
B018
F018
3030
3070
7FE0
7F00
ENDCHAR
STARTCHAR char3786
ENCODING 3786
SWIDTH 551 0
DWIDTH 16 0
BBX 15 7 1 15
BITMAP
3060
7DF0
CFB0
C830
DC66
ECFE
78F8
ENDCHAR
STARTCHAR char3787
ENCODING 3787
SWIDTH 551 0
DWIDTH 16 0
BBX 7 7 4 15
BITMAP
10
10
FE
FE
10
10
10
ENDCHAR
STARTCHAR char3788
ENCODING 3788
SWIDTH 551 0
DWIDTH 16 0
BBX 15 6 0 16
BITMAP
7C00
FF04
F30E
D3DE
F1F8
F020
ENDCHAR
STARTCHAR char3789
ENCODING 3789
SWIDTH 551 0
DWIDTH 16 0
BBX 5 4 5 16
BITMAP
78
D8
D8
F8
ENDCHAR
STARTCHAR char4304
ENCODING 4304
SWIDTH 551 0
DWIDTH 16 0
BBX 11 14 2 0
BITMAP
1800
1800
0E00
0F80
03C0
00E0
6060
C060
C060
C060
E0E0
60C0
7FC0
1F00
ENDCHAR
STARTCHAR char4305
ENCODING 4305
SWIDTH 551 0
DWIDTH 16 0
BBX 11 19 2 0
BITMAP
6000
7800
3C00
0E00
0600
0600
1F00
3F80
60C0
E0E0
C060
C060
C060
C060
C060
E0E0
60C0
3FC0
1F00
ENDCHAR
STARTCHAR char4306
ENCODING 4306
SWIDTH 551 0
DWIDTH 16 0
BBX 13 18 1 -5
BITMAP
0F00
3FC0
30C0
60C0
70C0
00C0
0180
1FC0
3FE0
7070
6030
E038
E038
E038
6030
7070
3FE0
1FC0
ENDCHAR
STARTCHAR char4307
ENCODING 4307
SWIDTH 551 0
DWIDTH 16 0
BBX 13 18 1 -5
BITMAP
10C0
7FF0
E638
C618
C618
C618
C618
C618
C618
C618
C338
63F0
6000
3800
1E00
3F00
21C0
00E0
ENDCHAR
STARTCHAR char4308
ENCODING 4308
SWIDTH 551 0
DWIDTH 16 0
BBX 11 18 2 -5
BITMAP
0F00
3FC0
30E0
6060
6060
6060
7060
0060
0060
0060
7060
E060
C060
C060
C060
E0E0
7FC0
3F80
ENDCHAR
STARTCHAR char4309
ENCODING 4309
SWIDTH 551 0
DWIDTH 16 0
BBX 11 18 2 -5
BITMAP
0F00
3FC0
70E0
6060
6060
6060
60E0
00C0
0780
07C0
00E0
6060
C060
C060
C060
E0E0
7FC0
3F80
ENDCHAR
STARTCHAR char4310
ENCODING 4310
SWIDTH 551 0
DWIDTH 16 0
BBX 11 19 2 0
BITMAP
3C00
7F00
C300
C300
C300
C300
6200
3F00
7BC0
60C0
E060
C060
C060
C060
C060
E0E0
60C0
7FC0
1F00
ENDCHAR
STARTCHAR char4311
ENCODING 4311
SWIDTH 551 0
DWIDTH 16 0
BBX 13 13 1 0
BITMAP
0840
7FF0
E338
C318
C318
C318
C318
C318
C318
C318
E338
7E30
3C60
ENDCHAR
STARTCHAR char4312
ENCODING 4312
SWIDTH 551 0
DWIDTH 16 0
BBX 11 13 2 0
BITMAP
0E00
3F80
71C0
E0E0
C060
C060
C060
C060
C060
E0E0
60C0
71C0
3180
ENDCHAR
STARTCHAR char4313
ENCODING 4313
SWIDTH 551 0
DWIDTH 16 0
BBX 11 17 2 -4
BITMAP
0F80
07C0
00E0
0060
0060
00E0
01C0
0700
03C0
60E0
E060
C060
C060
C060
E0E0
7FC0
3F80
ENDCHAR
STARTCHAR char4314
ENCODING 4314
SWIDTH 551 0
DWIDTH 16 0
BBX 11 18 2 -5
BITMAP
0E00
3F80
71C0
E0E0
C060
C060
C060
C060
C0C0
E0C0
60C0
7000
3000
1800
7E00
6F00
0380
0180
ENDCHAR
STARTCHAR char4315
ENCODING 4315
SWIDTH 551 0
DWIDTH 16 0
BBX 11 19 2 0
BITMAP
3F80
7FC0
60E0
E060
0060
0060
0E60
3FE0
71E0
E0E0
C060
C060
C060
C060
C060
E0E0
60C0
7FC0
1F00
ENDCHAR
STARTCHAR char4316
ENCODING 4316
SWIDTH 551 0
DWIDTH 16 0
BBX 11 19 2 0
BITMAP
1FC0
7FC0
E000
C000
C000
C000
CE00
DF80
F1C0
E0E0
C060
C060
C060
C060
C060
E0E0
60C0
7FC0
1F00
ENDCHAR
STARTCHAR char4317
ENCODING 4317
SWIDTH 551 0
DWIDTH 16 0
BBX 13 13 1 0
BITMAP
0880
7DF0
E738
C718
C318
C318
C318
C318
C018
C018
E018
6030
3060
ENDCHAR
STARTCHAR char4318
ENCODING 4318
SWIDTH 551 0
DWIDTH 16 0
BBX 11 19 2 0
BITMAP
7000
3E00
1F80
01C0
00E0
00E0
00C0
03C0
0700
01C0
60C0
E060
C060
C060
C060
E0E0
60E0
7FC0
1F00
ENDCHAR
STARTCHAR char4319
ENCODING 4319
SWIDTH 551 0
DWIDTH 16 0
BBX 11 18 2 -5
BITMAP
01E0
FFE0
F060
7060
1C60
0C60
0C60
0C60
1C60
F860
E060
0060
0060
0060
C060
E0E0
7FC0
3F80
ENDCHAR
STARTCHAR char4320
ENCODING 4320
SWIDTH 551 0
DWIDTH 16 0
BBX 13 19 1 0
BITMAP
0080
0780
0E00
1C00
3000
2000
7040
7DF0
E738
C318
C318
C318
C318
C318
C018
C018
E038
6030
3060
ENDCHAR
STARTCHAR char4321
ENCODING 4321
SWIDTH 551 0
DWIDTH 16 0
BBX 11 19 2 0
BITMAP
C000
C000
C000
C000
C100
C380
C300
C300
C380
C1C0
C0E0
C060
C060
C060
C060
E0E0
60C0
7FC0
1F00
ENDCHAR
STARTCHAR char4322
ENCODING 4322
SWIDTH 551 0
DWIDTH 16 0
BBX 13 20 1 -5
BITMAP
0300
0200
0200
1FC0
3AE0
7270
E238
C218
C318
C318
C318
C018
C018
C018
C018
C018
E038
7070
3FE0
1FC0
ENDCHAR
STARTCHAR char4323
ENCODING 4323
SWIDTH 551 0
DWIDTH 16 0
BBX 12 18 1 -5
BITMAP
10C0
B9F0
E730
4630
0630
0630
0630
0630
0030
0030
3830
3030
7030
6030
7030
3030
3FF0
0FC0
ENDCHAR
STARTCHAR char4324
ENCODING 4324
SWIDTH 551 0
DWIDTH 16 0
BBX 13 18 1 -5
BITMAP
1860
7FF0
E318
C318
C318
C318
C318
C318
C310
E360
7E38
3C18
0018
3018
3018
3818
1FF8
0FE0
ENDCHAR
STARTCHAR char4325
ENCODING 4325
SWIDTH 551 0
DWIDTH 16 0
BBX 11 24 2 -5
BITMAP
0060
0060
0060
0060
0060
0060
1E60
3F60
71E0
60E0
60E0
6060
7060
0060
0060
0060
6060
E060
C060
C060
C060
E0E0
7FC0
3F80
ENDCHAR
STARTCHAR char4326
ENCODING 4326
SWIDTH 551 0
DWIDTH 16 0
BBX 13 18 1 -5
BITMAP
1840
7DF0
E738
C318
C318
C318
C318
C318
C018
C018
E030
6030
3000
1C00
1F00
3F80
01C0
00E0
ENDCHAR
STARTCHAR char4327
ENCODING 4327
SWIDTH 551 0
DWIDTH 16 0
BBX 11 17 2 -5
BITMAP
3860
7060
E060
C060
C060
C060
C060
E060
70E0
3FE0
0E60
0060
C060
C060
E0E0
7FC0
3F80
ENDCHAR
STARTCHAR char4328
ENCODING 4328
SWIDTH 551 0
DWIDTH 16 0
BBX 12 19 1 0
BITMAP
71E0
FBF0
CE30
CE30
0430
0030
0730
1FB0
38F0
7070
6030
6030
6030
6030
6030
7070
3870
1FE0
0FC0
ENDCHAR
STARTCHAR char4329
ENCODING 4329
SWIDTH 551 0
DWIDTH 16 0
BBX 11 19 2 0
BITMAP
3E00
7F80
E180
C180
C180
C180
C180
DF80
F1C0
E0E0
C060
C060
C060
C060
C060
C0E0
C0C0
C180
C300
ENDCHAR
STARTCHAR char4330
ENCODING 4330
SWIDTH 551 0
DWIDTH 16 0
BBX 13 18 1 -5
BITMAP
2180
3180
71C0
6070
6038
E038
C030
C3E0
C3E0
C030
C018
C018
E018
E018
6038
7030
3FF0
1FC0
ENDCHAR
STARTCHAR char4331
ENCODING 4331
SWIDTH 551 0
DWIDTH 16 0
BBX 11 19 2 0
BITMAP
0060
0060
0060
0060
0060
0060
0E60
3FE0
71E0
E0E0
C060
C060
C060
C060
C060
E0E0
60C0
7FC0
1F00
ENDCHAR
STARTCHAR char4332
ENCODING 4332
SWIDTH 551 0
DWIDTH 16 0
BBX 12 19 2 0
BITMAP
78E0
FDF0
E730
C330
C300
C000
CE00
DF80
F1C0
E0E0
C060
C060
C060
C060
C060
E0E0
60C0
7FC0
1F00
ENDCHAR
STARTCHAR char4333
ENCODING 4333
SWIDTH 551 0
DWIDTH 16 0
BBX 11 24 2 -5
BITMAP
0600
0600
0600
0600
0600
0600
3E00
7300
6300
E1E0
E1E0
6300
7E00
1E00
0300
0380
01C0
C0E0
E060
C060
C060
E0E0
7FC0
3F80
ENDCHAR
STARTCHAR char4334
ENCODING 4334
SWIDTH 551 0
DWIDTH 16 0
BBX 11 19 2 0
BITMAP
C000
C000
C000
C000
C000
C000
CE00
DF80
F1C0
E0E0
C060
C060
C060
C060
C060
E0E0
60C0
7FC0
1F00
ENDCHAR
STARTCHAR char4335
ENCODING 4335
SWIDTH 551 0
DWIDTH 16 0
BBX 11 20 2 -5
BITMAP
0C00
8C00
FC00
7E00
0FC0
0DC0
0C40
0C00
0600
0300
0380
40C0
E0E0
C060
C060
C060
C060
E0E0
7FC0
3F80
ENDCHAR
STARTCHAR char4336
ENCODING 4336
SWIDTH 551 0
DWIDTH 16 0
BBX 11 19 2 0
BITMAP
1800
1C00
0FC0
00E0
0060
00E0
0FC0
0FC0
0060
0060
00E0
0F80
0FC0
C060
C060
C060
E0E0
7FC0
1F80
ENDCHAR
STARTCHAR char4337
ENCODING 4337
SWIDTH 551 0
DWIDTH 16 0
BBX 12 24 1 -5
BITMAP
0300
03C0
01F0
0030
0030
6070
61C0
61F0
6030
6030
6030
61E0
61E0
6030
6030
6030
E1E0
E1C0
E070
6030
6030
7030
3FF0
1FC0
ENDCHAR
STARTCHAR char4338
ENCODING 4338
SWIDTH 551 0
DWIDTH 16 0
BBX 11 16 2 -3
BITMAP
0E00
3F80
71C0
E0E0
C060
C060
C060
C060
C060
E0E0
71C0
3B80
1F00
3B80
F1E0
C0E0
ENDCHAR
STARTCHAR char4339
ENCODING 4339
SWIDTH 551 0
DWIDTH 16 0
BBX 11 18 2 -5
BITMAP
1FE0
FFE0
E0E0
E0E0
E0E0
00C0
01C0
0F80
0F00
01C0
00E0
0060
C060
C060
C060
E0E0
7FC0
3F80
ENDCHAR
STARTCHAR char4340
ENCODING 4340
SWIDTH 551 0
DWIDTH 16 0
BBX 11 24 2 -5
BITMAP
1C00
7C00
E000
C000
C000
C000
C060
7FE0
3FE0
0060
0060
00E0
00C0
0180
0F00
0F80
00C0
0060
0060
C060
C060
E0E0
7FC0
3F80
ENDCHAR
STARTCHAR char4341
ENCODING 4341
SWIDTH 551 0
DWIDTH 16 0
BBX 12 19 2 0
BITMAP
3F00
7FC0
E0C0
C0E0
C060
C060
F060
7FF0
07F0
0060
0060
7FF0
F070
C060
C060
C0E0
E0C0
7FC0
3F00
ENDCHAR
STARTCHAR char4342
ENCODING 4342
SWIDTH 551 0
DWIDTH 16 0
BBX 13 18 1 -5
BITMAP
3060
7DF0
C718
C718
C318
C318
C318
C318
C318
C318
E318
73F8
13F0
0300
0700
0600
1E00
1C00
ENDCHAR
STARTCHAR char4343
ENCODING 4343
SWIDTH 551 0
DWIDTH 16 0
BBX 13 18 1 -5
BITMAP
0F00
1FC0
38C0
30C0
30E0
00C0
03C0
1F80
3E00
7000
6030
E038
E038
E038
E038
6070
7FF0
1FC0
ENDCHAR
STARTCHAR char4344
ENCODING 4344
SWIDTH 551 0
DWIDTH 16 0
BBX 11 18 2 -5
BITMAP
0300
C180
C0C0
C0E0
C060
C060
C060
C060
C0E0
F1C0
FF80
C600
C000
C060
C060
E0E0
7FC0
3F80
ENDCHAR
STARTCHAR char4345
ENCODING 4345
SWIDTH 551 0
DWIDTH 16 0
BBX 13 18 1 -5
BITMAP
0F80
3FE0
7070
6030
E038
E038
E038
6030
78F0
1FE0
0780
0E00
1C00
1800
3860
1860
1FE0
0FC0
ENDCHAR
STARTCHAR char4346
ENCODING 4346
SWIDTH 551 0
DWIDTH 16 0
BBX 11 14 2 -2
BITMAP
0E00
3FC0
70E0
E060
C060
C060
C060
C0E0
E0C0
60C0
3000
1C00
3E00
6380
ENDCHAR
STARTCHAR char4347
ENCODING 4347
SWIDTH 551 0
DWIDTH 16 0
BBX 8 11 4 1
BITMAP
C0
C0
00
00
07
07
00
00
00
C0
C0
ENDCHAR
STARTCHAR char4348
ENCODING 4348
SWIDTH 551 0
DWIDTH 16 0
BBX 5 10 5 9
BITMAP
78
80
80
B0
D8
88
88
88
D8
70
ENDCHAR
STARTCHAR char7426
ENCODING 7426
SWIDTH 551 0
DWIDTH 16 0
BBX 14 14 1 0
BITMAP
78F0
FDF8
8718
070C
070C
0318
0738
FFF0
C600
C600
C700
C700
FFF8
7DF8
ENDCHAR
STARTCHAR char7432
ENCODING 7432
SWIDTH 551 0
DWIDTH 16 0
BBX 11 14 2 0
BITMAP
7F00
FFC0
81E0
0060
0060
00E0
01C0
1F00
1F80
00C0
00E0
00E0
7FC0
7F80
ENDCHAR
STARTCHAR char7433
ENCODING 7433
SWIDTH 551 0
DWIDTH 16 0
BBX 11 19 2 -5
BITMAP
FFE0
FFE0
0600
0600
0600
0600
0600
0600
0600
0600
0600
0600
07C0
07C0
0000
0000
0600
0600
0600
ENDCHAR
STARTCHAR char7444
ENCODING 7444
SWIDTH 551 0
DWIDTH 16 0
BBX 15 14 0 0
BITMAP
7CF0
FFFC
878C
030C
0306
0306
0306
FF06
C306
C306
C30E
638C
7FFC
3EF8
ENDCHAR
STARTCHAR char7446
ENCODING 7446
SWIDTH 551 0
DWIDTH 16 0
BBX 11 7 2 7
BITMAP
1F00
7FC0
71C0
E0E0
C060
C060
C060
ENDCHAR
STARTCHAR char7447
ENCODING 7447
SWIDTH 551 0
DWIDTH 16 0
BBX 11 7 2 0
BITMAP
C060
C060
C060
E0E0
E0E0
7FC0
3F80
ENDCHAR
STARTCHAR char7453
ENCODING 7453
SWIDTH 551 0
DWIDTH 16 0
BBX 14 10 1 0
BITMAP
FFF8
FFF8
0030
0018
0008
000C
0018
0038
FFF8
FFE0
ENDCHAR
STARTCHAR char7454
ENCODING 7454
SWIDTH 551 0
DWIDTH 16 0
BBX 13 10 1 0
BITMAP
1FF8
DFF8
C010
C008
0008
0008
C008
C018
DFF8
1FF0
ENDCHAR
STARTCHAR char7455
ENCODING 7455
SWIDTH 551 0
DWIDTH 16 0
BBX 13 13 1 0
BITMAP
FFF8
FFF8
FFF0
0008
0008
0078
FFF8
FFF0
0018
0008
0018
FFF8
FFF0
ENDCHAR
STARTCHAR char7468
ENCODING 7468
SWIDTH 551 0
DWIDTH 16 0
BBX 9 10 3 8
BITMAP
1C00
1400
1400
3600
2200
2200
7F00
4100
4180
C180
ENDCHAR
STARTCHAR char7469
ENCODING 7469
SWIDTH 551 0
DWIDTH 16 0
BBX 9 10 3 8
BITMAP
1F80
1400
3400
2400
2780
6400
7C00
4400
C400
C780
ENDCHAR
STARTCHAR char7470
ENCODING 7470
SWIDTH 551 0
DWIDTH 16 0
BBX 7 10 4 8
BITMAP
FC
86
86
86
F8
86
82
82
8E
FC
ENDCHAR
STARTCHAR char7472
ENCODING 7472
SWIDTH 551 0
DWIDTH 16 0
BBX 7 10 4 8
BITMAP
FC
84
86
82
82
82
86
86
8C
F0
ENDCHAR
STARTCHAR char7473
ENCODING 7473
SWIDTH 551 0
DWIDTH 16 0
BBX 7 10 4 8
BITMAP
FE
C0
C0
C0
FE
C0
C0
C0
C0
FE
ENDCHAR
STARTCHAR char7474
ENCODING 7474
SWIDTH 551 0
DWIDTH 16 0
BBX 7 10 4 8
BITMAP
FE
06
06
06
FE
06
06
06
06
FE
ENDCHAR
STARTCHAR char7475
ENCODING 7475
SWIDTH 551 0
DWIDTH 16 0
BBX 7 11 4 8
BITMAP
08
7E
C0
C0
80
80
8E
82
C2
62
3E
ENDCHAR
STARTCHAR char7476
ENCODING 7476
SWIDTH 551 0
DWIDTH 16 0
BBX 7 10 4 8
BITMAP
82
82
82
82
FE
82
82
82
82
82
ENDCHAR
STARTCHAR char7477
ENCODING 7477
SWIDTH 551 0
DWIDTH 16 0
BBX 7 10 4 8
BITMAP
FE
10
10
10
10
10
10
10
10
FE
ENDCHAR
STARTCHAR char7478
ENCODING 7478
SWIDTH 551 0
DWIDTH 16 0
BBX 7 10 4 8
BITMAP
3E
06
06
06
06
06
06
06
84
FC
ENDCHAR
STARTCHAR char7479
ENCODING 7479
SWIDTH 551 0
DWIDTH 16 0
BBX 8 10 3 8
BITMAP
C3
C6
CC
D0
F8
C8
CC
C6
C3
C1
ENDCHAR
STARTCHAR char7480
ENCODING 7480
SWIDTH 551 0
DWIDTH 16 0
BBX 7 10 4 8
BITMAP
C0
C0
C0
C0
C0
C0
C0
C0
C0
FE
ENDCHAR
STARTCHAR char7481
ENCODING 7481
SWIDTH 551 0
DWIDTH 16 0
BBX 9 10 3 8
BITMAP
E380
E380
D780
D580
D580
C980
C180
C180
C180
C180
ENDCHAR
STARTCHAR char7482
ENCODING 7482
SWIDTH 551 0
DWIDTH 16 0
BBX 7 10 4 8
BITMAP
C2
E2
A2
B2
92
9A
8A
8A
86
86
ENDCHAR
STARTCHAR char7483
ENCODING 7483
SWIDTH 551 0
DWIDTH 16 0
BBX 7 10 4 8
BITMAP
86
8E
8A
9A
92
92
A2
A2
C2
C2
ENDCHAR
STARTCHAR char7484
ENCODING 7484
SWIDTH 551 0
DWIDTH 16 0
BBX 7 11 4 8
BITMAP
10
7C
C6
C2
82
82
82
82
C6
C6
7C
ENDCHAR
STARTCHAR char7486
ENCODING 7486
SWIDTH 551 0
DWIDTH 16 0
BBX 7 10 4 8
BITMAP
FC
86
82
86
8E
F8
80
80
80
80
ENDCHAR
STARTCHAR char7487
ENCODING 7487
SWIDTH 551 0
DWIDTH 16 0
BBX 9 10 3 8
BITMAP
FE00
C600
C200
C200
FE00
FC00
C600
C200
C300
C180
ENDCHAR
STARTCHAR char7488
ENCODING 7488
SWIDTH 551 0
DWIDTH 16 0
BBX 9 10 3 8
BITMAP
FF80
0800
0800
0800
0800
0800
0800
0800
0800
0800
ENDCHAR
STARTCHAR char7489
ENCODING 7489
SWIDTH 551 0
DWIDTH 16 0
BBX 7 10 4 8
BITMAP
82
82
82
82
82
82
82
C2
C6
7C
ENDCHAR
STARTCHAR char7490
ENCODING 7490
SWIDTH 551 0
DWIDTH 16 0
BBX 9 10 3 8
BITMAP
8080
C180
C980
DD80
5500
5500
5500
7700
6300
6300
ENDCHAR
STARTCHAR char7491
ENCODING 7491
SWIDTH 551 0
DWIDTH 16 0
BBX 7 8 4 8
BITMAP
7C
06
02
7E
C2
86
C6
7A
ENDCHAR
STARTCHAR char7492
ENCODING 7492
SWIDTH 551 0
DWIDTH 16 0
BBX 7 8 4 8
BITMAP
BC
C6
C2
86
FC
80
C0
7C
ENDCHAR
STARTCHAR char7493
ENCODING 7493
SWIDTH 551 0
DWIDTH 16 0
BBX 7 8 4 8
BITMAP
3A
46
C6
C2
82
C6
46
7A
ENDCHAR
STARTCHAR char7494
ENCODING 7494
SWIDTH 551 0
DWIDTH 16 0
BBX 9 8 3 8
BITMAP
F700
9980
0880
0980
FE00
8800
C800
7700
ENDCHAR
STARTCHAR char7495
ENCODING 7495
SWIDTH 551 0
DWIDTH 16 0
BBX 7 11 4 8
BITMAP
80
80
80
B8
C4
C6
82
82
C6
C4
BC
ENDCHAR
STARTCHAR char7496
ENCODING 7496
SWIDTH 551 0
DWIDTH 16 0
BBX 7 11 4 8
BITMAP
02
02
02
3A
46
C6
C2
82
C6
46
7A
ENDCHAR
STARTCHAR char7497
ENCODING 7497
SWIDTH 551 0
DWIDTH 16 0
BBX 7 8 4 8
BITMAP
3C
C6
82
FE
80
80
C2
3E
ENDCHAR
STARTCHAR char7498
ENCODING 7498
SWIDTH 551 0
DWIDTH 16 0
BBX 7 8 4 8
BITMAP
F8
86
02
02
FE
82
C6
78
ENDCHAR
STARTCHAR char7499
ENCODING 7499
SWIDTH 551 0
DWIDTH 16 0
BBX 7 8 4 8
BITMAP
7E
C0
C0
38
60
C0
C0
3E
ENDCHAR
STARTCHAR char7500
ENCODING 7500
SWIDTH 551 0
DWIDTH 16 0
BBX 7 8 4 8
BITMAP
FC
06
02
06
38
06
06
FC
ENDCHAR
STARTCHAR char7501
ENCODING 7501
SWIDTH 551 0
DWIDTH 16 0
BBX 7 11 4 5
BITMAP
3A
46
C6
C2
C2
C6
46
3A
02
46
78
ENDCHAR
STARTCHAR char7502
ENCODING 7502
SWIDTH 551 0
DWIDTH 16 0
BBX 7 11 4 5
BITMAP
FE
10
10
10
10
10
10
1C
00
10
10
ENDCHAR
STARTCHAR char7503
ENCODING 7503
SWIDTH 551 0
DWIDTH 16 0
BBX 7 11 4 8
BITMAP
80
80
80
84
98
B0
F0
D0
88
8C
86
ENDCHAR
STARTCHAR char7504
ENCODING 7504
SWIDTH 551 0
DWIDTH 16 0
BBX 7 8 4 8
BITMAP
FE
92
92
92
92
92
92
92
ENDCHAR
STARTCHAR char7505
ENCODING 7505
SWIDTH 551 0
DWIDTH 16 0
BBX 7 11 4 5
BITMAP
FC
C6
C6
C6
C6
C6
C6
C6
06
0E
18
ENDCHAR
STARTCHAR char7506
ENCODING 7506
SWIDTH 551 0
DWIDTH 16 0
BBX 7 8 4 8
BITMAP
7C
C6
C6
82
82
C2
C6
7C
ENDCHAR
STARTCHAR char7507
ENCODING 7507
SWIDTH 551 0
DWIDTH 16 0
BBX 7 8 4 8
BITMAP
F8
8C
06
06
06
06
8C
F8
ENDCHAR
STARTCHAR char7508
ENCODING 7508
SWIDTH 551 0
DWIDTH 16 0
BBX 7 4 4 12
BITMAP
7C
C6
C6
82
ENDCHAR
STARTCHAR char7509
ENCODING 7509
SWIDTH 551 0
DWIDTH 16 0
BBX 7 4 4 8
BITMAP
82
C2
C6
7C
ENDCHAR
STARTCHAR char7510
ENCODING 7510
SWIDTH 551 0
DWIDTH 16 0
BBX 7 11 4 5
BITMAP
B8
C4
C6
82
82
C6
C6
BC
80
80
80
ENDCHAR
STARTCHAR char7511
ENCODING 7511
SWIDTH 551 0
DWIDTH 16 0
BBX 7 10 4 8
BITMAP
30
30
FE
30
30
30
30
30
10
1E
ENDCHAR
STARTCHAR char7512
ENCODING 7512
SWIDTH 551 0
DWIDTH 16 0
BBX 7 8 4 8
BITMAP
C6
C6
C6
C6
C6
C6
C6
7E
ENDCHAR
STARTCHAR char7513
ENCODING 7513
SWIDTH 551 0
DWIDTH 16 0
BBX 9 6 3 8
BITMAP
FF80
0300
0080
0080
0380
FE00
ENDCHAR
STARTCHAR char7514
ENCODING 7514
SWIDTH 551 0
DWIDTH 16 0
BBX 7 8 4 8
BITMAP
92
92
92
92
92
92
BA
EE
ENDCHAR
STARTCHAR char7515
ENCODING 7515
SWIDTH 551 0
DWIDTH 16 0
BBX 7 8 4 8
BITMAP
82
C2
C6
44
6C
28
28
38
ENDCHAR
STARTCHAR char7522
ENCODING 7522
SWIDTH 551 0
DWIDTH 16 0
BBX 7 11 4 0
BITMAP
10
10
00
70
10
10
10
10
10
10
FE
ENDCHAR
STARTCHAR char7523
ENCODING 7523
SWIDTH 551 0
DWIDTH 16 0
BBX 5 8 5 0
BITMAP
B8
C0
C0
80
80
80
80
80
ENDCHAR
STARTCHAR char7524
ENCODING 7524
SWIDTH 551 0
DWIDTH 16 0
BBX 7 8 4 0
BITMAP
C6
C6
C6
C6
C6
C6
C6
7E
ENDCHAR
STARTCHAR char7525
ENCODING 7525
SWIDTH 551 0
DWIDTH 16 0
BBX 7 8 4 0
BITMAP
82
C2
C6
44
6C
28
28
38
ENDCHAR
STARTCHAR char7543
ENCODING 7543
SWIDTH 551 0
DWIDTH 16 0
BBX 11 19 2 -5
BITMAP
1F80
7F80
E080
C000
C000
CE00
FF80
F380
E0C0
C0C0
C0E0
C0E0
C0E0
C0E0
C0E0
C0C0
E1C0
FF80
DF00
ENDCHAR
STARTCHAR char7544
ENCODING 7544
SWIDTH 551 0
DWIDTH 16 0
BBX 7 10 4 8
BITMAP
82
82
82
82
FE
82
82
82
82
82
ENDCHAR
STARTCHAR char7547
ENCODING 7547
SWIDTH 551 0
DWIDTH 16 0
BBX 11 14 2 0
BITMAP
FFE0
FFE0
0E00
0E00
0E00
0E00
FFE0
FFE0
0E00
0E00
0E00
0E00
FFE0
FFE0
ENDCHAR
STARTCHAR char7557
ENCODING 7557
SWIDTH 551 0
DWIDTH 16 0
BBX 11 24 2 -5
BITMAP
FC00
FC00
0C00
0C00
0C00
0C00
0C00
0C00
0C00
0C00
0C00
0C00
0C00
0C00
0C00
0C00
0E00
0FE0
03E0
00E0
00E0
00C0
0FC0
0F80
ENDCHAR
STARTCHAR char7579
ENCODING 7579
SWIDTH 551 0
DWIDTH 16 0
BBX 7 8 4 8
BITMAP
B8
C4
C6
82
82
C6
C6
BC
ENDCHAR
STARTCHAR char7580
ENCODING 7580
SWIDTH 551 0
DWIDTH 16 0
BBX 7 8 4 8
BITMAP
3E
62
C0
C0
C0
C0
62
3E
ENDCHAR
STARTCHAR char7581
ENCODING 7581
SWIDTH 551 0
DWIDTH 16 0
BBX 7 9 4 7
BITMAP
3E
62
C0
C0
C0
DC
72
3E
20
ENDCHAR
STARTCHAR char7582
ENCODING 7582
SWIDTH 551 0
DWIDTH 16 0
BBX 7 11 4 8
BITMAP
60
3C
58
1C
64
C6
82
82
C2
C6
7C
ENDCHAR
STARTCHAR char7583
ENCODING 7583
SWIDTH 551 0
DWIDTH 16 0
BBX 7 8 4 8
BITMAP
FC
06
06
3C
0E
02
06
FC
ENDCHAR
STARTCHAR char7584
ENCODING 7584
SWIDTH 551 0
DWIDTH 16 0
BBX 7 11 4 8
BITMAP
0E
10
30
FE
30
30
30
30
30
30
30
ENDCHAR
STARTCHAR char7585
ENCODING 7585
SWIDTH 551 0
DWIDTH 16 0
BBX 7 11 4 5
BITMAP
78
18
18
18
18
18
18
3E
18
18
F0
ENDCHAR
STARTCHAR char7586
ENCODING 7586
SWIDTH 551 0
DWIDTH 16 0
BBX 7 11 4 5
BITMAP
3E
4E
C2
C2
C2
C6
46
3A
02
46
78
ENDCHAR
STARTCHAR char7587
ENCODING 7587
SWIDTH 551 0
DWIDTH 16 0
BBX 7 11 4 5
BITMAP
C6
C6
C6
C6
C6
C6
C6
7E
06
06
06
ENDCHAR
STARTCHAR char7588
ENCODING 7588
SWIDTH 551 0
DWIDTH 16 0
BBX 7 11 4 8
BITMAP
10
10
00
70
10
10
10
FE
10
10
FE
ENDCHAR
STARTCHAR char7589
ENCODING 7589
SWIDTH 551 0
DWIDTH 16 0
BBX 7 8 4 8
BITMAP
F0
10
10
10
10
10
18
0E
ENDCHAR
STARTCHAR char7590
ENCODING 7590
SWIDTH 551 0
DWIDTH 16 0
BBX 7 8 4 8
BITMAP
FE
10
10
10
10
10
10
FE
ENDCHAR
STARTCHAR char7591
ENCODING 7591
SWIDTH 551 0
DWIDTH 16 0
BBX 7 8 4 8
BITMAP
FE
10
10
10
FE
10
10
FE
ENDCHAR
STARTCHAR char7592
ENCODING 7592
SWIDTH 551 0
DWIDTH 16 0
BBX 7 14 4 5
BITMAP
08
08
00
08
08
08
08
08
08
08
08
7E
D8
70
ENDCHAR
STARTCHAR char7593
ENCODING 7593
SWIDTH 551 0
DWIDTH 16 0
BBX 7 14 4 5
BITMAP
F0
30
30
30
30
30
30
30
30
30
30
30
18
0E
ENDCHAR
STARTCHAR char7594
ENCODING 7594
SWIDTH 551 0
DWIDTH 16 0
BBX 7 14 4 5
BITMAP
F0
30
30
30
30
30
30
30
30
18
0E
06
06
1C
ENDCHAR
STARTCHAR char7595
ENCODING 7595
SWIDTH 551 0
DWIDTH 16 0
BBX 5 8 5 8
BITMAP
80
80
80
80
80
80
80
F8
ENDCHAR
STARTCHAR char7596
ENCODING 7596
SWIDTH 551 0
DWIDTH 16 0
BBX 7 11 4 5
BITMAP
FE
92
92
92
92
92
92
92
02
06
0C
ENDCHAR
STARTCHAR char7597
ENCODING 7597
SWIDTH 551 0
DWIDTH 16 0
BBX 7 11 4 5
BITMAP
92
92
92
92
92
92
BA
EE
02
02
02
ENDCHAR
STARTCHAR char7598
ENCODING 7598
SWIDTH 551 0
DWIDTH 16 0
BBX 7 11 4 5
BITMAP
7C
66
62
62
62
62
62
62
60
40
C0
ENDCHAR
STARTCHAR char7599
ENCODING 7599
SWIDTH 551 0
DWIDTH 16 0
BBX 7 11 4 5
BITMAP
B8
C8
8C
84
84
84
84
84
04
04
06
ENDCHAR
STARTCHAR char7600
ENCODING 7600
SWIDTH 551 0
DWIDTH 16 0
BBX 7 8 4 8
BITMAP
C2
E2
A2
B2
9A
8A
8E
86
ENDCHAR
STARTCHAR char7601
ENCODING 7601
SWIDTH 551 0
DWIDTH 16 0
BBX 7 8 4 8
BITMAP
7C
C6
C6
82
FE
C2
C6
7C
ENDCHAR
STARTCHAR char7602
ENCODING 7602
SWIDTH 551 0
DWIDTH 16 0
BBX 7 14 4 5
BITMAP
7C
10
10
7C
D6
D6
92
92
D2
D6
7C
10
10
7C
ENDCHAR
STARTCHAR char7603
ENCODING 7603
SWIDTH 551 0
DWIDTH 16 0
BBX 7 11 4 5
BITMAP
7C
C0
C0
70
1C
06
86
FC
C0
C0
38
ENDCHAR
STARTCHAR char7604
ENCODING 7604
SWIDTH 551 0
DWIDTH 16 0
BBX 5 14 5 5
BITMAP
18
20
60
60
60
60
60
60
60
60
60
60
60
80
ENDCHAR
STARTCHAR char7605
ENCODING 7605
SWIDTH 551 0
DWIDTH 16 0
BBX 7 13 4 5
BITMAP
30
30
FE
30
30
30
30
30
10
1E
02
06
1C
ENDCHAR
STARTCHAR char7606
ENCODING 7606
SWIDTH 551 0
DWIDTH 16 0
BBX 10 8 3 8
BITMAP
4100
4100
4100
4100
FFC0
4300
6300
3D00
ENDCHAR
STARTCHAR char7607
ENCODING 7607
SWIDTH 551 0
DWIDTH 16 0
BBX 8 8 4 8
BITMAP
EF
6C
C6
82
82
82
C6
7C
ENDCHAR
STARTCHAR char7609
ENCODING 7609
SWIDTH 551 0
DWIDTH 16 0
BBX 7 8 4 8
BITMAP
80
8C
86
82
82
86
CC
78
ENDCHAR
STARTCHAR char7610
ENCODING 7610
SWIDTH 551 0
DWIDTH 16 0
BBX 9 8 3 8
BITMAP
1C00
1400
1400
3600
2200
6300
4100
C180
ENDCHAR
STARTCHAR char7611
ENCODING 7611
SWIDTH 551 0
DWIDTH 16 0
BBX 7 8 4 8
BITMAP
FE
06
0C
18
30
60
C0
FE
ENDCHAR
STARTCHAR char7612
ENCODING 7612
SWIDTH 551 0
DWIDTH 16 0
BBX 7 11 4 5
BITMAP
F8
08
18
10
20
40
C0
F8
08
04
06
ENDCHAR
STARTCHAR char7613
ENCODING 7613
SWIDTH 551 0
DWIDTH 16 0
BBX 7 9 4 7
BITMAP
FE
06
0C
18
30
6E
D2
FC
10
ENDCHAR
STARTCHAR char7614
ENCODING 7614
SWIDTH 551 0
DWIDTH 16 0
BBX 7 11 4 5
BITMAP
FE
04
0C
18
30
3C
06
02
02
8E
78
ENDCHAR
STARTCHAR char7615
ENCODING 7615
SWIDTH 551 0
DWIDTH 16 0
BBX 7 10 4 8
BITMAP
7C
C6
C6
82
FE
82
82
C6
44
38
ENDCHAR
STARTCHAR char7680
ENCODING 7680
SWIDTH 551 0
DWIDTH 16 0
BBX 13 24 1 -6
BITMAP
0700
0700
0D80
0D80
0D80
1CC0
18C0
18C0
38E0
3060
3060
7FF0
7FF0
6030
6038
E038
C018
C018
0000
0700
0880
0880
0880
0700
ENDCHAR
STARTCHAR char7681
ENCODING 7681
SWIDTH 551 0
DWIDTH 16 0
BBX 11 20 2 -6
BITMAP
3F00
7FC0
40C0
00E0
0060
3FE0
7FE0
E060
C060
C0E0
C0E0
E1E0
7F60
3E60
0000
0E00
1100
1100
1100
0E00
ENDCHAR
STARTCHAR char7682
ENCODING 7682
SWIDTH 551 0
DWIDTH 16 0
BBX 12 23 2 0
BITMAP
0E00
0E00
0E00
0000
0000
FF00
FFC0
E0E0
E060
E060
E060
E0E0
FFC0
FFC0
E0E0
E060
E070
E070
E070
E070
E0E0
FFC0
FF80
ENDCHAR
STARTCHAR char7683
ENCODING 7683
SWIDTH 551 0
DWIDTH 16 0
BBX 12 19 2 0
BITMAP
E700
E700
E700
E000
E000
EF80
FFC0
F0E0
E0E0
E060
E060
E070
E070
E070
E060
E0E0
F0E0
FFC0
EF80
ENDCHAR
STARTCHAR char7684
ENCODING 7684
SWIDTH 551 0
DWIDTH 16 0
BBX 12 24 2 -6
BITMAP
FF00
FFC0
E0E0
E060
E060
E060
E0E0
FFC0
FFC0
E0E0
E060
E070
E070
E070
E070
E0E0
FFC0
FF80
0000
0000
0000
0E00
0E00
0E00
ENDCHAR
STARTCHAR char7685
ENCODING 7685
SWIDTH 551 0
DWIDTH 16 0
BBX 12 25 2 -6
BITMAP
E000
E000
E000
E000
E000
EF80
FFC0
F0E0
E0E0
E060
E060
E070
E070
E070
E060
E0E0
F0E0
FFC0
EF80
0000
0000
0000
0E00
0E00
0E00
ENDCHAR
STARTCHAR char7686
ENCODING 7686
SWIDTH 551 0
DWIDTH 16 0
BBX 12 23 2 -5
BITMAP
FF00
FFC0
E0E0
E060
E060
E060
E0E0
FFC0
FFC0
E0E0
E060
E070
E070
E070
E070
E0E0
FFC0
FF80
0000
0000
0000
3F80
3F80
ENDCHAR
ENDFONT
